G04*
G04 #@! TF.GenerationSoftware,Altium Limited,Altium Designer,23.4.1 (23)*
G04*
G04 Layer_Color=16711935*
%FSLAX44Y44*%
%MOMM*%
G71*
G04*
G04 #@! TF.SameCoordinates,D8EC2F4E-BF9A-46B1-9C30-41DC9E0D0BA1*
G04*
G04*
G04 #@! TF.FilePolarity,Negative*
G04*
G01*
G75*
%ADD33C,4.2032*%
G04:AMPARAMS|DCode=44|XSize=0.7032mm|YSize=0.7032mm|CornerRadius=0.1641mm|HoleSize=0mm|Usage=FLASHONLY|Rotation=0.000|XOffset=0mm|YOffset=0mm|HoleType=Round|Shape=RoundedRectangle|*
%AMROUNDEDRECTD44*
21,1,0.7032,0.3750,0,0,0.0*
21,1,0.3750,0.7032,0,0,0.0*
1,1,0.3282,0.1875,-0.1875*
1,1,0.3282,-0.1875,-0.1875*
1,1,0.3282,-0.1875,0.1875*
1,1,0.3282,0.1875,0.1875*
%
%ADD44ROUNDEDRECTD44*%
G04:AMPARAMS|DCode=45|XSize=1.1032mm|YSize=1.0032mm|CornerRadius=0.1616mm|HoleSize=0mm|Usage=FLASHONLY|Rotation=180.000|XOffset=0mm|YOffset=0mm|HoleType=Round|Shape=RoundedRectangle|*
%AMROUNDEDRECTD45*
21,1,1.1032,0.6800,0,0,180.0*
21,1,0.7800,1.0032,0,0,180.0*
1,1,0.3232,-0.3900,0.3400*
1,1,0.3232,0.3900,0.3400*
1,1,0.3232,0.3900,-0.3400*
1,1,0.3232,-0.3900,-0.3400*
%
%ADD45ROUNDEDRECTD45*%
G04:AMPARAMS|DCode=46|XSize=1.1032mm|YSize=1.0032mm|CornerRadius=0.1616mm|HoleSize=0mm|Usage=FLASHONLY|Rotation=90.000|XOffset=0mm|YOffset=0mm|HoleType=Round|Shape=RoundedRectangle|*
%AMROUNDEDRECTD46*
21,1,1.1032,0.6800,0,0,90.0*
21,1,0.7800,1.0032,0,0,90.0*
1,1,0.3232,0.3400,0.3900*
1,1,0.3232,0.3400,-0.3900*
1,1,0.3232,-0.3400,-0.3900*
1,1,0.3232,-0.3400,0.3900*
%
%ADD46ROUNDEDRECTD46*%
G04:AMPARAMS|DCode=47|XSize=1.2032mm|YSize=2.0032mm|CornerRadius=0.1516mm|HoleSize=0mm|Usage=FLASHONLY|Rotation=90.000|XOffset=0mm|YOffset=0mm|HoleType=Round|Shape=RoundedRectangle|*
%AMROUNDEDRECTD47*
21,1,1.2032,1.7000,0,0,90.0*
21,1,0.9000,2.0032,0,0,90.0*
1,1,0.3032,0.8500,0.4500*
1,1,0.3032,0.8500,-0.4500*
1,1,0.3032,-0.8500,-0.4500*
1,1,0.3032,-0.8500,0.4500*
%
%ADD47ROUNDEDRECTD47*%
%ADD48R,0.3900X0.6400*%
%ADD49R,0.6400X0.3900*%
%ADD50R,1.7600X1.7600*%
D33*
X269999Y24999D02*
D03*
X334999D02*
D03*
Y225000D02*
D03*
X270000Y225000D02*
D03*
X24999Y225000D02*
D03*
X25000Y25000D02*
D03*
X89999Y24999D02*
D03*
X90000Y225000D02*
D03*
D44*
X167000Y150000D02*
D03*
X177000D02*
D03*
D45*
X221500Y105000D02*
D03*
X238500D02*
D03*
X221500Y120000D02*
D03*
X238500D02*
D03*
X188500Y66000D02*
D03*
X171500D02*
D03*
X227500Y234000D02*
D03*
X210500D02*
D03*
X320500Y193000D02*
D03*
X303500D02*
D03*
X238500Y150000D02*
D03*
X221500D02*
D03*
X191500D02*
D03*
X208500D02*
D03*
Y165000D02*
D03*
X191500D02*
D03*
X221500D02*
D03*
X238500D02*
D03*
X221500Y135000D02*
D03*
X238500D02*
D03*
X210500Y219000D02*
D03*
X227500D02*
D03*
X210500Y204000D02*
D03*
X227500D02*
D03*
D46*
X206000Y95500D02*
D03*
Y78500D02*
D03*
X118000Y103500D02*
D03*
Y120500D02*
D03*
Y133500D02*
D03*
Y150500D02*
D03*
X172000Y95500D02*
D03*
Y78500D02*
D03*
X189000Y95500D02*
D03*
Y78500D02*
D03*
D47*
X15000Y110000D02*
D03*
Y140000D02*
D03*
X35000D02*
D03*
Y110000D02*
D03*
X55000Y140000D02*
D03*
Y110000D02*
D03*
X75000Y140000D02*
D03*
Y110000D02*
D03*
X285000Y140000D02*
D03*
Y110000D02*
D03*
X305000Y140000D02*
D03*
Y110000D02*
D03*
X325000Y140000D02*
D03*
Y110000D02*
D03*
X345000Y140000D02*
D03*
Y110000D02*
D03*
D48*
X182500Y111400D02*
D03*
X177500D02*
D03*
X172500D02*
D03*
X167500D02*
D03*
Y138600D02*
D03*
X172500D02*
D03*
X177500D02*
D03*
X182500D02*
D03*
D49*
X161400Y117500D02*
D03*
Y122500D02*
D03*
Y127500D02*
D03*
Y132500D02*
D03*
X188600D02*
D03*
Y127500D02*
D03*
Y122500D02*
D03*
Y117500D02*
D03*
D50*
X175000Y125000D02*
D03*
M02*
