G04*
G04 #@! TF.GenerationSoftware,Altium Limited,Altium Designer,23.4.1 (23)*
G04*
G04 Layer_Color=32896*
%FSLAX44Y44*%
%MOMM*%
G71*
G04*
G04 #@! TF.SameCoordinates,784DB819-4BFE-4B82-8429-40DAF9DCB5A1*
G04*
G04*
G04 #@! TF.FilePolarity,Positive*
G04*
G01*
G75*
%ADD12C,0.1524*%
%ADD13C,0.2000*%
G36*
X412529Y81893D02*
X412768Y81872D01*
X412993Y81837D01*
X413204Y81788D01*
X413401Y81732D01*
X413584Y81668D01*
X413746Y81605D01*
X413901Y81542D01*
X414035Y81471D01*
X414154Y81408D01*
X414253Y81345D01*
X414337Y81288D01*
X414400Y81246D01*
X414450Y81204D01*
X414478Y81183D01*
X414485Y81176D01*
X414632Y81035D01*
X414759Y80880D01*
X414879Y80718D01*
X414977Y80550D01*
X415069Y80374D01*
X415146Y80198D01*
X415209Y80029D01*
X415266Y79860D01*
X415308Y79705D01*
X415343Y79557D01*
X415371Y79424D01*
X415392Y79311D01*
X415414Y79220D01*
X415420Y79149D01*
Y79121D01*
X415428Y79100D01*
Y79093D01*
Y79086D01*
X414196Y78959D01*
X414189Y79128D01*
X414175Y79283D01*
X414147Y79431D01*
X414119Y79572D01*
X414077Y79698D01*
X414035Y79811D01*
X413985Y79923D01*
X413936Y80015D01*
X413894Y80099D01*
X413844Y80177D01*
X413802Y80240D01*
X413760Y80296D01*
X413732Y80331D01*
X413704Y80367D01*
X413690Y80381D01*
X413683Y80388D01*
X413584Y80479D01*
X413472Y80557D01*
X413359Y80627D01*
X413246Y80690D01*
X413127Y80739D01*
X413014Y80782D01*
X412902Y80817D01*
X412796Y80845D01*
X412691Y80866D01*
X412599Y80880D01*
X412515Y80894D01*
X412437Y80901D01*
X412381Y80908D01*
X412297D01*
X412149Y80901D01*
X412008Y80887D01*
X411875Y80866D01*
X411748Y80831D01*
X411635Y80796D01*
X411523Y80754D01*
X411424Y80711D01*
X411333Y80662D01*
X411255Y80620D01*
X411185Y80571D01*
X411122Y80528D01*
X411072Y80493D01*
X411030Y80458D01*
X411002Y80437D01*
X410988Y80423D01*
X410981Y80416D01*
X410890Y80324D01*
X410812Y80226D01*
X410742Y80127D01*
X410685Y80022D01*
X410636Y79923D01*
X410594Y79825D01*
X410559Y79726D01*
X410531Y79635D01*
X410509Y79550D01*
X410495Y79473D01*
X410481Y79403D01*
X410474Y79339D01*
X410467Y79290D01*
Y79255D01*
Y79227D01*
Y79220D01*
X410474Y79093D01*
X410488Y78966D01*
X410517Y78840D01*
X410552Y78713D01*
X410643Y78467D01*
X410700Y78354D01*
X410749Y78249D01*
X410798Y78150D01*
X410854Y78059D01*
X410896Y77982D01*
X410939Y77911D01*
X410981Y77862D01*
X411009Y77820D01*
X411023Y77792D01*
X411030Y77785D01*
X411143Y77637D01*
X411283Y77475D01*
X411431Y77313D01*
X411600Y77144D01*
X411769Y76968D01*
X411952Y76800D01*
X412128Y76631D01*
X412311Y76469D01*
X412480Y76314D01*
X412641Y76173D01*
X412782Y76040D01*
X412916Y75934D01*
X413021Y75843D01*
X413064Y75807D01*
X413099Y75772D01*
X413127Y75751D01*
X413148Y75730D01*
X413162Y75723D01*
X413169Y75716D01*
X413352Y75561D01*
X413528Y75413D01*
X413690Y75273D01*
X413844Y75139D01*
X413985Y75005D01*
X414112Y74886D01*
X414224Y74773D01*
X414330Y74668D01*
X414428Y74576D01*
X414506Y74492D01*
X414576Y74421D01*
X414632Y74358D01*
X414675Y74309D01*
X414703Y74274D01*
X414724Y74253D01*
X414731Y74246D01*
X414921Y74006D01*
X415083Y73774D01*
X415216Y73556D01*
X415280Y73457D01*
X415329Y73359D01*
X415371Y73275D01*
X415414Y73197D01*
X415449Y73127D01*
X415470Y73064D01*
X415491Y73014D01*
X415505Y72979D01*
X415519Y72958D01*
Y72951D01*
X415568Y72803D01*
X415603Y72655D01*
X415625Y72515D01*
X415639Y72395D01*
X415646Y72283D01*
X415653Y72240D01*
Y72198D01*
Y72170D01*
Y72149D01*
Y72135D01*
Y72128D01*
X409222D01*
Y73275D01*
X413992D01*
X413915Y73394D01*
X413830Y73514D01*
X413746Y73619D01*
X413669Y73718D01*
X413598Y73795D01*
X413542Y73858D01*
X413507Y73901D01*
X413493Y73915D01*
X413429Y73985D01*
X413345Y74063D01*
X413254Y74147D01*
X413148Y74246D01*
X413035Y74344D01*
X412923Y74450D01*
X412684Y74654D01*
X412571Y74752D01*
X412466Y74844D01*
X412374Y74928D01*
X412282Y74998D01*
X412212Y75062D01*
X412163Y75104D01*
X412128Y75139D01*
X412114Y75146D01*
X411881Y75343D01*
X411663Y75533D01*
X411466Y75709D01*
X411283Y75871D01*
X411115Y76026D01*
X410967Y76166D01*
X410826Y76293D01*
X410706Y76406D01*
X410601Y76511D01*
X410517Y76603D01*
X410439Y76680D01*
X410376Y76743D01*
X410327Y76792D01*
X410298Y76828D01*
X410277Y76849D01*
X410270Y76856D01*
X410172Y76975D01*
X410073Y77088D01*
X409989Y77200D01*
X409911Y77306D01*
X409771Y77510D01*
X409715Y77602D01*
X409665Y77686D01*
X409616Y77763D01*
X409581Y77834D01*
X409546Y77897D01*
X409524Y77946D01*
X409503Y77989D01*
X409489Y78017D01*
X409475Y78038D01*
Y78045D01*
X409398Y78256D01*
X409334Y78460D01*
X409292Y78657D01*
X409264Y78833D01*
X409257Y78910D01*
X409250Y78981D01*
X409243Y79037D01*
X409236Y79093D01*
Y79135D01*
Y79163D01*
Y79185D01*
Y79192D01*
X409243Y79403D01*
X409271Y79607D01*
X409313Y79797D01*
X409363Y79980D01*
X409426Y80148D01*
X409496Y80310D01*
X409574Y80458D01*
X409644Y80592D01*
X409721Y80711D01*
X409799Y80817D01*
X409869Y80908D01*
X409933Y80979D01*
X409982Y81042D01*
X410024Y81084D01*
X410052Y81112D01*
X410059Y81119D01*
X410221Y81260D01*
X410390Y81380D01*
X410566Y81478D01*
X410749Y81570D01*
X410932Y81647D01*
X411122Y81711D01*
X411297Y81760D01*
X411473Y81802D01*
X411635Y81837D01*
X411790Y81858D01*
X411924Y81879D01*
X412043Y81886D01*
X412142Y81893D01*
X412212Y81900D01*
X412276D01*
X412529Y81893D01*
D02*
G37*
G36*
X419403Y81781D02*
X419473Y81661D01*
X419635Y81429D01*
X419811Y81211D01*
X419902Y81105D01*
X419987Y81007D01*
X420071Y80922D01*
X420149Y80838D01*
X420219Y80768D01*
X420282Y80704D01*
X420331Y80655D01*
X420367Y80620D01*
X420395Y80599D01*
X420402Y80592D01*
X420690Y80353D01*
X420993Y80134D01*
X421288Y79938D01*
X421429Y79853D01*
X421563Y79769D01*
X421682Y79698D01*
X421795Y79635D01*
X421900Y79579D01*
X421985Y79536D01*
X422055Y79501D01*
X422112Y79473D01*
X422140Y79459D01*
X422154Y79452D01*
Y78298D01*
X421943Y78383D01*
X421725Y78481D01*
X421513Y78580D01*
X421316Y78678D01*
X421232Y78727D01*
X421148Y78769D01*
X421077Y78812D01*
X421021Y78847D01*
X420972Y78868D01*
X420929Y78889D01*
X420908Y78903D01*
X420901Y78910D01*
X420648Y79065D01*
X420536Y79142D01*
X420423Y79213D01*
X420325Y79290D01*
X420233Y79353D01*
X420149Y79424D01*
X420064Y79480D01*
X420001Y79536D01*
X419938Y79586D01*
X419881Y79635D01*
X419839Y79670D01*
X419804Y79698D01*
X419783Y79719D01*
X419769Y79733D01*
X419762Y79741D01*
Y72128D01*
X418565D01*
Y81900D01*
X419339D01*
X419403Y81781D01*
D02*
G37*
G36*
X428423Y82027D02*
X428655Y82006D01*
X428880Y81978D01*
X429098Y81943D01*
X429302Y81900D01*
X429499Y81844D01*
X429682Y81795D01*
X429851Y81739D01*
X429999Y81682D01*
X430139Y81633D01*
X430259Y81584D01*
X430358Y81535D01*
X430442Y81499D01*
X430498Y81471D01*
X430533Y81450D01*
X430547Y81443D01*
X430745Y81323D01*
X430927Y81197D01*
X431096Y81063D01*
X431258Y80922D01*
X431406Y80782D01*
X431539Y80641D01*
X431666Y80493D01*
X431772Y80360D01*
X431870Y80233D01*
X431962Y80106D01*
X432032Y80001D01*
X432095Y79909D01*
X432138Y79825D01*
X432173Y79769D01*
X432194Y79733D01*
X432201Y79719D01*
X432299Y79501D01*
X432391Y79283D01*
X432468Y79058D01*
X432532Y78833D01*
X432588Y78608D01*
X432637Y78383D01*
X432672Y78172D01*
X432707Y77975D01*
X432729Y77785D01*
X432750Y77609D01*
X432757Y77454D01*
X432771Y77320D01*
Y77215D01*
X432778Y77172D01*
Y77137D01*
Y77109D01*
Y77088D01*
Y77074D01*
Y77067D01*
X432771Y76807D01*
X432757Y76553D01*
X432729Y76307D01*
X432700Y76075D01*
X432658Y75843D01*
X432616Y75631D01*
X432567Y75427D01*
X432518Y75237D01*
X432475Y75069D01*
X432426Y74914D01*
X432384Y74780D01*
X432342Y74668D01*
X432313Y74576D01*
X432285Y74513D01*
X432271Y74471D01*
X432264Y74464D01*
Y74457D01*
X432166Y74239D01*
X432053Y74027D01*
X431934Y73837D01*
X431814Y73654D01*
X431687Y73493D01*
X431561Y73338D01*
X431441Y73204D01*
X431321Y73078D01*
X431209Y72965D01*
X431103Y72874D01*
X431012Y72789D01*
X430927Y72726D01*
X430857Y72677D01*
X430808Y72634D01*
X430780Y72613D01*
X430766Y72606D01*
X430576Y72494D01*
X430372Y72395D01*
X430160Y72311D01*
X429949Y72233D01*
X429738Y72177D01*
X429520Y72121D01*
X429316Y72078D01*
X429112Y72043D01*
X428929Y72022D01*
X428753Y72001D01*
X428599Y71987D01*
X428465Y71973D01*
X428359D01*
X428310Y71966D01*
X428205D01*
X427923Y71973D01*
X427656Y72001D01*
X427402Y72043D01*
X427156Y72092D01*
X426931Y72156D01*
X426720Y72226D01*
X426523Y72304D01*
X426347Y72381D01*
X426185Y72458D01*
X426045Y72536D01*
X425918Y72606D01*
X425819Y72670D01*
X425735Y72719D01*
X425679Y72761D01*
X425644Y72789D01*
X425630Y72796D01*
X425439Y72965D01*
X425264Y73141D01*
X425102Y73331D01*
X424954Y73528D01*
X424820Y73732D01*
X424701Y73929D01*
X424595Y74126D01*
X424504Y74323D01*
X424419Y74506D01*
X424349Y74675D01*
X424293Y74822D01*
X424243Y74956D01*
X424208Y75062D01*
X424194Y75111D01*
X424187Y75146D01*
X424180Y75174D01*
X424173Y75195D01*
X424166Y75209D01*
Y75216D01*
X425454Y75540D01*
X425510Y75315D01*
X425573Y75111D01*
X425644Y74914D01*
X425728Y74738D01*
X425805Y74569D01*
X425897Y74414D01*
X425981Y74281D01*
X426066Y74154D01*
X426143Y74049D01*
X426221Y73950D01*
X426291Y73873D01*
X426354Y73809D01*
X426403Y73753D01*
X426439Y73718D01*
X426467Y73697D01*
X426474Y73690D01*
X426622Y73584D01*
X426769Y73486D01*
X426924Y73401D01*
X427079Y73331D01*
X427234Y73275D01*
X427388Y73225D01*
X427536Y73183D01*
X427677Y73148D01*
X427803Y73120D01*
X427930Y73106D01*
X428036Y73092D01*
X428127Y73078D01*
X428205D01*
X428261Y73071D01*
X428310D01*
X428472Y73078D01*
X428634Y73092D01*
X428788Y73113D01*
X428943Y73141D01*
X429084Y73176D01*
X429225Y73218D01*
X429351Y73253D01*
X429471Y73303D01*
X429576Y73345D01*
X429675Y73380D01*
X429759Y73422D01*
X429830Y73457D01*
X429886Y73486D01*
X429928Y73507D01*
X429957Y73521D01*
X429963Y73528D01*
X430104Y73619D01*
X430231Y73718D01*
X430350Y73823D01*
X430463Y73936D01*
X430561Y74049D01*
X430653Y74168D01*
X430737Y74281D01*
X430815Y74386D01*
X430878Y74492D01*
X430934Y74590D01*
X430984Y74682D01*
X431019Y74759D01*
X431054Y74822D01*
X431075Y74865D01*
X431082Y74900D01*
X431089Y74907D01*
X431153Y75083D01*
X431209Y75266D01*
X431258Y75449D01*
X431293Y75639D01*
X431364Y75997D01*
X431385Y76173D01*
X431406Y76342D01*
X431420Y76490D01*
X431427Y76631D01*
X431434Y76757D01*
X431441Y76863D01*
X431448Y76954D01*
Y77018D01*
Y77060D01*
Y77074D01*
X431441Y77257D01*
X431434Y77433D01*
X431399Y77770D01*
X431378Y77932D01*
X431350Y78087D01*
X431321Y78235D01*
X431293Y78369D01*
X431265Y78495D01*
X431244Y78608D01*
X431216Y78706D01*
X431195Y78791D01*
X431174Y78854D01*
X431160Y78903D01*
X431146Y78938D01*
Y78945D01*
X431082Y79114D01*
X431012Y79269D01*
X430934Y79417D01*
X430850Y79550D01*
X430766Y79684D01*
X430681Y79804D01*
X430590Y79909D01*
X430505Y80008D01*
X430421Y80092D01*
X430343Y80170D01*
X430273Y80233D01*
X430210Y80289D01*
X430160Y80331D01*
X430125Y80367D01*
X430097Y80381D01*
X430090Y80388D01*
X429942Y80486D01*
X429788Y80564D01*
X429633Y80641D01*
X429478Y80704D01*
X429316Y80754D01*
X429161Y80796D01*
X429014Y80831D01*
X428866Y80859D01*
X428732Y80887D01*
X428606Y80901D01*
X428493Y80915D01*
X428395Y80922D01*
X428317Y80929D01*
X428212D01*
X428029Y80922D01*
X427860Y80908D01*
X427698Y80887D01*
X427543Y80852D01*
X427402Y80817D01*
X427269Y80775D01*
X427149Y80732D01*
X427037Y80690D01*
X426938Y80641D01*
X426847Y80599D01*
X426769Y80557D01*
X426706Y80521D01*
X426657Y80486D01*
X426622Y80465D01*
X426600Y80451D01*
X426593Y80444D01*
X426474Y80345D01*
X426361Y80240D01*
X426263Y80120D01*
X426164Y80001D01*
X426073Y79867D01*
X425995Y79741D01*
X425918Y79614D01*
X425855Y79487D01*
X425798Y79368D01*
X425742Y79255D01*
X425700Y79156D01*
X425665Y79072D01*
X425636Y78995D01*
X425615Y78945D01*
X425608Y78910D01*
X425601Y78896D01*
X424335Y79192D01*
X424412Y79438D01*
X424511Y79670D01*
X424609Y79888D01*
X424722Y80092D01*
X424834Y80275D01*
X424947Y80451D01*
X425067Y80606D01*
X425179Y80747D01*
X425292Y80873D01*
X425390Y80979D01*
X425482Y81077D01*
X425566Y81148D01*
X425630Y81211D01*
X425686Y81253D01*
X425714Y81281D01*
X425728Y81288D01*
X425918Y81422D01*
X426115Y81535D01*
X426326Y81633D01*
X426530Y81718D01*
X426734Y81795D01*
X426938Y81851D01*
X427135Y81900D01*
X427325Y81943D01*
X427508Y81971D01*
X427670Y81992D01*
X427811Y82013D01*
X427937Y82020D01*
X428043Y82027D01*
X428085Y82034D01*
X428183D01*
X428423Y82027D01*
D02*
G37*
G36*
X179031Y211651D02*
X179101Y211532D01*
X179263Y211299D01*
X179439Y211081D01*
X179530Y210976D01*
X179615Y210877D01*
X179699Y210793D01*
X179776Y210708D01*
X179847Y210638D01*
X179910Y210575D01*
X179959Y210525D01*
X179995Y210490D01*
X180023Y210469D01*
X180030Y210462D01*
X180318Y210223D01*
X180621Y210005D01*
X180916Y209808D01*
X181057Y209723D01*
X181191Y209639D01*
X181310Y209569D01*
X181423Y209505D01*
X181528Y209449D01*
X181613Y209407D01*
X181683Y209371D01*
X181739Y209343D01*
X181768Y209329D01*
X181782Y209322D01*
Y208168D01*
X181570Y208253D01*
X181352Y208351D01*
X181141Y208450D01*
X180944Y208548D01*
X180860Y208598D01*
X180776Y208640D01*
X180705Y208682D01*
X180649Y208717D01*
X180600Y208738D01*
X180557Y208759D01*
X180536Y208773D01*
X180529Y208780D01*
X180276Y208935D01*
X180163Y209013D01*
X180051Y209083D01*
X179952Y209160D01*
X179861Y209224D01*
X179776Y209294D01*
X179692Y209350D01*
X179629Y209407D01*
X179565Y209456D01*
X179509Y209505D01*
X179467Y209540D01*
X179432Y209569D01*
X179410Y209590D01*
X179396Y209604D01*
X179389Y209611D01*
Y201998D01*
X178193D01*
Y211771D01*
X178967D01*
X179031Y211651D01*
D02*
G37*
G36*
X200342Y201998D02*
X196831D01*
X196514Y202005D01*
X196360Y202012D01*
X196219Y202026D01*
X196078Y202033D01*
X195952Y202047D01*
X195832Y202061D01*
X195720Y202083D01*
X195621Y202097D01*
X195529Y202111D01*
X195452Y202125D01*
X195389Y202132D01*
X195340Y202146D01*
X195297Y202153D01*
X195276Y202160D01*
X195269D01*
X195023Y202230D01*
X194798Y202308D01*
X194699Y202350D01*
X194601Y202385D01*
X194516Y202427D01*
X194432Y202469D01*
X194362Y202505D01*
X194298Y202540D01*
X194242Y202568D01*
X194193Y202596D01*
X194158Y202617D01*
X194129Y202631D01*
X194115Y202645D01*
X194108D01*
X193932Y202779D01*
X193764Y202920D01*
X193616Y203067D01*
X193482Y203208D01*
X193377Y203335D01*
X193327Y203391D01*
X193292Y203440D01*
X193264Y203475D01*
X193243Y203511D01*
X193229Y203525D01*
X193222Y203532D01*
X193074Y203757D01*
X192947Y203989D01*
X192828Y204228D01*
X192736Y204454D01*
X192694Y204552D01*
X192659Y204650D01*
X192624Y204735D01*
X192603Y204805D01*
X192582Y204862D01*
X192568Y204911D01*
X192553Y204939D01*
Y204946D01*
X192469Y205277D01*
X192406Y205614D01*
X192356Y205945D01*
X192342Y206107D01*
X192328Y206255D01*
X192314Y206395D01*
X192307Y206522D01*
X192300Y206635D01*
Y206726D01*
X192293Y206810D01*
Y206867D01*
Y206902D01*
Y206916D01*
X192300Y207155D01*
X192307Y207387D01*
X192328Y207613D01*
X192356Y207824D01*
X192384Y208028D01*
X192413Y208218D01*
X192448Y208401D01*
X192483Y208562D01*
X192525Y208710D01*
X192560Y208844D01*
X192589Y208956D01*
X192617Y209055D01*
X192645Y209132D01*
X192666Y209182D01*
X192673Y209217D01*
X192680Y209231D01*
X192757Y209414D01*
X192842Y209597D01*
X192926Y209758D01*
X193018Y209920D01*
X193116Y210068D01*
X193215Y210202D01*
X193306Y210328D01*
X193398Y210448D01*
X193489Y210546D01*
X193566Y210638D01*
X193644Y210715D01*
X193707Y210779D01*
X193757Y210828D01*
X193799Y210870D01*
X193827Y210891D01*
X193834Y210898D01*
X193946Y210990D01*
X194066Y211074D01*
X194305Y211215D01*
X194545Y211342D01*
X194763Y211433D01*
X194868Y211475D01*
X194960Y211503D01*
X195044Y211532D01*
X195114Y211560D01*
X195178Y211574D01*
X195220Y211588D01*
X195248Y211595D01*
X195255D01*
X195375Y211623D01*
X195501Y211644D01*
X195635Y211658D01*
X195776Y211679D01*
X196064Y211700D01*
X196346Y211721D01*
X196479D01*
X196599Y211728D01*
X196712D01*
X196803Y211736D01*
X200342D01*
Y201998D01*
D02*
G37*
G36*
X190731Y210589D02*
X185299D01*
X185482Y210399D01*
X185665Y210195D01*
X185834Y210005D01*
X185989Y209822D01*
X186059Y209737D01*
X186123Y209667D01*
X186172Y209597D01*
X186221Y209540D01*
X186263Y209491D01*
X186292Y209456D01*
X186306Y209435D01*
X186313Y209428D01*
X191294Y203187D01*
Y201998D01*
X183597D01*
Y203145D01*
X189816D01*
X189233Y203827D01*
X183759Y210589D01*
Y211736D01*
X190731D01*
Y210589D01*
D02*
G37*
G36*
X394701Y82027D02*
X394933Y82006D01*
X395158Y81978D01*
X395376Y81943D01*
X395580Y81900D01*
X395777Y81844D01*
X395960Y81795D01*
X396129Y81739D01*
X396277Y81682D01*
X396418Y81633D01*
X396537Y81584D01*
X396636Y81535D01*
X396720Y81499D01*
X396776Y81471D01*
X396811Y81450D01*
X396825Y81443D01*
X397023Y81323D01*
X397206Y81197D01*
X397374Y81063D01*
X397536Y80922D01*
X397684Y80782D01*
X397818Y80641D01*
X397944Y80493D01*
X398050Y80360D01*
X398148Y80233D01*
X398240Y80106D01*
X398310Y80001D01*
X398373Y79909D01*
X398416Y79825D01*
X398451Y79769D01*
X398472Y79733D01*
X398479Y79719D01*
X398577Y79501D01*
X398669Y79283D01*
X398746Y79058D01*
X398810Y78833D01*
X398866Y78608D01*
X398915Y78383D01*
X398950Y78172D01*
X398985Y77975D01*
X399007Y77785D01*
X399028Y77609D01*
X399035Y77454D01*
X399049Y77320D01*
Y77215D01*
X399056Y77172D01*
Y77137D01*
Y77109D01*
Y77088D01*
Y77074D01*
Y77067D01*
X399049Y76807D01*
X399035Y76553D01*
X399007Y76307D01*
X398979Y76075D01*
X398936Y75843D01*
X398894Y75631D01*
X398845Y75427D01*
X398796Y75237D01*
X398753Y75069D01*
X398704Y74914D01*
X398662Y74780D01*
X398620Y74668D01*
X398591Y74576D01*
X398563Y74513D01*
X398549Y74471D01*
X398542Y74464D01*
Y74457D01*
X398444Y74239D01*
X398331Y74027D01*
X398212Y73837D01*
X398092Y73654D01*
X397965Y73493D01*
X397839Y73338D01*
X397719Y73204D01*
X397599Y73078D01*
X397487Y72965D01*
X397381Y72874D01*
X397290Y72789D01*
X397206Y72726D01*
X397135Y72677D01*
X397086Y72634D01*
X397058Y72613D01*
X397044Y72606D01*
X396854Y72494D01*
X396650Y72395D01*
X396439Y72311D01*
X396227Y72233D01*
X396016Y72177D01*
X395798Y72121D01*
X395594Y72078D01*
X395390Y72043D01*
X395207Y72022D01*
X395031Y72001D01*
X394877Y71987D01*
X394743Y71973D01*
X394637D01*
X394588Y71966D01*
X394483D01*
X394201Y71973D01*
X393934Y72001D01*
X393680Y72043D01*
X393434Y72092D01*
X393209Y72156D01*
X392998Y72226D01*
X392801Y72304D01*
X392625Y72381D01*
X392463Y72458D01*
X392323Y72536D01*
X392196Y72606D01*
X392098Y72670D01*
X392013Y72719D01*
X391957Y72761D01*
X391922Y72789D01*
X391908Y72796D01*
X391718Y72965D01*
X391542Y73141D01*
X391380Y73331D01*
X391232Y73528D01*
X391098Y73732D01*
X390979Y73929D01*
X390873Y74126D01*
X390782Y74323D01*
X390697Y74506D01*
X390627Y74675D01*
X390571Y74822D01*
X390522Y74956D01*
X390486Y75062D01*
X390472Y75111D01*
X390465Y75146D01*
X390458Y75174D01*
X390451Y75195D01*
X390444Y75209D01*
Y75216D01*
X391732Y75540D01*
X391788Y75315D01*
X391851Y75111D01*
X391922Y74914D01*
X392006Y74738D01*
X392083Y74569D01*
X392175Y74414D01*
X392259Y74281D01*
X392344Y74154D01*
X392421Y74049D01*
X392499Y73950D01*
X392569Y73873D01*
X392632Y73809D01*
X392682Y73753D01*
X392717Y73718D01*
X392745Y73697D01*
X392752Y73690D01*
X392900Y73584D01*
X393047Y73486D01*
X393202Y73401D01*
X393357Y73331D01*
X393512Y73275D01*
X393666Y73225D01*
X393814Y73183D01*
X393955Y73148D01*
X394082Y73120D01*
X394208Y73106D01*
X394314Y73092D01*
X394405Y73078D01*
X394483D01*
X394539Y73071D01*
X394588D01*
X394750Y73078D01*
X394912Y73092D01*
X395067Y73113D01*
X395221Y73141D01*
X395362Y73176D01*
X395503Y73218D01*
X395630Y73253D01*
X395749Y73303D01*
X395855Y73345D01*
X395953Y73380D01*
X396037Y73422D01*
X396108Y73457D01*
X396164Y73486D01*
X396206Y73507D01*
X396235Y73521D01*
X396242Y73528D01*
X396382Y73619D01*
X396509Y73718D01*
X396628Y73823D01*
X396741Y73936D01*
X396840Y74049D01*
X396931Y74168D01*
X397015Y74281D01*
X397093Y74386D01*
X397156Y74492D01*
X397212Y74590D01*
X397262Y74682D01*
X397297Y74759D01*
X397332Y74822D01*
X397353Y74865D01*
X397360Y74900D01*
X397367Y74907D01*
X397431Y75083D01*
X397487Y75266D01*
X397536Y75449D01*
X397571Y75639D01*
X397642Y75997D01*
X397663Y76173D01*
X397684Y76342D01*
X397698Y76490D01*
X397705Y76631D01*
X397712Y76757D01*
X397719Y76863D01*
X397726Y76954D01*
Y77018D01*
Y77060D01*
Y77074D01*
X397719Y77257D01*
X397712Y77433D01*
X397677Y77770D01*
X397656Y77932D01*
X397628Y78087D01*
X397599Y78235D01*
X397571Y78369D01*
X397543Y78495D01*
X397522Y78608D01*
X397494Y78706D01*
X397473Y78791D01*
X397452Y78854D01*
X397438Y78903D01*
X397424Y78938D01*
Y78945D01*
X397360Y79114D01*
X397290Y79269D01*
X397212Y79417D01*
X397128Y79550D01*
X397044Y79684D01*
X396959Y79804D01*
X396868Y79909D01*
X396783Y80008D01*
X396699Y80092D01*
X396622Y80170D01*
X396551Y80233D01*
X396488Y80289D01*
X396439Y80331D01*
X396403Y80367D01*
X396375Y80381D01*
X396368Y80388D01*
X396221Y80486D01*
X396066Y80564D01*
X395911Y80641D01*
X395756Y80704D01*
X395594Y80754D01*
X395439Y80796D01*
X395292Y80831D01*
X395144Y80859D01*
X395010Y80887D01*
X394884Y80901D01*
X394771Y80915D01*
X394673Y80922D01*
X394595Y80929D01*
X394490D01*
X394307Y80922D01*
X394138Y80908D01*
X393976Y80887D01*
X393821Y80852D01*
X393680Y80817D01*
X393547Y80775D01*
X393427Y80732D01*
X393315Y80690D01*
X393216Y80641D01*
X393125Y80599D01*
X393047Y80557D01*
X392984Y80521D01*
X392935Y80486D01*
X392900Y80465D01*
X392878Y80451D01*
X392871Y80444D01*
X392752Y80345D01*
X392639Y80240D01*
X392541Y80120D01*
X392442Y80001D01*
X392351Y79867D01*
X392273Y79741D01*
X392196Y79614D01*
X392133Y79487D01*
X392076Y79368D01*
X392020Y79255D01*
X391978Y79156D01*
X391943Y79072D01*
X391915Y78995D01*
X391894Y78945D01*
X391886Y78910D01*
X391879Y78896D01*
X390613Y79192D01*
X390690Y79438D01*
X390789Y79670D01*
X390887Y79888D01*
X391000Y80092D01*
X391113Y80275D01*
X391225Y80451D01*
X391345Y80606D01*
X391457Y80747D01*
X391570Y80873D01*
X391668Y80979D01*
X391760Y81077D01*
X391844Y81148D01*
X391908Y81211D01*
X391964Y81253D01*
X391992Y81281D01*
X392006Y81288D01*
X392196Y81422D01*
X392393Y81535D01*
X392604Y81633D01*
X392808Y81718D01*
X393012Y81795D01*
X393216Y81851D01*
X393413Y81900D01*
X393603Y81943D01*
X393786Y81971D01*
X393948Y81992D01*
X394089Y82013D01*
X394215Y82020D01*
X394321Y82027D01*
X394363Y82034D01*
X394462D01*
X394701Y82027D01*
D02*
G37*
G36*
X386405Y81893D02*
X386624Y81872D01*
X386835Y81837D01*
X387025Y81788D01*
X387208Y81732D01*
X387377Y81668D01*
X387531Y81605D01*
X387665Y81542D01*
X387792Y81471D01*
X387897Y81408D01*
X387989Y81345D01*
X388066Y81288D01*
X388129Y81246D01*
X388172Y81204D01*
X388200Y81183D01*
X388207Y81176D01*
X388340Y81035D01*
X388460Y80894D01*
X388559Y80739D01*
X388643Y80592D01*
X388720Y80437D01*
X388784Y80289D01*
X388833Y80148D01*
X388868Y80008D01*
X388903Y79881D01*
X388924Y79762D01*
X388946Y79656D01*
X388952Y79565D01*
X388960Y79494D01*
X388967Y79438D01*
Y79403D01*
Y79389D01*
X388960Y79262D01*
X388952Y79135D01*
X388910Y78903D01*
X388882Y78798D01*
X388854Y78699D01*
X388819Y78608D01*
X388784Y78523D01*
X388755Y78446D01*
X388720Y78376D01*
X388692Y78319D01*
X388664Y78270D01*
X388643Y78228D01*
X388622Y78200D01*
X388615Y78186D01*
X388608Y78179D01*
X388537Y78087D01*
X388460Y78003D01*
X388284Y77848D01*
X388101Y77714D01*
X387918Y77602D01*
X387834Y77559D01*
X387756Y77517D01*
X387686Y77482D01*
X387623Y77454D01*
X387574Y77433D01*
X387538Y77419D01*
X387510Y77405D01*
X387503D01*
X387665Y77355D01*
X387820Y77299D01*
X387960Y77236D01*
X388094Y77172D01*
X388221Y77102D01*
X388333Y77025D01*
X388432Y76954D01*
X388530Y76884D01*
X388608Y76814D01*
X388678Y76750D01*
X388741Y76687D01*
X388791Y76638D01*
X388833Y76596D01*
X388861Y76560D01*
X388875Y76539D01*
X388882Y76532D01*
X388967Y76406D01*
X389037Y76279D01*
X389100Y76145D01*
X389156Y76012D01*
X389206Y75878D01*
X389241Y75751D01*
X389276Y75617D01*
X389297Y75498D01*
X389318Y75385D01*
X389332Y75280D01*
X389347Y75181D01*
X389353Y75104D01*
X389361Y75033D01*
Y74984D01*
Y74956D01*
Y74942D01*
X389353Y74710D01*
X389325Y74485D01*
X389276Y74274D01*
X389220Y74070D01*
X389156Y73887D01*
X389079Y73711D01*
X389002Y73549D01*
X388917Y73401D01*
X388840Y73267D01*
X388763Y73155D01*
X388685Y73056D01*
X388615Y72972D01*
X388565Y72902D01*
X388516Y72859D01*
X388488Y72824D01*
X388481Y72817D01*
X388305Y72670D01*
X388129Y72536D01*
X387939Y72423D01*
X387742Y72325D01*
X387545Y72240D01*
X387355Y72177D01*
X387165Y72121D01*
X386982Y72071D01*
X386814Y72036D01*
X386652Y72008D01*
X386511Y71994D01*
X386391Y71980D01*
X386293Y71973D01*
X386216Y71966D01*
X386152D01*
X385892Y71973D01*
X385639Y72001D01*
X385406Y72043D01*
X385181Y72100D01*
X384977Y72163D01*
X384787Y72233D01*
X384611Y72311D01*
X384450Y72388D01*
X384309Y72465D01*
X384189Y72543D01*
X384077Y72613D01*
X383992Y72677D01*
X383922Y72733D01*
X383873Y72775D01*
X383838Y72803D01*
X383830Y72810D01*
X383676Y72972D01*
X383535Y73148D01*
X383422Y73317D01*
X383317Y73500D01*
X383232Y73676D01*
X383162Y73844D01*
X383099Y74013D01*
X383056Y74175D01*
X383021Y74330D01*
X382993Y74471D01*
X382972Y74590D01*
X382958Y74696D01*
X382951Y74787D01*
X382944Y74851D01*
Y74893D01*
Y74907D01*
X382951Y75076D01*
X382965Y75237D01*
X382986Y75385D01*
X383014Y75533D01*
X383056Y75667D01*
X383092Y75800D01*
X383134Y75913D01*
X383176Y76026D01*
X383225Y76124D01*
X383268Y76209D01*
X383303Y76286D01*
X383338Y76349D01*
X383373Y76399D01*
X383394Y76434D01*
X383408Y76455D01*
X383415Y76462D01*
X383507Y76581D01*
X383612Y76687D01*
X383718Y76792D01*
X383830Y76884D01*
X383943Y76968D01*
X384056Y77046D01*
X384168Y77116D01*
X384281Y77179D01*
X384379Y77236D01*
X384478Y77278D01*
X384562Y77320D01*
X384640Y77348D01*
X384703Y77376D01*
X384745Y77390D01*
X384780Y77405D01*
X384787D01*
X384654Y77461D01*
X384534Y77517D01*
X384421Y77580D01*
X384309Y77644D01*
X384217Y77707D01*
X384126Y77770D01*
X384049Y77834D01*
X383971Y77897D01*
X383908Y77953D01*
X383859Y78010D01*
X383809Y78052D01*
X383774Y78094D01*
X383739Y78129D01*
X383718Y78157D01*
X383711Y78172D01*
X383704Y78179D01*
X383641Y78277D01*
X383584Y78376D01*
X383535Y78474D01*
X383493Y78573D01*
X383429Y78769D01*
X383387Y78952D01*
X383373Y79037D01*
X383366Y79114D01*
X383359Y79185D01*
X383352Y79241D01*
X383345Y79290D01*
Y79325D01*
Y79346D01*
Y79353D01*
X383352Y79550D01*
X383380Y79733D01*
X383415Y79916D01*
X383465Y80085D01*
X383528Y80240D01*
X383591Y80388D01*
X383662Y80528D01*
X383732Y80655D01*
X383809Y80768D01*
X383880Y80866D01*
X383943Y80951D01*
X384006Y81021D01*
X384056Y81077D01*
X384091Y81119D01*
X384119Y81148D01*
X384126Y81155D01*
X384274Y81288D01*
X384436Y81401D01*
X384604Y81499D01*
X384773Y81584D01*
X384942Y81661D01*
X385111Y81718D01*
X385280Y81767D01*
X385442Y81809D01*
X385589Y81837D01*
X385730Y81858D01*
X385857Y81879D01*
X385962Y81886D01*
X386054Y81893D01*
X386117Y81900D01*
X386173D01*
X386405Y81893D01*
D02*
G37*
G36*
X393690Y142027D02*
X393923Y142006D01*
X394148Y141978D01*
X394366Y141943D01*
X394570Y141901D01*
X394767Y141844D01*
X394950Y141795D01*
X395118Y141739D01*
X395266Y141682D01*
X395407Y141633D01*
X395527Y141584D01*
X395625Y141535D01*
X395709Y141499D01*
X395766Y141471D01*
X395801Y141450D01*
X395815Y141443D01*
X396012Y141323D01*
X396195Y141197D01*
X396364Y141063D01*
X396526Y140922D01*
X396674Y140782D01*
X396807Y140641D01*
X396934Y140493D01*
X397039Y140360D01*
X397138Y140233D01*
X397229Y140106D01*
X397300Y140001D01*
X397363Y139909D01*
X397405Y139825D01*
X397440Y139769D01*
X397462Y139733D01*
X397468Y139719D01*
X397567Y139501D01*
X397659Y139283D01*
X397736Y139058D01*
X397799Y138833D01*
X397855Y138608D01*
X397905Y138383D01*
X397940Y138172D01*
X397975Y137975D01*
X397996Y137785D01*
X398017Y137609D01*
X398024Y137454D01*
X398038Y137320D01*
Y137215D01*
X398045Y137172D01*
Y137137D01*
Y137109D01*
Y137088D01*
Y137074D01*
Y137067D01*
X398038Y136806D01*
X398024Y136553D01*
X397996Y136307D01*
X397968Y136075D01*
X397926Y135843D01*
X397884Y135632D01*
X397834Y135428D01*
X397785Y135238D01*
X397743Y135069D01*
X397694Y134914D01*
X397651Y134780D01*
X397609Y134668D01*
X397581Y134576D01*
X397553Y134513D01*
X397539Y134471D01*
X397532Y134464D01*
Y134457D01*
X397433Y134239D01*
X397321Y134027D01*
X397201Y133837D01*
X397081Y133654D01*
X396955Y133493D01*
X396828Y133338D01*
X396709Y133204D01*
X396589Y133078D01*
X396476Y132965D01*
X396371Y132873D01*
X396279Y132789D01*
X396195Y132726D01*
X396125Y132676D01*
X396075Y132634D01*
X396047Y132613D01*
X396033Y132606D01*
X395843Y132494D01*
X395639Y132395D01*
X395428Y132311D01*
X395217Y132233D01*
X395006Y132177D01*
X394788Y132121D01*
X394584Y132079D01*
X394380Y132043D01*
X394197Y132022D01*
X394021Y132001D01*
X393866Y131987D01*
X393732Y131973D01*
X393627D01*
X393578Y131966D01*
X393472D01*
X393191Y131973D01*
X392923Y132001D01*
X392670Y132043D01*
X392424Y132093D01*
X392199Y132156D01*
X391988Y132226D01*
X391791Y132304D01*
X391615Y132381D01*
X391453Y132458D01*
X391312Y132536D01*
X391185Y132606D01*
X391087Y132669D01*
X391003Y132719D01*
X390946Y132761D01*
X390911Y132789D01*
X390897Y132796D01*
X390707Y132965D01*
X390531Y133141D01*
X390369Y133331D01*
X390222Y133528D01*
X390088Y133732D01*
X389968Y133929D01*
X389863Y134126D01*
X389771Y134323D01*
X389687Y134506D01*
X389617Y134675D01*
X389560Y134822D01*
X389511Y134956D01*
X389476Y135062D01*
X389462Y135111D01*
X389455Y135146D01*
X389448Y135174D01*
X389441Y135195D01*
X389434Y135209D01*
Y135216D01*
X390721Y135540D01*
X390778Y135315D01*
X390841Y135111D01*
X390911Y134914D01*
X390996Y134738D01*
X391073Y134569D01*
X391164Y134414D01*
X391249Y134281D01*
X391333Y134154D01*
X391411Y134049D01*
X391488Y133950D01*
X391558Y133873D01*
X391622Y133809D01*
X391671Y133753D01*
X391706Y133718D01*
X391734Y133697D01*
X391741Y133690D01*
X391889Y133584D01*
X392037Y133486D01*
X392192Y133401D01*
X392346Y133331D01*
X392501Y133275D01*
X392656Y133225D01*
X392804Y133183D01*
X392944Y133148D01*
X393071Y133120D01*
X393198Y133106D01*
X393303Y133092D01*
X393395Y133078D01*
X393472D01*
X393528Y133070D01*
X393578D01*
X393740Y133078D01*
X393901Y133092D01*
X394056Y133113D01*
X394211Y133141D01*
X394352Y133176D01*
X394492Y133218D01*
X394619Y133253D01*
X394739Y133303D01*
X394844Y133345D01*
X394943Y133380D01*
X395027Y133422D01*
X395097Y133457D01*
X395154Y133486D01*
X395196Y133507D01*
X395224Y133521D01*
X395231Y133528D01*
X395372Y133619D01*
X395499Y133718D01*
X395618Y133823D01*
X395731Y133936D01*
X395829Y134049D01*
X395921Y134168D01*
X396005Y134281D01*
X396082Y134386D01*
X396146Y134492D01*
X396202Y134590D01*
X396251Y134682D01*
X396287Y134759D01*
X396322Y134822D01*
X396343Y134865D01*
X396350Y134900D01*
X396357Y134907D01*
X396420Y135083D01*
X396476Y135266D01*
X396526Y135449D01*
X396561Y135639D01*
X396631Y135997D01*
X396652Y136173D01*
X396674Y136342D01*
X396688Y136490D01*
X396695Y136631D01*
X396702Y136757D01*
X396709Y136863D01*
X396716Y136954D01*
Y137018D01*
Y137060D01*
Y137074D01*
X396709Y137257D01*
X396702Y137433D01*
X396666Y137770D01*
X396645Y137932D01*
X396617Y138087D01*
X396589Y138235D01*
X396561Y138369D01*
X396533Y138495D01*
X396512Y138608D01*
X396483Y138706D01*
X396462Y138791D01*
X396441Y138854D01*
X396427Y138903D01*
X396413Y138938D01*
Y138945D01*
X396350Y139114D01*
X396279Y139269D01*
X396202Y139417D01*
X396118Y139551D01*
X396033Y139684D01*
X395949Y139804D01*
X395857Y139909D01*
X395773Y140008D01*
X395688Y140092D01*
X395611Y140170D01*
X395541Y140233D01*
X395477Y140289D01*
X395428Y140331D01*
X395393Y140367D01*
X395365Y140381D01*
X395358Y140388D01*
X395210Y140486D01*
X395055Y140564D01*
X394900Y140641D01*
X394746Y140704D01*
X394584Y140754D01*
X394429Y140796D01*
X394281Y140831D01*
X394133Y140859D01*
X394000Y140887D01*
X393873Y140901D01*
X393761Y140915D01*
X393662Y140922D01*
X393585Y140929D01*
X393479D01*
X393296Y140922D01*
X393127Y140908D01*
X392966Y140887D01*
X392811Y140852D01*
X392670Y140817D01*
X392536Y140775D01*
X392417Y140732D01*
X392304Y140690D01*
X392206Y140641D01*
X392114Y140599D01*
X392037Y140557D01*
X391973Y140521D01*
X391924Y140486D01*
X391889Y140465D01*
X391868Y140451D01*
X391861Y140444D01*
X391741Y140345D01*
X391629Y140240D01*
X391530Y140120D01*
X391432Y140001D01*
X391340Y139867D01*
X391263Y139740D01*
X391185Y139614D01*
X391122Y139487D01*
X391066Y139368D01*
X391010Y139255D01*
X390967Y139157D01*
X390932Y139072D01*
X390904Y138995D01*
X390883Y138945D01*
X390876Y138910D01*
X390869Y138896D01*
X389603Y139192D01*
X389680Y139438D01*
X389778Y139670D01*
X389877Y139888D01*
X389989Y140092D01*
X390102Y140275D01*
X390215Y140451D01*
X390334Y140606D01*
X390447Y140747D01*
X390559Y140873D01*
X390658Y140979D01*
X390749Y141077D01*
X390834Y141148D01*
X390897Y141211D01*
X390953Y141253D01*
X390981Y141281D01*
X390996Y141288D01*
X391185Y141422D01*
X391382Y141535D01*
X391594Y141633D01*
X391798Y141718D01*
X392002Y141795D01*
X392206Y141851D01*
X392403Y141901D01*
X392593Y141943D01*
X392776Y141971D01*
X392937Y141992D01*
X393078Y142013D01*
X393205Y142020D01*
X393310Y142027D01*
X393353Y142034D01*
X393451D01*
X393690Y142027D01*
D02*
G37*
G36*
X388259Y140592D02*
X383488D01*
X383657Y140395D01*
X383826Y140184D01*
X384143Y139754D01*
X384290Y139536D01*
X384438Y139325D01*
X384572Y139121D01*
X384692Y138924D01*
X384804Y138741D01*
X384910Y138573D01*
X384994Y138418D01*
X385071Y138291D01*
X385128Y138186D01*
X385156Y138143D01*
X385177Y138108D01*
X385191Y138073D01*
X385205Y138052D01*
X385212Y138045D01*
Y138038D01*
X385360Y137756D01*
X385494Y137468D01*
X385627Y137186D01*
X385747Y136912D01*
X385852Y136645D01*
X385958Y136384D01*
X386049Y136138D01*
X386134Y135906D01*
X386204Y135688D01*
X386268Y135498D01*
X386324Y135322D01*
X386366Y135181D01*
X386387Y135118D01*
X386401Y135062D01*
X386415Y135012D01*
X386429Y134970D01*
X386436Y134942D01*
X386443Y134921D01*
X386450Y134907D01*
Y134900D01*
X386528Y134604D01*
X386591Y134316D01*
X386647Y134042D01*
X386704Y133781D01*
X386746Y133535D01*
X386781Y133310D01*
X386809Y133099D01*
X386830Y132902D01*
X386852Y132733D01*
X386866Y132578D01*
X386880Y132444D01*
X386887Y132332D01*
Y132247D01*
X386894Y132177D01*
Y132142D01*
Y132128D01*
X385662D01*
X385641Y132395D01*
X385613Y132662D01*
X385585Y132916D01*
X385550Y133155D01*
X385515Y133387D01*
X385472Y133612D01*
X385437Y133816D01*
X385395Y134006D01*
X385360Y134182D01*
X385325Y134337D01*
X385289Y134471D01*
X385261Y134590D01*
X385240Y134682D01*
X385219Y134745D01*
X385212Y134787D01*
X385205Y134801D01*
X385107Y135125D01*
X385001Y135449D01*
X384896Y135758D01*
X384776Y136061D01*
X384663Y136356D01*
X384544Y136631D01*
X384431Y136898D01*
X384319Y137144D01*
X384213Y137369D01*
X384114Y137566D01*
X384023Y137742D01*
X383988Y137827D01*
X383946Y137897D01*
X383918Y137960D01*
X383882Y138017D01*
X383861Y138066D01*
X383840Y138108D01*
X383819Y138136D01*
X383805Y138157D01*
X383798Y138172D01*
Y138179D01*
X383629Y138481D01*
X383453Y138763D01*
X383291Y139030D01*
X383122Y139283D01*
X382968Y139515D01*
X382813Y139733D01*
X382665Y139930D01*
X382532Y140106D01*
X382412Y140268D01*
X382299Y140409D01*
X382201Y140528D01*
X382116Y140627D01*
X382046Y140704D01*
X381997Y140768D01*
X381962Y140796D01*
X381955Y140810D01*
Y141739D01*
X388259D01*
Y140592D01*
D02*
G37*
G36*
X415177Y141886D02*
X415444Y141851D01*
X415691Y141795D01*
X415930Y141725D01*
X416148Y141640D01*
X416345Y141549D01*
X416528Y141443D01*
X416697Y141345D01*
X416844Y141239D01*
X416978Y141134D01*
X417084Y141042D01*
X417175Y140958D01*
X417253Y140887D01*
X417302Y140831D01*
X417330Y140796D01*
X417344Y140782D01*
X417435Y140655D01*
X417527Y140521D01*
X417611Y140388D01*
X417689Y140240D01*
X417829Y139930D01*
X417949Y139600D01*
X418048Y139262D01*
X418132Y138924D01*
X418202Y138580D01*
X418252Y138249D01*
X418301Y137932D01*
X418329Y137644D01*
X418343Y137503D01*
X418350Y137376D01*
X418364Y137250D01*
X418371Y137144D01*
Y137039D01*
X418378Y136947D01*
Y136870D01*
X418385Y136806D01*
Y136750D01*
Y136715D01*
Y136687D01*
Y136680D01*
Y136448D01*
X418371Y136223D01*
X418364Y136011D01*
X418343Y135800D01*
X418322Y135603D01*
X418301Y135413D01*
X418273Y135231D01*
X418237Y135055D01*
X418202Y134886D01*
X418167Y134724D01*
X418125Y134576D01*
X418090Y134428D01*
X418048Y134295D01*
X417998Y134161D01*
X417956Y134042D01*
X417914Y133929D01*
X417872Y133823D01*
X417822Y133718D01*
X417780Y133626D01*
X417738Y133542D01*
X417703Y133464D01*
X417661Y133394D01*
X417590Y133275D01*
X417527Y133183D01*
X417485Y133113D01*
X417449Y133078D01*
X417443Y133063D01*
X417259Y132873D01*
X417070Y132705D01*
X416866Y132557D01*
X416661Y132430D01*
X416457Y132325D01*
X416260Y132233D01*
X416063Y132163D01*
X415873Y132107D01*
X415691Y132057D01*
X415529Y132022D01*
X415381Y132001D01*
X415254Y131980D01*
X415149Y131973D01*
X415107D01*
X415071Y131966D01*
X415008D01*
X414846Y131973D01*
X414684Y131987D01*
X414537Y132001D01*
X414389Y132029D01*
X414255Y132064D01*
X414122Y132100D01*
X414002Y132135D01*
X413896Y132177D01*
X413791Y132212D01*
X413707Y132247D01*
X413629Y132282D01*
X413559Y132318D01*
X413509Y132346D01*
X413467Y132360D01*
X413446Y132374D01*
X413439Y132381D01*
X413312Y132465D01*
X413193Y132550D01*
X413080Y132648D01*
X412982Y132747D01*
X412883Y132845D01*
X412792Y132944D01*
X412714Y133042D01*
X412637Y133141D01*
X412574Y133232D01*
X412517Y133310D01*
X412468Y133387D01*
X412426Y133457D01*
X412398Y133507D01*
X412377Y133549D01*
X412363Y133577D01*
X412356Y133584D01*
X412285Y133732D01*
X412222Y133887D01*
X412173Y134034D01*
X412123Y134182D01*
X412081Y134330D01*
X412053Y134471D01*
X412025Y134604D01*
X412004Y134731D01*
X411990Y134851D01*
X411976Y134956D01*
X411969Y135048D01*
X411962Y135132D01*
X411954Y135195D01*
Y135245D01*
Y135280D01*
Y135287D01*
X411962Y135540D01*
X411990Y135786D01*
X412032Y136011D01*
X412088Y136230D01*
X412152Y136434D01*
X412222Y136617D01*
X412299Y136792D01*
X412377Y136947D01*
X412454Y137088D01*
X412532Y137208D01*
X412602Y137313D01*
X412665Y137397D01*
X412721Y137468D01*
X412764Y137517D01*
X412792Y137552D01*
X412799Y137559D01*
X412961Y137714D01*
X413130Y137855D01*
X413298Y137967D01*
X413467Y138073D01*
X413643Y138157D01*
X413812Y138228D01*
X413974Y138291D01*
X414129Y138333D01*
X414276Y138369D01*
X414410Y138397D01*
X414530Y138418D01*
X414635Y138432D01*
X414713Y138439D01*
X414776Y138446D01*
X414959D01*
X415085Y138432D01*
X415332Y138397D01*
X415550Y138340D01*
X415655Y138312D01*
X415747Y138284D01*
X415838Y138256D01*
X415916Y138228D01*
X415979Y138200D01*
X416042Y138172D01*
X416085Y138150D01*
X416120Y138136D01*
X416141Y138129D01*
X416148Y138122D01*
X416260Y138059D01*
X416373Y137989D01*
X416570Y137834D01*
X416753Y137672D01*
X416830Y137594D01*
X416901Y137517D01*
X416971Y137440D01*
X417027Y137369D01*
X417077Y137306D01*
X417119Y137250D01*
X417154Y137208D01*
X417175Y137172D01*
X417189Y137151D01*
X417196Y137144D01*
X417189Y137412D01*
X417182Y137665D01*
X417161Y137897D01*
X417140Y138115D01*
X417119Y138312D01*
X417091Y138502D01*
X417056Y138671D01*
X417027Y138819D01*
X416999Y138953D01*
X416971Y139072D01*
X416943Y139171D01*
X416915Y139248D01*
X416894Y139311D01*
X416880Y139361D01*
X416866Y139389D01*
Y139396D01*
X416802Y139536D01*
X416732Y139670D01*
X416661Y139797D01*
X416584Y139916D01*
X416514Y140022D01*
X416436Y140120D01*
X416366Y140212D01*
X416296Y140289D01*
X416225Y140360D01*
X416169Y140423D01*
X416113Y140472D01*
X416063Y140514D01*
X416028Y140550D01*
X415993Y140571D01*
X415979Y140585D01*
X415972Y140592D01*
X415888Y140648D01*
X415803Y140697D01*
X415634Y140782D01*
X415465Y140838D01*
X415311Y140873D01*
X415233Y140887D01*
X415170Y140901D01*
X415114Y140908D01*
X415064D01*
X415022Y140915D01*
X414966D01*
X414839Y140908D01*
X414713Y140894D01*
X414593Y140866D01*
X414480Y140838D01*
X414375Y140796D01*
X414283Y140754D01*
X414192Y140704D01*
X414108Y140662D01*
X414030Y140613D01*
X413967Y140564D01*
X413910Y140521D01*
X413861Y140479D01*
X413826Y140451D01*
X413798Y140423D01*
X413784Y140409D01*
X413777Y140402D01*
X413721Y140338D01*
X413671Y140268D01*
X413580Y140106D01*
X413502Y139937D01*
X413439Y139776D01*
X413383Y139621D01*
X413369Y139558D01*
X413348Y139494D01*
X413334Y139452D01*
X413326Y139410D01*
X413320Y139389D01*
Y139382D01*
X412130Y139473D01*
X412166Y139677D01*
X412208Y139874D01*
X412264Y140057D01*
X412335Y140226D01*
X412398Y140388D01*
X412475Y140535D01*
X412553Y140669D01*
X412630Y140789D01*
X412707Y140894D01*
X412778Y140986D01*
X412841Y141070D01*
X412897Y141134D01*
X412947Y141183D01*
X412982Y141225D01*
X413010Y141246D01*
X413017Y141253D01*
X413158Y141366D01*
X413305Y141464D01*
X413460Y141556D01*
X413622Y141626D01*
X413777Y141689D01*
X413932Y141746D01*
X414086Y141788D01*
X414227Y141823D01*
X414368Y141844D01*
X414495Y141865D01*
X414607Y141879D01*
X414706Y141893D01*
X414783D01*
X414846Y141901D01*
X414896D01*
X415177Y141886D01*
D02*
G37*
G36*
X423690Y142027D02*
X423922Y142006D01*
X424148Y141978D01*
X424366Y141943D01*
X424570Y141901D01*
X424767Y141844D01*
X424950Y141795D01*
X425118Y141739D01*
X425266Y141682D01*
X425407Y141633D01*
X425527Y141584D01*
X425625Y141535D01*
X425709Y141499D01*
X425766Y141471D01*
X425801Y141450D01*
X425815Y141443D01*
X426012Y141323D01*
X426195Y141197D01*
X426364Y141063D01*
X426526Y140922D01*
X426673Y140782D01*
X426807Y140641D01*
X426934Y140493D01*
X427039Y140360D01*
X427138Y140233D01*
X427229Y140106D01*
X427300Y140001D01*
X427363Y139909D01*
X427405Y139825D01*
X427440Y139769D01*
X427462Y139733D01*
X427468Y139719D01*
X427567Y139501D01*
X427659Y139283D01*
X427736Y139058D01*
X427799Y138833D01*
X427855Y138608D01*
X427905Y138383D01*
X427940Y138172D01*
X427975Y137975D01*
X427996Y137785D01*
X428017Y137609D01*
X428024Y137454D01*
X428038Y137320D01*
Y137215D01*
X428045Y137172D01*
Y137137D01*
Y137109D01*
Y137088D01*
Y137074D01*
Y137067D01*
X428038Y136806D01*
X428024Y136553D01*
X427996Y136307D01*
X427968Y136075D01*
X427926Y135843D01*
X427884Y135632D01*
X427834Y135428D01*
X427785Y135238D01*
X427743Y135069D01*
X427694Y134914D01*
X427651Y134780D01*
X427609Y134668D01*
X427581Y134576D01*
X427553Y134513D01*
X427539Y134471D01*
X427532Y134464D01*
Y134457D01*
X427433Y134239D01*
X427321Y134027D01*
X427201Y133837D01*
X427081Y133654D01*
X426955Y133493D01*
X426828Y133338D01*
X426709Y133204D01*
X426589Y133078D01*
X426476Y132965D01*
X426371Y132873D01*
X426279Y132789D01*
X426195Y132726D01*
X426125Y132676D01*
X426075Y132634D01*
X426047Y132613D01*
X426033Y132606D01*
X425843Y132494D01*
X425639Y132395D01*
X425428Y132311D01*
X425217Y132233D01*
X425006Y132177D01*
X424788Y132121D01*
X424584Y132079D01*
X424380Y132043D01*
X424197Y132022D01*
X424021Y132001D01*
X423866Y131987D01*
X423732Y131973D01*
X423627D01*
X423578Y131966D01*
X423472D01*
X423191Y131973D01*
X422923Y132001D01*
X422670Y132043D01*
X422424Y132093D01*
X422199Y132156D01*
X421988Y132226D01*
X421791Y132304D01*
X421615Y132381D01*
X421453Y132458D01*
X421312Y132536D01*
X421185Y132606D01*
X421087Y132669D01*
X421003Y132719D01*
X420946Y132761D01*
X420911Y132789D01*
X420897Y132796D01*
X420707Y132965D01*
X420531Y133141D01*
X420369Y133331D01*
X420222Y133528D01*
X420088Y133732D01*
X419968Y133929D01*
X419863Y134126D01*
X419771Y134323D01*
X419687Y134506D01*
X419617Y134675D01*
X419560Y134822D01*
X419511Y134956D01*
X419476Y135062D01*
X419462Y135111D01*
X419455Y135146D01*
X419448Y135174D01*
X419441Y135195D01*
X419434Y135209D01*
Y135216D01*
X420721Y135540D01*
X420777Y135315D01*
X420841Y135111D01*
X420911Y134914D01*
X420996Y134738D01*
X421073Y134569D01*
X421164Y134414D01*
X421249Y134281D01*
X421333Y134154D01*
X421411Y134049D01*
X421488Y133950D01*
X421558Y133873D01*
X421622Y133809D01*
X421671Y133753D01*
X421706Y133718D01*
X421734Y133697D01*
X421741Y133690D01*
X421889Y133584D01*
X422037Y133486D01*
X422192Y133401D01*
X422346Y133331D01*
X422501Y133275D01*
X422656Y133225D01*
X422804Y133183D01*
X422944Y133148D01*
X423071Y133120D01*
X423198Y133106D01*
X423303Y133092D01*
X423395Y133078D01*
X423472D01*
X423528Y133070D01*
X423578D01*
X423740Y133078D01*
X423901Y133092D01*
X424056Y133113D01*
X424211Y133141D01*
X424352Y133176D01*
X424492Y133218D01*
X424619Y133253D01*
X424739Y133303D01*
X424844Y133345D01*
X424943Y133380D01*
X425027Y133422D01*
X425097Y133457D01*
X425154Y133486D01*
X425196Y133507D01*
X425224Y133521D01*
X425231Y133528D01*
X425372Y133619D01*
X425499Y133718D01*
X425618Y133823D01*
X425731Y133936D01*
X425829Y134049D01*
X425921Y134168D01*
X426005Y134281D01*
X426082Y134386D01*
X426146Y134492D01*
X426202Y134590D01*
X426251Y134682D01*
X426287Y134759D01*
X426322Y134822D01*
X426343Y134865D01*
X426350Y134900D01*
X426357Y134907D01*
X426420Y135083D01*
X426476Y135266D01*
X426526Y135449D01*
X426561Y135639D01*
X426631Y135997D01*
X426652Y136173D01*
X426673Y136342D01*
X426688Y136490D01*
X426694Y136631D01*
X426702Y136757D01*
X426709Y136863D01*
X426716Y136954D01*
Y137018D01*
Y137060D01*
Y137074D01*
X426709Y137257D01*
X426702Y137433D01*
X426666Y137770D01*
X426645Y137932D01*
X426617Y138087D01*
X426589Y138235D01*
X426561Y138369D01*
X426533Y138495D01*
X426512Y138608D01*
X426483Y138706D01*
X426462Y138791D01*
X426441Y138854D01*
X426427Y138903D01*
X426413Y138938D01*
Y138945D01*
X426350Y139114D01*
X426279Y139269D01*
X426202Y139417D01*
X426118Y139551D01*
X426033Y139684D01*
X425949Y139804D01*
X425857Y139909D01*
X425773Y140008D01*
X425688Y140092D01*
X425611Y140170D01*
X425541Y140233D01*
X425477Y140289D01*
X425428Y140331D01*
X425393Y140367D01*
X425365Y140381D01*
X425358Y140388D01*
X425210Y140486D01*
X425055Y140564D01*
X424900Y140641D01*
X424746Y140704D01*
X424584Y140754D01*
X424429Y140796D01*
X424281Y140831D01*
X424133Y140859D01*
X424000Y140887D01*
X423873Y140901D01*
X423761Y140915D01*
X423662Y140922D01*
X423585Y140929D01*
X423479D01*
X423296Y140922D01*
X423127Y140908D01*
X422966Y140887D01*
X422811Y140852D01*
X422670Y140817D01*
X422536Y140775D01*
X422417Y140732D01*
X422304Y140690D01*
X422206Y140641D01*
X422114Y140599D01*
X422037Y140557D01*
X421973Y140521D01*
X421924Y140486D01*
X421889Y140465D01*
X421868Y140451D01*
X421861Y140444D01*
X421741Y140345D01*
X421629Y140240D01*
X421530Y140120D01*
X421432Y140001D01*
X421340Y139867D01*
X421263Y139740D01*
X421185Y139614D01*
X421122Y139487D01*
X421066Y139368D01*
X421010Y139255D01*
X420967Y139157D01*
X420932Y139072D01*
X420904Y138995D01*
X420883Y138945D01*
X420876Y138910D01*
X420869Y138896D01*
X419603Y139192D01*
X419680Y139438D01*
X419778Y139670D01*
X419877Y139888D01*
X419989Y140092D01*
X420102Y140275D01*
X420215Y140451D01*
X420334Y140606D01*
X420447Y140747D01*
X420559Y140873D01*
X420658Y140979D01*
X420749Y141077D01*
X420834Y141148D01*
X420897Y141211D01*
X420953Y141253D01*
X420981Y141281D01*
X420996Y141288D01*
X421185Y141422D01*
X421382Y141535D01*
X421594Y141633D01*
X421798Y141718D01*
X422002Y141795D01*
X422206Y141851D01*
X422403Y141901D01*
X422593Y141943D01*
X422776Y141971D01*
X422937Y141992D01*
X423078Y142013D01*
X423205Y142020D01*
X423310Y142027D01*
X423353Y142034D01*
X423451D01*
X423690Y142027D01*
D02*
G37*
G36*
X158554Y116712D02*
X164865D01*
Y115734D01*
X158554Y111295D01*
X157457D01*
Y115516D01*
X155128D01*
Y116712D01*
X157457D01*
Y118028D01*
X158554D01*
Y116712D01*
D02*
G37*
G36*
X158540Y109296D02*
X158315Y109240D01*
X158111Y109177D01*
X157914Y109107D01*
X157738Y109022D01*
X157569Y108945D01*
X157414Y108853D01*
X157281Y108769D01*
X157154Y108684D01*
X157048Y108607D01*
X156950Y108530D01*
X156873Y108459D01*
X156809Y108396D01*
X156753Y108347D01*
X156718Y108311D01*
X156697Y108283D01*
X156690Y108276D01*
X156584Y108128D01*
X156486Y107981D01*
X156401Y107826D01*
X156331Y107671D01*
X156274Y107516D01*
X156225Y107362D01*
X156183Y107214D01*
X156148Y107073D01*
X156120Y106946D01*
X156106Y106820D01*
X156091Y106714D01*
X156077Y106623D01*
Y106545D01*
X156070Y106489D01*
Y106440D01*
X156077Y106278D01*
X156091Y106116D01*
X156113Y105962D01*
X156141Y105807D01*
X156176Y105666D01*
X156218Y105525D01*
X156253Y105399D01*
X156303Y105279D01*
X156345Y105173D01*
X156380Y105075D01*
X156422Y104991D01*
X156457Y104920D01*
X156486Y104864D01*
X156507Y104822D01*
X156521Y104794D01*
X156528Y104787D01*
X156619Y104646D01*
X156718Y104519D01*
X156823Y104399D01*
X156936Y104287D01*
X157048Y104188D01*
X157168Y104097D01*
X157281Y104012D01*
X157386Y103935D01*
X157492Y103872D01*
X157590Y103815D01*
X157682Y103766D01*
X157759Y103731D01*
X157822Y103696D01*
X157865Y103675D01*
X157900Y103668D01*
X157907Y103661D01*
X158083Y103597D01*
X158266Y103541D01*
X158448Y103492D01*
X158638Y103457D01*
X158997Y103386D01*
X159173Y103365D01*
X159342Y103344D01*
X159490Y103330D01*
X159630Y103323D01*
X159757Y103316D01*
X159863Y103309D01*
X159954Y103302D01*
X160018D01*
X160060D01*
X160074D01*
X160257Y103309D01*
X160433Y103316D01*
X160770Y103351D01*
X160932Y103372D01*
X161087Y103400D01*
X161235Y103429D01*
X161368Y103457D01*
X161495Y103485D01*
X161608Y103506D01*
X161706Y103534D01*
X161791Y103555D01*
X161854Y103576D01*
X161903Y103590D01*
X161938Y103604D01*
X161945D01*
X162114Y103668D01*
X162269Y103738D01*
X162417Y103815D01*
X162550Y103900D01*
X162684Y103984D01*
X162804Y104069D01*
X162909Y104160D01*
X163008Y104245D01*
X163092Y104329D01*
X163169Y104406D01*
X163233Y104477D01*
X163289Y104540D01*
X163331Y104590D01*
X163367Y104625D01*
X163381Y104653D01*
X163388Y104660D01*
X163486Y104808D01*
X163564Y104962D01*
X163641Y105117D01*
X163704Y105272D01*
X163754Y105434D01*
X163796Y105589D01*
X163831Y105736D01*
X163859Y105884D01*
X163887Y106018D01*
X163901Y106144D01*
X163915Y106257D01*
X163922Y106355D01*
X163929Y106433D01*
Y106538D01*
X163922Y106721D01*
X163908Y106890D01*
X163887Y107052D01*
X163852Y107207D01*
X163817Y107347D01*
X163775Y107481D01*
X163732Y107601D01*
X163690Y107713D01*
X163641Y107812D01*
X163599Y107903D01*
X163556Y107981D01*
X163521Y108044D01*
X163486Y108093D01*
X163465Y108128D01*
X163451Y108150D01*
X163444Y108157D01*
X163345Y108276D01*
X163240Y108389D01*
X163120Y108487D01*
X163001Y108586D01*
X162867Y108677D01*
X162740Y108755D01*
X162614Y108832D01*
X162487Y108895D01*
X162367Y108952D01*
X162255Y109008D01*
X162156Y109050D01*
X162072Y109085D01*
X161995Y109114D01*
X161945Y109135D01*
X161910Y109142D01*
X161896Y109149D01*
X162192Y110415D01*
X162438Y110338D01*
X162670Y110239D01*
X162888Y110141D01*
X163092Y110028D01*
X163275Y109916D01*
X163451Y109803D01*
X163606Y109683D01*
X163746Y109571D01*
X163873Y109458D01*
X163979Y109360D01*
X164077Y109268D01*
X164147Y109184D01*
X164211Y109121D01*
X164253Y109064D01*
X164281Y109036D01*
X164288Y109022D01*
X164422Y108832D01*
X164534Y108635D01*
X164633Y108424D01*
X164717Y108220D01*
X164795Y108016D01*
X164851Y107812D01*
X164900Y107615D01*
X164943Y107425D01*
X164971Y107242D01*
X164992Y107080D01*
X165013Y106939D01*
X165020Y106813D01*
X165027Y106707D01*
X165034Y106665D01*
Y106566D01*
X165027Y106327D01*
X165006Y106095D01*
X164978Y105870D01*
X164943Y105652D01*
X164900Y105448D01*
X164844Y105251D01*
X164795Y105068D01*
X164739Y104899D01*
X164682Y104751D01*
X164633Y104611D01*
X164584Y104491D01*
X164534Y104392D01*
X164499Y104308D01*
X164471Y104252D01*
X164450Y104217D01*
X164443Y104202D01*
X164323Y104005D01*
X164197Y103823D01*
X164063Y103654D01*
X163922Y103492D01*
X163782Y103344D01*
X163641Y103210D01*
X163493Y103084D01*
X163360Y102978D01*
X163233Y102880D01*
X163106Y102788D01*
X163001Y102718D01*
X162909Y102655D01*
X162825Y102612D01*
X162768Y102577D01*
X162733Y102556D01*
X162719Y102549D01*
X162501Y102451D01*
X162283Y102359D01*
X162058Y102282D01*
X161833Y102218D01*
X161608Y102162D01*
X161383Y102113D01*
X161171Y102078D01*
X160974Y102043D01*
X160784Y102021D01*
X160609Y102000D01*
X160454Y101993D01*
X160320Y101979D01*
X160215D01*
X160172Y101972D01*
X160137D01*
X160109D01*
X160088D01*
X160074D01*
X160067D01*
X159806Y101979D01*
X159553Y101993D01*
X159307Y102021D01*
X159075Y102050D01*
X158842Y102092D01*
X158631Y102134D01*
X158427Y102183D01*
X158237Y102233D01*
X158069Y102275D01*
X157914Y102324D01*
X157780Y102366D01*
X157668Y102408D01*
X157576Y102437D01*
X157513Y102465D01*
X157471Y102479D01*
X157464Y102486D01*
X157457D01*
X157238Y102584D01*
X157027Y102697D01*
X156837Y102816D01*
X156654Y102936D01*
X156493Y103063D01*
X156338Y103189D01*
X156204Y103309D01*
X156077Y103429D01*
X155965Y103541D01*
X155873Y103647D01*
X155789Y103738D01*
X155726Y103823D01*
X155676Y103893D01*
X155634Y103942D01*
X155613Y103970D01*
X155606Y103984D01*
X155493Y104174D01*
X155395Y104378D01*
X155311Y104590D01*
X155233Y104801D01*
X155177Y105012D01*
X155121Y105230D01*
X155078Y105434D01*
X155043Y105638D01*
X155022Y105821D01*
X155001Y105997D01*
X154987Y106151D01*
X154973Y106285D01*
Y106391D01*
X154966Y106440D01*
Y106545D01*
X154973Y106827D01*
X155001Y107094D01*
X155043Y107347D01*
X155092Y107594D01*
X155156Y107819D01*
X155226Y108030D01*
X155303Y108227D01*
X155381Y108403D01*
X155458Y108565D01*
X155536Y108705D01*
X155606Y108832D01*
X155669Y108931D01*
X155719Y109015D01*
X155761Y109071D01*
X155789Y109107D01*
X155796Y109121D01*
X155965Y109311D01*
X156141Y109486D01*
X156331Y109648D01*
X156528Y109796D01*
X156732Y109930D01*
X156929Y110049D01*
X157126Y110155D01*
X157323Y110246D01*
X157506Y110331D01*
X157675Y110401D01*
X157822Y110457D01*
X157956Y110507D01*
X158062Y110542D01*
X158111Y110556D01*
X158146Y110563D01*
X158174Y110570D01*
X158195Y110577D01*
X158209Y110584D01*
X158216D01*
X158540Y109296D01*
D02*
G37*
G36*
X128181Y118038D02*
X128343Y118024D01*
X128498Y118003D01*
X128646Y117968D01*
X128786Y117933D01*
X128913Y117898D01*
X129032Y117849D01*
X129145Y117806D01*
X129244Y117764D01*
X129328Y117722D01*
X129398Y117680D01*
X129462Y117644D01*
X129511Y117609D01*
X129546Y117588D01*
X129567Y117574D01*
X129574Y117567D01*
X129687Y117476D01*
X129792Y117370D01*
X129884Y117264D01*
X129968Y117159D01*
X130046Y117046D01*
X130109Y116934D01*
X130172Y116821D01*
X130222Y116716D01*
X130271Y116617D01*
X130306Y116526D01*
X130341Y116441D01*
X130362Y116364D01*
X130383Y116308D01*
X130398Y116258D01*
X130405Y116230D01*
Y116223D01*
X130461Y116343D01*
X130524Y116455D01*
X130595Y116561D01*
X130658Y116659D01*
X130728Y116751D01*
X130799Y116828D01*
X130862Y116906D01*
X130925Y116969D01*
X130989Y117032D01*
X131045Y117082D01*
X131094Y117124D01*
X131136Y117159D01*
X131171Y117187D01*
X131200Y117208D01*
X131214Y117215D01*
X131221Y117222D01*
X131319Y117286D01*
X131418Y117335D01*
X131523Y117384D01*
X131622Y117419D01*
X131812Y117483D01*
X131995Y117525D01*
X132072Y117539D01*
X132149Y117546D01*
X132213Y117560D01*
X132269D01*
X132311Y117567D01*
X132346D01*
X132367D01*
X132374D01*
X132501Y117560D01*
X132621Y117553D01*
X132853Y117511D01*
X133064Y117455D01*
X133155Y117419D01*
X133247Y117391D01*
X133331Y117356D01*
X133402Y117321D01*
X133472Y117293D01*
X133521Y117264D01*
X133571Y117243D01*
X133599Y117222D01*
X133620Y117215D01*
X133627Y117208D01*
X133732Y117138D01*
X133838Y117060D01*
X134021Y116899D01*
X134183Y116730D01*
X134316Y116561D01*
X134373Y116483D01*
X134422Y116413D01*
X134464Y116350D01*
X134499Y116293D01*
X134528Y116244D01*
X134549Y116209D01*
X134556Y116188D01*
X134563Y116181D01*
X134626Y116054D01*
X134675Y115928D01*
X134725Y115801D01*
X134760Y115667D01*
X134823Y115421D01*
X134844Y115309D01*
X134865Y115196D01*
X134879Y115098D01*
X134886Y115006D01*
X134900Y114922D01*
Y114851D01*
X134907Y114795D01*
Y114718D01*
X134900Y114507D01*
X134879Y114302D01*
X134844Y114105D01*
X134802Y113923D01*
X134753Y113754D01*
X134696Y113599D01*
X134640Y113451D01*
X134577Y113317D01*
X134513Y113198D01*
X134457Y113092D01*
X134401Y113001D01*
X134352Y112923D01*
X134309Y112860D01*
X134274Y112818D01*
X134253Y112790D01*
X134246Y112783D01*
X134119Y112642D01*
X133979Y112515D01*
X133831Y112403D01*
X133676Y112304D01*
X133521Y112213D01*
X133367Y112128D01*
X133212Y112058D01*
X133064Y111995D01*
X132923Y111945D01*
X132797Y111903D01*
X132684Y111868D01*
X132579Y111840D01*
X132494Y111819D01*
X132438Y111805D01*
X132396Y111791D01*
X132389D01*
X132382D01*
X132170Y112987D01*
X132332Y113015D01*
X132480Y113050D01*
X132614Y113085D01*
X132740Y113134D01*
X132860Y113177D01*
X132965Y113233D01*
X133064Y113282D01*
X133155Y113331D01*
X133226Y113381D01*
X133296Y113423D01*
X133352Y113465D01*
X133395Y113500D01*
X133430Y113535D01*
X133458Y113557D01*
X133472Y113571D01*
X133479Y113578D01*
X133557Y113669D01*
X133627Y113761D01*
X133683Y113859D01*
X133732Y113958D01*
X133782Y114056D01*
X133817Y114148D01*
X133866Y114331D01*
X133887Y114415D01*
X133901Y114492D01*
X133908Y114563D01*
X133915Y114626D01*
X133922Y114668D01*
Y114739D01*
X133915Y114865D01*
X133901Y114992D01*
X133880Y115105D01*
X133852Y115217D01*
X133824Y115316D01*
X133782Y115414D01*
X133747Y115499D01*
X133704Y115576D01*
X133662Y115646D01*
X133627Y115710D01*
X133585Y115759D01*
X133557Y115808D01*
X133528Y115843D01*
X133507Y115864D01*
X133493Y115878D01*
X133486Y115885D01*
X133402Y115963D01*
X133317Y116033D01*
X133226Y116096D01*
X133134Y116146D01*
X133043Y116188D01*
X132951Y116223D01*
X132783Y116279D01*
X132705Y116301D01*
X132635Y116315D01*
X132564Y116322D01*
X132515Y116329D01*
X132466Y116336D01*
X132431D01*
X132410D01*
X132403D01*
X132255Y116329D01*
X132114Y116308D01*
X131980Y116279D01*
X131861Y116237D01*
X131748Y116195D01*
X131650Y116146D01*
X131558Y116089D01*
X131474Y116033D01*
X131404Y115970D01*
X131340Y115921D01*
X131291Y115864D01*
X131249Y115822D01*
X131214Y115780D01*
X131193Y115752D01*
X131179Y115731D01*
X131171Y115724D01*
X131101Y115611D01*
X131045Y115492D01*
X130989Y115372D01*
X130946Y115252D01*
X130876Y115020D01*
X130848Y114915D01*
X130827Y114809D01*
X130813Y114711D01*
X130799Y114626D01*
X130792Y114549D01*
X130784Y114478D01*
X130777Y114429D01*
Y114295D01*
X130784Y114232D01*
Y114204D01*
X130792Y114183D01*
Y114162D01*
X129743Y114028D01*
X129785Y114211D01*
X129813Y114373D01*
X129842Y114514D01*
X129856Y114640D01*
X129863Y114739D01*
X129870Y114809D01*
Y114872D01*
X129863Y115027D01*
X129849Y115168D01*
X129820Y115309D01*
X129785Y115435D01*
X129743Y115555D01*
X129701Y115667D01*
X129652Y115773D01*
X129602Y115864D01*
X129553Y115949D01*
X129504Y116026D01*
X129462Y116089D01*
X129419Y116139D01*
X129384Y116181D01*
X129356Y116216D01*
X129342Y116230D01*
X129335Y116237D01*
X129229Y116336D01*
X129124Y116413D01*
X129011Y116490D01*
X128899Y116554D01*
X128786Y116603D01*
X128674Y116645D01*
X128561Y116680D01*
X128456Y116709D01*
X128357Y116737D01*
X128266Y116751D01*
X128181Y116765D01*
X128118Y116772D01*
X128055Y116779D01*
X128012D01*
X127984D01*
X127977D01*
X127822Y116772D01*
X127668Y116751D01*
X127527Y116723D01*
X127393Y116687D01*
X127260Y116645D01*
X127147Y116596D01*
X127034Y116540D01*
X126936Y116490D01*
X126844Y116434D01*
X126767Y116378D01*
X126697Y116329D01*
X126640Y116286D01*
X126591Y116251D01*
X126563Y116223D01*
X126542Y116202D01*
X126535Y116195D01*
X126429Y116082D01*
X126345Y115970D01*
X126267Y115850D01*
X126197Y115731D01*
X126141Y115611D01*
X126092Y115492D01*
X126056Y115372D01*
X126021Y115266D01*
X126000Y115161D01*
X125979Y115069D01*
X125972Y114985D01*
X125958Y114908D01*
Y114851D01*
X125951Y114802D01*
Y114767D01*
X125958Y114633D01*
X125972Y114514D01*
X125993Y114394D01*
X126021Y114281D01*
X126056Y114176D01*
X126092Y114077D01*
X126134Y113986D01*
X126176Y113901D01*
X126211Y113824D01*
X126253Y113761D01*
X126289Y113697D01*
X126324Y113655D01*
X126352Y113613D01*
X126373Y113585D01*
X126387Y113571D01*
X126394Y113564D01*
X126486Y113472D01*
X126584Y113395D01*
X126697Y113317D01*
X126816Y113247D01*
X127056Y113127D01*
X127302Y113029D01*
X127414Y112994D01*
X127520Y112959D01*
X127611Y112930D01*
X127696Y112909D01*
X127766Y112888D01*
X127822Y112874D01*
X127851Y112867D01*
X127865D01*
X127703Y111671D01*
X127478Y111699D01*
X127267Y111741D01*
X127070Y111805D01*
X126880Y111868D01*
X126704Y111945D01*
X126542Y112023D01*
X126387Y112107D01*
X126253Y112192D01*
X126134Y112276D01*
X126028Y112353D01*
X125937Y112431D01*
X125859Y112494D01*
X125796Y112550D01*
X125754Y112593D01*
X125726Y112621D01*
X125719Y112628D01*
X125585Y112790D01*
X125465Y112966D01*
X125367Y113141D01*
X125282Y113317D01*
X125205Y113500D01*
X125142Y113676D01*
X125092Y113852D01*
X125057Y114014D01*
X125022Y114169D01*
X125001Y114309D01*
X124980Y114436D01*
X124973Y114549D01*
X124966Y114633D01*
X124959Y114704D01*
Y114760D01*
X124966Y115020D01*
X124994Y115266D01*
X125043Y115506D01*
X125099Y115724D01*
X125163Y115935D01*
X125240Y116125D01*
X125318Y116308D01*
X125402Y116469D01*
X125486Y116610D01*
X125564Y116744D01*
X125641Y116849D01*
X125705Y116941D01*
X125761Y117018D01*
X125810Y117067D01*
X125838Y117096D01*
X125845Y117110D01*
X126014Y117271D01*
X126190Y117419D01*
X126373Y117546D01*
X126556Y117652D01*
X126739Y117743D01*
X126922Y117820D01*
X127091Y117877D01*
X127260Y117926D01*
X127414Y117968D01*
X127555Y117996D01*
X127682Y118017D01*
X127794Y118031D01*
X127879Y118038D01*
X127949Y118046D01*
X127991D01*
X128005D01*
X128181Y118038D01*
D02*
G37*
G36*
X128547Y109279D02*
X128322Y109223D01*
X128118Y109159D01*
X127921Y109089D01*
X127745Y109004D01*
X127576Y108927D01*
X127421Y108836D01*
X127288Y108751D01*
X127161Y108667D01*
X127056Y108589D01*
X126957Y108512D01*
X126880Y108442D01*
X126816Y108378D01*
X126760Y108329D01*
X126725Y108294D01*
X126704Y108266D01*
X126697Y108259D01*
X126591Y108111D01*
X126493Y107963D01*
X126408Y107808D01*
X126338Y107654D01*
X126281Y107499D01*
X126232Y107344D01*
X126190Y107196D01*
X126155Y107056D01*
X126127Y106929D01*
X126113Y106802D01*
X126099Y106697D01*
X126084Y106605D01*
Y106528D01*
X126077Y106472D01*
Y106422D01*
X126084Y106260D01*
X126099Y106099D01*
X126120Y105944D01*
X126148Y105789D01*
X126183Y105648D01*
X126225Y105508D01*
X126260Y105381D01*
X126310Y105261D01*
X126352Y105156D01*
X126387Y105057D01*
X126429Y104973D01*
X126465Y104903D01*
X126493Y104846D01*
X126514Y104804D01*
X126528Y104776D01*
X126535Y104769D01*
X126626Y104628D01*
X126725Y104501D01*
X126830Y104382D01*
X126943Y104269D01*
X127056Y104171D01*
X127175Y104079D01*
X127288Y103995D01*
X127393Y103918D01*
X127499Y103854D01*
X127597Y103798D01*
X127689Y103749D01*
X127766Y103714D01*
X127829Y103678D01*
X127872Y103657D01*
X127907Y103650D01*
X127914Y103643D01*
X128090Y103580D01*
X128273Y103524D01*
X128456Y103474D01*
X128646Y103439D01*
X129004Y103369D01*
X129180Y103348D01*
X129349Y103327D01*
X129497Y103313D01*
X129638Y103306D01*
X129764Y103298D01*
X129870Y103291D01*
X129961Y103284D01*
X130025D01*
X130067D01*
X130081D01*
X130264Y103291D01*
X130440Y103298D01*
X130777Y103334D01*
X130939Y103355D01*
X131094Y103383D01*
X131242Y103411D01*
X131376Y103439D01*
X131502Y103467D01*
X131615Y103488D01*
X131713Y103517D01*
X131798Y103538D01*
X131861Y103559D01*
X131910Y103573D01*
X131945Y103587D01*
X131952D01*
X132121Y103650D01*
X132276Y103721D01*
X132424Y103798D01*
X132557Y103882D01*
X132691Y103967D01*
X132811Y104051D01*
X132916Y104143D01*
X133015Y104227D01*
X133099Y104312D01*
X133177Y104389D01*
X133240Y104459D01*
X133296Y104523D01*
X133338Y104572D01*
X133374Y104607D01*
X133388Y104635D01*
X133395Y104642D01*
X133493Y104790D01*
X133571Y104945D01*
X133648Y105100D01*
X133711Y105254D01*
X133761Y105416D01*
X133803Y105571D01*
X133838Y105719D01*
X133866Y105866D01*
X133894Y106000D01*
X133908Y106127D01*
X133922Y106239D01*
X133930Y106338D01*
X133937Y106415D01*
Y106521D01*
X133930Y106704D01*
X133915Y106873D01*
X133894Y107034D01*
X133859Y107189D01*
X133824Y107330D01*
X133782Y107464D01*
X133740Y107583D01*
X133697Y107696D01*
X133648Y107794D01*
X133606Y107886D01*
X133564Y107963D01*
X133528Y108027D01*
X133493Y108076D01*
X133472Y108111D01*
X133458Y108132D01*
X133451Y108139D01*
X133352Y108259D01*
X133247Y108371D01*
X133127Y108470D01*
X133008Y108568D01*
X132874Y108660D01*
X132747Y108737D01*
X132621Y108814D01*
X132494Y108878D01*
X132374Y108934D01*
X132262Y108990D01*
X132163Y109033D01*
X132079Y109068D01*
X132002Y109096D01*
X131952Y109117D01*
X131917Y109124D01*
X131903Y109131D01*
X132199Y110398D01*
X132445Y110320D01*
X132677Y110222D01*
X132895Y110123D01*
X133099Y110011D01*
X133282Y109898D01*
X133458Y109785D01*
X133613Y109666D01*
X133754Y109553D01*
X133880Y109441D01*
X133986Y109342D01*
X134084Y109251D01*
X134155Y109166D01*
X134218Y109103D01*
X134260Y109047D01*
X134288Y109018D01*
X134295Y109004D01*
X134429Y108814D01*
X134542Y108617D01*
X134640Y108406D01*
X134725Y108202D01*
X134802Y107998D01*
X134858Y107794D01*
X134907Y107597D01*
X134950Y107407D01*
X134978Y107224D01*
X134999Y107063D01*
X135020Y106922D01*
X135027Y106795D01*
X135034Y106690D01*
X135041Y106648D01*
Y106549D01*
X135034Y106310D01*
X135013Y106078D01*
X134985Y105852D01*
X134950Y105634D01*
X134907Y105430D01*
X134851Y105233D01*
X134802Y105050D01*
X134746Y104881D01*
X134689Y104734D01*
X134640Y104593D01*
X134591Y104473D01*
X134542Y104375D01*
X134506Y104291D01*
X134478Y104234D01*
X134457Y104199D01*
X134450Y104185D01*
X134331Y103988D01*
X134204Y103805D01*
X134070Y103636D01*
X133930Y103474D01*
X133789Y103327D01*
X133648Y103193D01*
X133500Y103066D01*
X133367Y102961D01*
X133240Y102862D01*
X133113Y102771D01*
X133008Y102700D01*
X132916Y102637D01*
X132832Y102595D01*
X132776Y102560D01*
X132740Y102539D01*
X132726Y102531D01*
X132508Y102433D01*
X132290Y102342D01*
X132065Y102264D01*
X131840Y102201D01*
X131615Y102145D01*
X131390Y102095D01*
X131179Y102060D01*
X130982Y102025D01*
X130792Y102004D01*
X130616Y101983D01*
X130461Y101976D01*
X130327Y101962D01*
X130222D01*
X130179Y101955D01*
X130144D01*
X130116D01*
X130095D01*
X130081D01*
X130074D01*
X129813Y101962D01*
X129560Y101976D01*
X129314Y102004D01*
X129082Y102032D01*
X128850Y102074D01*
X128638Y102116D01*
X128434Y102166D01*
X128244Y102215D01*
X128076Y102257D01*
X127921Y102306D01*
X127787Y102349D01*
X127675Y102391D01*
X127583Y102419D01*
X127520Y102447D01*
X127478Y102461D01*
X127471Y102468D01*
X127464D01*
X127245Y102567D01*
X127034Y102679D01*
X126844Y102799D01*
X126662Y102919D01*
X126500Y103045D01*
X126345Y103172D01*
X126211Y103291D01*
X126084Y103411D01*
X125972Y103524D01*
X125880Y103629D01*
X125796Y103721D01*
X125733Y103805D01*
X125683Y103875D01*
X125641Y103925D01*
X125620Y103953D01*
X125613Y103967D01*
X125501Y104157D01*
X125402Y104361D01*
X125318Y104572D01*
X125240Y104783D01*
X125184Y104994D01*
X125128Y105212D01*
X125085Y105416D01*
X125050Y105620D01*
X125029Y105803D01*
X125008Y105979D01*
X124994Y106134D01*
X124980Y106267D01*
Y106373D01*
X124973Y106422D01*
Y106528D01*
X124980Y106809D01*
X125008Y107077D01*
X125050Y107330D01*
X125099Y107576D01*
X125163Y107801D01*
X125233Y108012D01*
X125311Y108209D01*
X125388Y108385D01*
X125465Y108547D01*
X125543Y108688D01*
X125613Y108814D01*
X125676Y108913D01*
X125726Y108997D01*
X125768Y109054D01*
X125796Y109089D01*
X125803Y109103D01*
X125972Y109293D01*
X126148Y109469D01*
X126338Y109631D01*
X126535Y109778D01*
X126739Y109912D01*
X126936Y110032D01*
X127133Y110137D01*
X127330Y110229D01*
X127513Y110313D01*
X127682Y110384D01*
X127829Y110440D01*
X127963Y110489D01*
X128069Y110524D01*
X128118Y110538D01*
X128153Y110545D01*
X128181Y110552D01*
X128202Y110559D01*
X128216Y110566D01*
X128223D01*
X128547Y109279D01*
D02*
G37*
G36*
X92275Y113226D02*
X92394Y113303D01*
X92514Y113388D01*
X92619Y113472D01*
X92718Y113550D01*
X92795Y113620D01*
X92858Y113676D01*
X92901Y113711D01*
X92915Y113726D01*
X92985Y113789D01*
X93062Y113873D01*
X93147Y113965D01*
X93245Y114070D01*
X93344Y114183D01*
X93449Y114295D01*
X93653Y114535D01*
X93752Y114647D01*
X93843Y114753D01*
X93928Y114844D01*
X93998Y114936D01*
X94062Y115006D01*
X94104Y115055D01*
X94139Y115090D01*
X94146Y115105D01*
X94343Y115337D01*
X94533Y115555D01*
X94709Y115752D01*
X94871Y115935D01*
X95026Y116104D01*
X95166Y116251D01*
X95293Y116392D01*
X95405Y116512D01*
X95511Y116617D01*
X95603Y116702D01*
X95680Y116779D01*
X95743Y116842D01*
X95792Y116892D01*
X95828Y116920D01*
X95849Y116941D01*
X95856Y116948D01*
X95975Y117046D01*
X96088Y117145D01*
X96201Y117229D01*
X96306Y117307D01*
X96510Y117447D01*
X96601Y117504D01*
X96686Y117553D01*
X96763Y117602D01*
X96834Y117637D01*
X96897Y117673D01*
X96946Y117694D01*
X96988Y117715D01*
X97017Y117729D01*
X97038Y117743D01*
X97045D01*
X97256Y117820D01*
X97460Y117884D01*
X97657Y117926D01*
X97833Y117954D01*
X97910Y117961D01*
X97981Y117968D01*
X98037Y117975D01*
X98093Y117982D01*
X98135D01*
X98163D01*
X98185D01*
X98192D01*
X98403Y117975D01*
X98607Y117947D01*
X98797Y117905D01*
X98980Y117856D01*
X99149Y117792D01*
X99310Y117722D01*
X99458Y117644D01*
X99592Y117574D01*
X99711Y117497D01*
X99817Y117419D01*
X99908Y117349D01*
X99979Y117286D01*
X100042Y117236D01*
X100084Y117194D01*
X100112Y117166D01*
X100119Y117159D01*
X100260Y116997D01*
X100380Y116828D01*
X100478Y116652D01*
X100570Y116469D01*
X100647Y116286D01*
X100710Y116096D01*
X100760Y115921D01*
X100802Y115745D01*
X100837Y115583D01*
X100858Y115428D01*
X100879Y115295D01*
X100886Y115175D01*
X100893Y115076D01*
X100900Y115006D01*
Y114943D01*
X100893Y114689D01*
X100872Y114450D01*
X100837Y114225D01*
X100788Y114014D01*
X100731Y113817D01*
X100668Y113634D01*
X100605Y113472D01*
X100542Y113317D01*
X100471Y113184D01*
X100408Y113064D01*
X100345Y112966D01*
X100288Y112881D01*
X100246Y112818D01*
X100204Y112769D01*
X100183Y112740D01*
X100176Y112733D01*
X100035Y112586D01*
X99880Y112459D01*
X99718Y112339D01*
X99550Y112241D01*
X99374Y112149D01*
X99198Y112072D01*
X99029Y112009D01*
X98860Y111952D01*
X98705Y111910D01*
X98558Y111875D01*
X98424Y111847D01*
X98311Y111826D01*
X98220Y111805D01*
X98149Y111798D01*
X98121D01*
X98100Y111791D01*
X98093D01*
X98086D01*
X97959Y113022D01*
X98128Y113029D01*
X98283Y113043D01*
X98431Y113071D01*
X98572Y113099D01*
X98698Y113141D01*
X98811Y113184D01*
X98923Y113233D01*
X99015Y113282D01*
X99099Y113324D01*
X99177Y113374D01*
X99240Y113416D01*
X99296Y113458D01*
X99331Y113486D01*
X99367Y113514D01*
X99381Y113528D01*
X99388Y113535D01*
X99479Y113634D01*
X99557Y113747D01*
X99627Y113859D01*
X99690Y113972D01*
X99740Y114091D01*
X99782Y114204D01*
X99817Y114317D01*
X99845Y114422D01*
X99866Y114528D01*
X99880Y114619D01*
X99894Y114704D01*
X99901Y114781D01*
X99908Y114837D01*
Y114922D01*
X99901Y115069D01*
X99887Y115210D01*
X99866Y115344D01*
X99831Y115470D01*
X99796Y115583D01*
X99754Y115695D01*
X99711Y115794D01*
X99662Y115885D01*
X99620Y115963D01*
X99571Y116033D01*
X99528Y116096D01*
X99493Y116146D01*
X99458Y116188D01*
X99437Y116216D01*
X99423Y116230D01*
X99416Y116237D01*
X99324Y116329D01*
X99226Y116406D01*
X99127Y116476D01*
X99022Y116533D01*
X98923Y116582D01*
X98825Y116624D01*
X98726Y116659D01*
X98635Y116687D01*
X98551Y116709D01*
X98473Y116723D01*
X98403Y116737D01*
X98339Y116744D01*
X98290Y116751D01*
X98255D01*
X98227D01*
X98220D01*
X98093Y116744D01*
X97966Y116730D01*
X97840Y116702D01*
X97713Y116666D01*
X97467Y116575D01*
X97354Y116519D01*
X97249Y116469D01*
X97150Y116420D01*
X97059Y116364D01*
X96981Y116322D01*
X96911Y116279D01*
X96862Y116237D01*
X96820Y116209D01*
X96791Y116195D01*
X96784Y116188D01*
X96637Y116075D01*
X96475Y115935D01*
X96313Y115787D01*
X96144Y115618D01*
X95968Y115449D01*
X95800Y115266D01*
X95631Y115090D01*
X95469Y114908D01*
X95314Y114739D01*
X95173Y114577D01*
X95040Y114436D01*
X94934Y114302D01*
X94843Y114197D01*
X94807Y114155D01*
X94772Y114120D01*
X94751Y114091D01*
X94730Y114070D01*
X94723Y114056D01*
X94716Y114049D01*
X94561Y113866D01*
X94413Y113690D01*
X94273Y113528D01*
X94139Y113374D01*
X94005Y113233D01*
X93886Y113106D01*
X93773Y112994D01*
X93668Y112888D01*
X93576Y112790D01*
X93492Y112712D01*
X93421Y112642D01*
X93358Y112586D01*
X93309Y112543D01*
X93274Y112515D01*
X93252Y112494D01*
X93245Y112487D01*
X93006Y112297D01*
X92774Y112135D01*
X92556Y112002D01*
X92457Y111938D01*
X92359Y111889D01*
X92275Y111847D01*
X92197Y111805D01*
X92127Y111770D01*
X92063Y111748D01*
X92014Y111727D01*
X91979Y111713D01*
X91958Y111699D01*
X91951D01*
X91803Y111650D01*
X91655Y111615D01*
X91515Y111594D01*
X91395Y111580D01*
X91283Y111573D01*
X91240Y111566D01*
X91198D01*
X91170D01*
X91149D01*
X91135D01*
X91128D01*
Y117996D01*
X92275D01*
Y113226D01*
D02*
G37*
G36*
X94540Y109328D02*
X94315Y109272D01*
X94111Y109208D01*
X93914Y109138D01*
X93738Y109054D01*
X93569Y108976D01*
X93414Y108885D01*
X93281Y108800D01*
X93154Y108716D01*
X93048Y108639D01*
X92950Y108561D01*
X92873Y108491D01*
X92809Y108427D01*
X92753Y108378D01*
X92718Y108343D01*
X92697Y108315D01*
X92690Y108308D01*
X92584Y108160D01*
X92486Y108012D01*
X92401Y107858D01*
X92331Y107703D01*
X92275Y107548D01*
X92225Y107393D01*
X92183Y107246D01*
X92148Y107105D01*
X92120Y106978D01*
X92106Y106852D01*
X92092Y106746D01*
X92078Y106655D01*
Y106577D01*
X92071Y106521D01*
Y106472D01*
X92078Y106310D01*
X92092Y106148D01*
X92113Y105993D01*
X92141Y105838D01*
X92176Y105698D01*
X92218Y105557D01*
X92253Y105430D01*
X92303Y105311D01*
X92345Y105205D01*
X92380Y105107D01*
X92422Y105022D01*
X92457Y104952D01*
X92486Y104895D01*
X92507Y104853D01*
X92521Y104825D01*
X92528Y104818D01*
X92619Y104677D01*
X92718Y104551D01*
X92823Y104431D01*
X92936Y104319D01*
X93048Y104220D01*
X93168Y104129D01*
X93281Y104044D01*
X93386Y103967D01*
X93492Y103904D01*
X93590Y103847D01*
X93682Y103798D01*
X93759Y103763D01*
X93822Y103728D01*
X93865Y103707D01*
X93900Y103700D01*
X93907Y103692D01*
X94083Y103629D01*
X94266Y103573D01*
X94449Y103524D01*
X94639Y103488D01*
X94997Y103418D01*
X95173Y103397D01*
X95342Y103376D01*
X95490Y103362D01*
X95631Y103355D01*
X95757Y103348D01*
X95863Y103341D01*
X95954Y103334D01*
X96018D01*
X96060D01*
X96074D01*
X96257Y103341D01*
X96433Y103348D01*
X96770Y103383D01*
X96932Y103404D01*
X97087Y103432D01*
X97235Y103460D01*
X97368Y103488D01*
X97495Y103517D01*
X97608Y103538D01*
X97706Y103566D01*
X97791Y103587D01*
X97854Y103608D01*
X97903Y103622D01*
X97938Y103636D01*
X97945D01*
X98114Y103700D01*
X98269Y103770D01*
X98417Y103847D01*
X98551Y103932D01*
X98684Y104016D01*
X98804Y104101D01*
X98909Y104192D01*
X99008Y104276D01*
X99092Y104361D01*
X99170Y104438D01*
X99233Y104509D01*
X99289Y104572D01*
X99331Y104621D01*
X99367Y104656D01*
X99381Y104684D01*
X99388Y104691D01*
X99486Y104839D01*
X99564Y104994D01*
X99641Y105149D01*
X99704Y105304D01*
X99754Y105465D01*
X99796Y105620D01*
X99831Y105768D01*
X99859Y105916D01*
X99887Y106049D01*
X99901Y106176D01*
X99915Y106289D01*
X99922Y106387D01*
X99930Y106465D01*
Y106570D01*
X99922Y106753D01*
X99908Y106922D01*
X99887Y107084D01*
X99852Y107239D01*
X99817Y107379D01*
X99775Y107513D01*
X99733Y107633D01*
X99690Y107745D01*
X99641Y107844D01*
X99599Y107935D01*
X99557Y108012D01*
X99521Y108076D01*
X99486Y108125D01*
X99465Y108160D01*
X99451Y108181D01*
X99444Y108188D01*
X99346Y108308D01*
X99240Y108420D01*
X99120Y108519D01*
X99001Y108617D01*
X98867Y108709D01*
X98740Y108786D01*
X98614Y108864D01*
X98487Y108927D01*
X98368Y108983D01*
X98255Y109040D01*
X98156Y109082D01*
X98072Y109117D01*
X97995Y109145D01*
X97945Y109166D01*
X97910Y109173D01*
X97896Y109180D01*
X98192Y110447D01*
X98438Y110369D01*
X98670Y110271D01*
X98888Y110172D01*
X99092Y110060D01*
X99275Y109947D01*
X99451Y109835D01*
X99606Y109715D01*
X99747Y109602D01*
X99873Y109490D01*
X99979Y109391D01*
X100077Y109300D01*
X100148Y109215D01*
X100211Y109152D01*
X100253Y109096D01*
X100281Y109068D01*
X100288Y109054D01*
X100422Y108864D01*
X100534Y108667D01*
X100633Y108456D01*
X100717Y108252D01*
X100795Y108048D01*
X100851Y107844D01*
X100900Y107647D01*
X100943Y107457D01*
X100971Y107274D01*
X100992Y107112D01*
X101013Y106971D01*
X101020Y106845D01*
X101027Y106739D01*
X101034Y106697D01*
Y106598D01*
X101027Y106359D01*
X101006Y106127D01*
X100978Y105902D01*
X100943Y105684D01*
X100900Y105479D01*
X100844Y105282D01*
X100795Y105100D01*
X100739Y104931D01*
X100682Y104783D01*
X100633Y104642D01*
X100584Y104523D01*
X100534Y104424D01*
X100499Y104340D01*
X100471Y104283D01*
X100450Y104248D01*
X100443Y104234D01*
X100323Y104037D01*
X100197Y103854D01*
X100063Y103685D01*
X99922Y103524D01*
X99782Y103376D01*
X99641Y103242D01*
X99493Y103116D01*
X99360Y103010D01*
X99233Y102912D01*
X99106Y102820D01*
X99001Y102750D01*
X98909Y102686D01*
X98825Y102644D01*
X98769Y102609D01*
X98733Y102588D01*
X98719Y102581D01*
X98501Y102482D01*
X98283Y102391D01*
X98058Y102313D01*
X97833Y102250D01*
X97608Y102194D01*
X97382Y102145D01*
X97171Y102109D01*
X96974Y102074D01*
X96784Y102053D01*
X96609Y102032D01*
X96454Y102025D01*
X96320Y102011D01*
X96215D01*
X96172Y102004D01*
X96137D01*
X96109D01*
X96088D01*
X96074D01*
X96067D01*
X95807Y102011D01*
X95553Y102025D01*
X95307Y102053D01*
X95075Y102081D01*
X94843Y102123D01*
X94632Y102166D01*
X94427Y102215D01*
X94237Y102264D01*
X94069Y102306D01*
X93914Y102356D01*
X93780Y102398D01*
X93668Y102440D01*
X93576Y102468D01*
X93513Y102496D01*
X93471Y102510D01*
X93464Y102517D01*
X93456D01*
X93238Y102616D01*
X93027Y102729D01*
X92837Y102848D01*
X92654Y102968D01*
X92493Y103094D01*
X92338Y103221D01*
X92204Y103341D01*
X92078Y103460D01*
X91965Y103573D01*
X91874Y103678D01*
X91789Y103770D01*
X91726Y103854D01*
X91677Y103925D01*
X91634Y103974D01*
X91613Y104002D01*
X91606Y104016D01*
X91494Y104206D01*
X91395Y104410D01*
X91311Y104621D01*
X91233Y104832D01*
X91177Y105043D01*
X91121Y105261D01*
X91078Y105465D01*
X91043Y105669D01*
X91022Y105852D01*
X91001Y106028D01*
X90987Y106183D01*
X90973Y106317D01*
Y106422D01*
X90966Y106472D01*
Y106577D01*
X90973Y106859D01*
X91001Y107126D01*
X91043Y107379D01*
X91093Y107625D01*
X91156Y107851D01*
X91226Y108062D01*
X91304Y108259D01*
X91381Y108435D01*
X91458Y108596D01*
X91536Y108737D01*
X91606Y108864D01*
X91669Y108962D01*
X91719Y109047D01*
X91761Y109103D01*
X91789Y109138D01*
X91796Y109152D01*
X91965Y109342D01*
X92141Y109518D01*
X92331Y109680D01*
X92528Y109828D01*
X92732Y109961D01*
X92929Y110081D01*
X93126Y110187D01*
X93323Y110278D01*
X93506Y110362D01*
X93675Y110433D01*
X93822Y110489D01*
X93956Y110538D01*
X94062Y110573D01*
X94111Y110588D01*
X94146Y110595D01*
X94174Y110602D01*
X94195Y110609D01*
X94209Y110616D01*
X94216D01*
X94540Y109328D01*
D02*
G37*
%LPC*%
G36*
X199055Y210589D02*
X196803D01*
X196613Y210582D01*
X196437Y210568D01*
X196268Y210561D01*
X196120Y210539D01*
X195980Y210525D01*
X195860Y210504D01*
X195748Y210490D01*
X195656Y210469D01*
X195572Y210448D01*
X195501Y210434D01*
X195445Y210420D01*
X195403Y210406D01*
X195368Y210392D01*
X195354Y210385D01*
X195347D01*
X195213Y210328D01*
X195086Y210258D01*
X194967Y210181D01*
X194854Y210096D01*
X194749Y210005D01*
X194643Y209913D01*
X194552Y209822D01*
X194467Y209730D01*
X194390Y209639D01*
X194326Y209555D01*
X194270Y209477D01*
X194221Y209414D01*
X194179Y209357D01*
X194151Y209315D01*
X194136Y209287D01*
X194129Y209280D01*
X194038Y209118D01*
X193960Y208942D01*
X193897Y208759D01*
X193834Y208570D01*
X193785Y208372D01*
X193750Y208183D01*
X193714Y207985D01*
X193686Y207803D01*
X193665Y207627D01*
X193651Y207465D01*
X193637Y207317D01*
X193630Y207190D01*
X193623Y207085D01*
Y207043D01*
Y207008D01*
Y206972D01*
Y206951D01*
Y206944D01*
Y206937D01*
Y206733D01*
X193637Y206536D01*
X193644Y206353D01*
X193665Y206177D01*
X193686Y206015D01*
X193707Y205861D01*
X193728Y205713D01*
X193750Y205586D01*
X193778Y205467D01*
X193799Y205361D01*
X193820Y205270D01*
X193841Y205199D01*
X193862Y205136D01*
X193869Y205094D01*
X193883Y205066D01*
Y205059D01*
X193932Y204918D01*
X193989Y204784D01*
X194045Y204658D01*
X194101Y204538D01*
X194158Y204432D01*
X194221Y204327D01*
X194277Y204235D01*
X194333Y204151D01*
X194390Y204081D01*
X194439Y204010D01*
X194481Y203954D01*
X194516Y203912D01*
X194552Y203877D01*
X194573Y203848D01*
X194587Y203834D01*
X194594Y203827D01*
X194727Y203715D01*
X194868Y203609D01*
X195016Y203525D01*
X195157Y203454D01*
X195283Y203398D01*
X195333Y203370D01*
X195382Y203356D01*
X195417Y203342D01*
X195452Y203328D01*
X195466Y203321D01*
X195473D01*
X195579Y203293D01*
X195691Y203265D01*
X195938Y203222D01*
X196191Y203187D01*
X196430Y203166D01*
X196543Y203159D01*
X196648Y203152D01*
X196740D01*
X196817Y203145D01*
X199055D01*
Y210589D01*
D02*
G37*
G36*
X386223Y80915D02*
X386159D01*
X386033Y80908D01*
X385920Y80894D01*
X385807Y80873D01*
X385695Y80845D01*
X385596Y80810D01*
X385505Y80775D01*
X385420Y80732D01*
X385343Y80690D01*
X385273Y80648D01*
X385209Y80606D01*
X385160Y80571D01*
X385111Y80535D01*
X385083Y80507D01*
X385055Y80486D01*
X385041Y80472D01*
X385033Y80465D01*
X384956Y80381D01*
X384886Y80289D01*
X384823Y80198D01*
X384766Y80106D01*
X384724Y80008D01*
X384689Y79916D01*
X384632Y79748D01*
X384611Y79663D01*
X384597Y79593D01*
X384590Y79529D01*
X384583Y79473D01*
X384576Y79424D01*
Y79389D01*
Y79368D01*
Y79360D01*
X384583Y79248D01*
X384597Y79135D01*
X384618Y79030D01*
X384647Y78931D01*
X384717Y78748D01*
X384759Y78671D01*
X384794Y78594D01*
X384837Y78530D01*
X384879Y78467D01*
X384914Y78418D01*
X384949Y78376D01*
X384977Y78340D01*
X384998Y78319D01*
X385012Y78305D01*
X385019Y78298D01*
X385104Y78221D01*
X385195Y78157D01*
X385287Y78101D01*
X385378Y78052D01*
X385477Y78010D01*
X385568Y77975D01*
X385744Y77925D01*
X385829Y77904D01*
X385906Y77890D01*
X385969Y77883D01*
X386033Y77876D01*
X386082Y77869D01*
X386145D01*
X386272Y77876D01*
X386399Y77890D01*
X386518Y77911D01*
X386624Y77939D01*
X386729Y77967D01*
X386821Y78010D01*
X386912Y78045D01*
X386990Y78087D01*
X387060Y78129D01*
X387123Y78164D01*
X387172Y78207D01*
X387222Y78235D01*
X387250Y78263D01*
X387278Y78284D01*
X387292Y78298D01*
X387299Y78305D01*
X387377Y78390D01*
X387440Y78481D01*
X387503Y78573D01*
X387552Y78664D01*
X387595Y78762D01*
X387630Y78854D01*
X387679Y79030D01*
X387700Y79114D01*
X387714Y79192D01*
X387721Y79255D01*
X387728Y79318D01*
X387735Y79368D01*
Y79403D01*
Y79424D01*
Y79431D01*
X387728Y79543D01*
X387714Y79649D01*
X387693Y79755D01*
X387665Y79846D01*
X387595Y80029D01*
X387552Y80106D01*
X387510Y80177D01*
X387475Y80247D01*
X387433Y80303D01*
X387398Y80353D01*
X387362Y80395D01*
X387334Y80430D01*
X387313Y80451D01*
X387299Y80465D01*
X387292Y80472D01*
X387208Y80550D01*
X387116Y80620D01*
X387018Y80676D01*
X386926Y80725D01*
X386828Y80775D01*
X386736Y80810D01*
X386553Y80859D01*
X386476Y80880D01*
X386399Y80894D01*
X386328Y80901D01*
X386272Y80908D01*
X386223Y80915D01*
D02*
G37*
G36*
X386272Y76891D02*
X386187D01*
X386026Y76884D01*
X385878Y76870D01*
X385730Y76842D01*
X385596Y76800D01*
X385470Y76757D01*
X385350Y76708D01*
X385245Y76659D01*
X385146Y76610D01*
X385055Y76553D01*
X384977Y76504D01*
X384914Y76455D01*
X384858Y76413D01*
X384808Y76377D01*
X384780Y76349D01*
X384759Y76328D01*
X384752Y76321D01*
X384654Y76216D01*
X384562Y76096D01*
X384485Y75983D01*
X384421Y75864D01*
X384365Y75744D01*
X384316Y75624D01*
X384281Y75512D01*
X384245Y75399D01*
X384224Y75294D01*
X384203Y75202D01*
X384189Y75118D01*
X384182Y75040D01*
Y74984D01*
X384175Y74935D01*
Y74907D01*
Y74900D01*
X384182Y74745D01*
X384196Y74597D01*
X384224Y74457D01*
X384260Y74323D01*
X384302Y74196D01*
X384351Y74084D01*
X384400Y73978D01*
X384450Y73880D01*
X384506Y73795D01*
X384555Y73718D01*
X384604Y73654D01*
X384647Y73598D01*
X384682Y73556D01*
X384710Y73528D01*
X384724Y73507D01*
X384731Y73500D01*
X384837Y73401D01*
X384949Y73317D01*
X385069Y73246D01*
X385188Y73183D01*
X385308Y73127D01*
X385420Y73085D01*
X385540Y73049D01*
X385646Y73021D01*
X385751Y73000D01*
X385843Y72979D01*
X385927Y72965D01*
X386004Y72958D01*
X386061D01*
X386110Y72951D01*
X386145D01*
X386349Y72965D01*
X386539Y72993D01*
X386708Y73035D01*
X386863Y73085D01*
X386933Y73106D01*
X386990Y73127D01*
X387046Y73148D01*
X387088Y73169D01*
X387123Y73190D01*
X387151Y73197D01*
X387165Y73211D01*
X387172D01*
X387341Y73317D01*
X387489Y73436D01*
X387609Y73563D01*
X387707Y73676D01*
X387792Y73788D01*
X387820Y73830D01*
X387848Y73873D01*
X387862Y73908D01*
X387876Y73929D01*
X387890Y73943D01*
Y73950D01*
X387967Y74133D01*
X388031Y74309D01*
X388073Y74471D01*
X388101Y74625D01*
X388108Y74689D01*
X388115Y74752D01*
X388122Y74801D01*
Y74851D01*
X388129Y74886D01*
Y74914D01*
Y74928D01*
Y74935D01*
X388122Y75090D01*
X388108Y75237D01*
X388080Y75371D01*
X388045Y75505D01*
X388003Y75631D01*
X387953Y75744D01*
X387904Y75850D01*
X387855Y75948D01*
X387806Y76033D01*
X387756Y76110D01*
X387707Y76173D01*
X387665Y76230D01*
X387630Y76272D01*
X387602Y76300D01*
X387588Y76321D01*
X387580Y76328D01*
X387475Y76427D01*
X387362Y76511D01*
X387250Y76588D01*
X387130Y76652D01*
X387011Y76708D01*
X386898Y76757D01*
X386786Y76792D01*
X386680Y76821D01*
X386574Y76842D01*
X386483Y76863D01*
X386399Y76877D01*
X386328Y76884D01*
X386272Y76891D01*
D02*
G37*
G36*
X415114Y137390D02*
X415078D01*
X414931Y137383D01*
X414783Y137362D01*
X414649Y137334D01*
X414523Y137299D01*
X414403Y137257D01*
X414290Y137208D01*
X414192Y137151D01*
X414093Y137102D01*
X414016Y137046D01*
X413939Y136989D01*
X413875Y136940D01*
X413826Y136898D01*
X413784Y136863D01*
X413749Y136835D01*
X413735Y136814D01*
X413728Y136806D01*
X413629Y136694D01*
X413552Y136567D01*
X413474Y136441D01*
X413411Y136314D01*
X413362Y136180D01*
X413320Y136047D01*
X413284Y135920D01*
X413256Y135793D01*
X413228Y135674D01*
X413214Y135568D01*
X413200Y135470D01*
X413193Y135385D01*
X413186Y135315D01*
Y135259D01*
Y135231D01*
Y135216D01*
X413193Y135027D01*
X413207Y134844D01*
X413235Y134675D01*
X413270Y134513D01*
X413312Y134365D01*
X413362Y134231D01*
X413411Y134105D01*
X413460Y133992D01*
X413509Y133894D01*
X413559Y133802D01*
X413608Y133732D01*
X413650Y133669D01*
X413685Y133619D01*
X413713Y133584D01*
X413728Y133563D01*
X413735Y133556D01*
X413840Y133450D01*
X413946Y133359D01*
X414058Y133275D01*
X414164Y133204D01*
X414276Y133148D01*
X414382Y133099D01*
X414487Y133056D01*
X414586Y133028D01*
X414684Y133000D01*
X414769Y132986D01*
X414846Y132972D01*
X414910Y132958D01*
X414959D01*
X415001Y132951D01*
X415036D01*
X415226Y132965D01*
X415409Y132993D01*
X415578Y133042D01*
X415726Y133099D01*
X415796Y133120D01*
X415852Y133148D01*
X415902Y133176D01*
X415944Y133197D01*
X415979Y133211D01*
X416007Y133225D01*
X416021Y133239D01*
X416028D01*
X416190Y133359D01*
X416338Y133500D01*
X416465Y133640D01*
X416563Y133781D01*
X416647Y133908D01*
X416676Y133957D01*
X416704Y134006D01*
X416725Y134042D01*
X416739Y134077D01*
X416753Y134091D01*
Y134098D01*
X416837Y134316D01*
X416901Y134527D01*
X416950Y134724D01*
X416978Y134907D01*
X416992Y134984D01*
X416999Y135062D01*
X417006Y135125D01*
Y135181D01*
X417013Y135224D01*
Y135259D01*
Y135280D01*
Y135287D01*
X417006Y135456D01*
X416992Y135618D01*
X416964Y135772D01*
X416922Y135920D01*
X416880Y136054D01*
X416837Y136180D01*
X416781Y136293D01*
X416732Y136398D01*
X416683Y136490D01*
X416626Y136574D01*
X416584Y136645D01*
X416535Y136701D01*
X416500Y136743D01*
X416471Y136778D01*
X416457Y136799D01*
X416450Y136806D01*
X416345Y136912D01*
X416232Y136996D01*
X416113Y137081D01*
X416000Y137144D01*
X415881Y137200D01*
X415768Y137250D01*
X415655Y137285D01*
X415550Y137320D01*
X415451Y137341D01*
X415367Y137362D01*
X415283Y137369D01*
X415212Y137383D01*
X415156D01*
X415114Y137390D01*
D02*
G37*
G36*
X162944Y115516D02*
X158554D01*
Y112463D01*
X162944Y115516D01*
D02*
G37*
%LPD*%
D12*
X188268Y192255D02*
X217732D01*
X188268Y175745D02*
X217732D01*
D13*
X382750Y103250D02*
Y116750D01*
X397250Y103250D02*
Y116750D01*
X412750Y103250D02*
Y116750D01*
X427250Y103250D02*
Y116750D01*
X427250Y43250D02*
Y56750D01*
X412750Y43250D02*
Y56750D01*
X397250Y43250D02*
Y56750D01*
X382750Y43250D02*
Y56750D01*
X167250Y73250D02*
Y86750D01*
X152750Y73250D02*
Y86750D01*
X137250Y73250D02*
Y86750D01*
X122750Y73250D02*
Y86750D01*
X107250Y73250D02*
Y86750D01*
X92750Y73250D02*
Y86750D01*
M02*
