G04*
G04 #@! TF.GenerationSoftware,Altium Limited,Altium Designer,23.4.1 (23)*
G04*
G04 Layer_Color=16711935*
%FSLAX44Y44*%
%MOMM*%
G71*
G04*
G04 #@! TF.SameCoordinates,784DB819-4BFE-4B82-8429-40DAF9DCB5A1*
G04*
G04*
G04 #@! TF.FilePolarity,Negative*
G04*
G01*
G75*
%ADD13C,0.2000*%
%ADD24C,1.5000*%
%ADD25C,1.0000*%
%ADD26C,0.3000*%
%ADD27C,0.2500*%
%ADD28C,0.5000*%
%ADD39R,3.2032X3.2032*%
%ADD40C,3.2032*%
%ADD41C,4.2000*%
%ADD42C,4.2032*%
%ADD48R,1.3208X0.8128*%
%ADD49R,1.8542X0.9398*%
G04:AMPARAMS|DCode=50|XSize=1.2032mm|YSize=2.0032mm|CornerRadius=0.1516mm|HoleSize=0mm|Usage=FLASHONLY|Rotation=270.000|XOffset=0mm|YOffset=0mm|HoleType=Round|Shape=RoundedRectangle|*
%AMROUNDEDRECTD50*
21,1,1.2032,1.7000,0,0,270.0*
21,1,0.9000,2.0032,0,0,270.0*
1,1,0.3032,-0.8500,-0.4500*
1,1,0.3032,-0.8500,0.4500*
1,1,0.3032,0.8500,0.4500*
1,1,0.3032,0.8500,-0.4500*
%
%ADD50ROUNDEDRECTD50*%
D13*
X56000Y236000D02*
G03*
X40000Y220000I0J-16000D01*
G01*
X20000Y200000D02*
G03*
X4000Y184000I0J-16000D01*
G01*
Y36000D02*
G03*
X20000Y20000I16000J0D01*
G01*
X40000Y0D02*
G03*
X56000Y-16000I16000J0D01*
G01*
X494000D02*
G03*
X510000Y0I0J16000D01*
G01*
X530000Y20000D02*
G03*
X546000Y36000I0J16000D01*
G01*
X510000Y220000D02*
G03*
X494000Y236000I-16000J0D01*
G01*
X546000Y184000D02*
G03*
X530000Y200000I-16000J0D01*
G01*
X510000Y220000D02*
Y240000D01*
D24*
X550000Y215000D02*
G03*
X525000Y240000I-25000J0D01*
G01*
Y-20000D02*
G03*
X550000Y5000I0J25000D01*
G01*
X0D02*
G03*
X25000Y-20000I25000J0D01*
G01*
Y240000D02*
G03*
X0Y215000I0J-25000D01*
G01*
D25*
X550000Y5000D02*
Y215000D01*
X25000Y-20000D02*
X525000D01*
X0Y5000D02*
Y215000D01*
X25000Y240000D02*
X525000D01*
D26*
X514000Y232000D02*
Y236000D01*
D27*
X512000Y229000D02*
Y237000D01*
X540000Y204000D02*
X548000D01*
D28*
X544621Y198722D02*
Y200128D01*
X547000Y192000D02*
Y192051D01*
X541857Y200451D02*
X544000Y202594D01*
X37000Y232000D02*
X38625Y230375D01*
X32000Y235000D02*
X46059D01*
X38625Y227566D02*
X46059Y235000D01*
X1818Y203818D02*
X14818D01*
X5000Y198725D02*
X7819Y201544D01*
X5000Y194000D02*
Y198725D01*
Y194000D02*
X14818Y203818D01*
X5000Y13000D02*
Y27000D01*
X8000Y18000D02*
X13000D01*
X5000Y26000D02*
X13000Y18000D01*
X36000Y-18000D02*
Y-5000D01*
X39000Y-12000D02*
X42000Y-15000D01*
X36000Y-5000D02*
X46000Y-15000D01*
X503000Y-15000D02*
X517000D01*
X512000Y-12000D02*
Y-7000D01*
X504000Y-15000D02*
X512000Y-7000D01*
X535918Y16486D02*
X549486D01*
X543000Y19000D02*
X546000Y22000D01*
X535918Y16486D02*
X546000Y26569D01*
X503000Y236000D02*
X508000D01*
X503000D02*
X511000Y228000D01*
X538600Y200451D02*
X541857D01*
X538600D02*
X547000Y192051D01*
D39*
X40000Y105000D02*
D03*
X510000D02*
D03*
D40*
X40000Y55000D02*
D03*
X510000D02*
D03*
D41*
X20000Y220000D02*
D03*
D42*
X530000Y0D02*
D03*
Y220000D02*
D03*
X20000Y0D02*
D03*
D48*
X190554Y184000D02*
D03*
D49*
X212779D02*
D03*
D50*
X390000Y95000D02*
D03*
Y125000D02*
D03*
X420000Y95000D02*
D03*
Y125000D02*
D03*
X420000Y65000D02*
D03*
Y35000D02*
D03*
X390000Y65000D02*
D03*
Y35000D02*
D03*
X160000Y95000D02*
D03*
Y65000D02*
D03*
X130000Y95000D02*
D03*
Y65000D02*
D03*
X100000Y95000D02*
D03*
Y65000D02*
D03*
M02*
