G04*
G04 #@! TF.GenerationSoftware,Altium Limited,Altium Designer,23.4.1 (23)*
G04*
G04 Layer_Physical_Order=3*
G04 Layer_Color=16440176*
%FSLAX44Y44*%
%MOMM*%
G71*
G04*
G04 #@! TF.SameCoordinates,D8EC2F4E-BF9A-46B1-9C30-41DC9E0D0BA1*
G04*
G04*
G04 #@! TF.FilePolarity,Positive*
G04*
G01*
G75*
%ADD10C,0.5000*%
%ADD35C,4.0000*%
%ADD36C,0.5000*%
G36*
X203000Y248000D02*
X203000Y128000D01*
X201000Y126000D01*
X2000Y126000D01*
X0Y128000D01*
Y229000D01*
X-0Y231068D01*
X807Y235126D01*
X2390Y238947D01*
X4688Y242387D01*
X7613Y245312D01*
X11053Y247610D01*
X14875Y249193D01*
X18932Y250000D01*
X21000Y250000D01*
X21000Y250000D01*
X201000D01*
X203000Y248000D01*
D02*
G37*
G36*
X339998Y250000D02*
X339998Y250000D01*
X341968Y250000D01*
X345832Y249231D01*
X349472Y247724D01*
X352748Y245534D01*
X355535Y242749D01*
X357724Y239472D01*
X359231Y235832D01*
X360000Y231968D01*
X360000Y229998D01*
X360000Y20001D01*
X360000Y20001D01*
X360000Y18031D01*
X359231Y14167D01*
X357724Y10527D01*
X355535Y7251D01*
X352749Y4465D01*
X349473Y2276D01*
X345833Y769D01*
X341969Y-0D01*
X339999Y0D01*
X21000D01*
X18932Y-0D01*
X14874Y807D01*
X11053Y2390D01*
X7613Y4688D01*
X4688Y7613D01*
X2390Y11053D01*
X807Y14875D01*
X-0Y18932D01*
X-0Y21000D01*
Y122000D01*
X2000Y124000D01*
X199995Y124000D01*
X211168Y112828D01*
Y104827D01*
X211241Y104458D01*
Y104081D01*
X211385Y103733D01*
X211458Y103364D01*
X211668Y103050D01*
X211812Y102703D01*
X212078Y102436D01*
X212287Y102123D01*
X212600Y101914D01*
X212867Y101648D01*
X213215Y101504D01*
X213528Y101294D01*
X213897Y101221D01*
X214245Y101077D01*
X214622D01*
X214991Y101003D01*
X215360Y101077D01*
X215737D01*
X216085Y101221D01*
X216454Y101294D01*
X216767Y101504D01*
X217115Y101648D01*
X217381Y101914D01*
X217695Y102123D01*
X217904Y102436D01*
X218170Y102703D01*
X218314Y103050D01*
X218523Y103364D01*
X218597Y103733D01*
X218741Y104081D01*
Y104458D01*
X218814Y104827D01*
Y114412D01*
X218814Y114412D01*
X218523Y115875D01*
X217695Y117115D01*
X217694Y117115D01*
X205000Y129810D01*
Y248000D01*
X207000Y250000D01*
X339998D01*
X339998Y250000D01*
D02*
G37*
%LPC*%
G36*
X92093Y246250D02*
X87907D01*
X83802Y245433D01*
X79934Y243832D01*
X76454Y241506D01*
X73494Y238546D01*
X71168Y235066D01*
X69567Y231198D01*
X68750Y227093D01*
Y222907D01*
X69567Y218802D01*
X71168Y214934D01*
X73494Y211454D01*
X76454Y208494D01*
X79934Y206168D01*
X83802Y204567D01*
X87907Y203750D01*
X92093D01*
X96198Y204567D01*
X100066Y206168D01*
X103546Y208494D01*
X106506Y211454D01*
X108832Y214934D01*
X110433Y218802D01*
X111250Y222907D01*
Y227093D01*
X110433Y231198D01*
X108832Y235066D01*
X106506Y238546D01*
X103546Y241506D01*
X100066Y243832D01*
X96198Y245433D01*
X92093Y246250D01*
D02*
G37*
G36*
X131565Y204436D02*
X130073D01*
X128694Y203866D01*
X127640Y202811D01*
X127069Y201432D01*
Y199940D01*
X127640Y198562D01*
X128694Y197507D01*
X130073Y196936D01*
X131565D01*
X132943Y197507D01*
X133998Y198562D01*
X134569Y199940D01*
Y201432D01*
X133998Y202811D01*
X132943Y203866D01*
X131565Y204436D01*
D02*
G37*
G36*
X160235Y153788D02*
X158743D01*
X157364Y153217D01*
X156309Y152163D01*
X155739Y150784D01*
Y149292D01*
X156309Y147914D01*
X157364Y146859D01*
X158743Y146288D01*
X160235D01*
X161613Y146859D01*
X162668Y147914D01*
X163239Y149292D01*
Y150784D01*
X162668Y152163D01*
X161613Y153217D01*
X160235Y153788D01*
D02*
G37*
G36*
X186746Y142750D02*
X185254D01*
X183876Y142179D01*
X182821Y141124D01*
X182250Y139746D01*
Y138254D01*
X182821Y136876D01*
X183876Y135821D01*
X185254Y135250D01*
X186746D01*
X188124Y135821D01*
X189179Y136876D01*
X189750Y138254D01*
Y139746D01*
X189179Y141124D01*
X188124Y142179D01*
X186746Y142750D01*
D02*
G37*
G36*
X144746Y141750D02*
X143254D01*
X141876Y141179D01*
X140821Y140124D01*
X140250Y138746D01*
Y137254D01*
X140821Y135876D01*
X141876Y134821D01*
X143254Y134250D01*
X144746D01*
X146124Y134821D01*
X147179Y135876D01*
X147750Y137254D01*
Y138746D01*
X147179Y140124D01*
X146124Y141179D01*
X144746Y141750D01*
D02*
G37*
G36*
X231746Y241712D02*
X230254D01*
X228876Y241141D01*
X227821Y240087D01*
X227250Y238708D01*
Y237216D01*
X227821Y235838D01*
X228876Y234783D01*
X230254Y234212D01*
X231746D01*
X233124Y234783D01*
X234179Y235838D01*
X234750Y237216D01*
Y238708D01*
X234179Y240087D01*
X233124Y241141D01*
X231746Y241712D01*
D02*
G37*
G36*
Y222750D02*
X230254D01*
X228876Y222179D01*
X227821Y221124D01*
X227250Y219746D01*
Y218254D01*
X227821Y216876D01*
X228876Y215821D01*
X230254Y215250D01*
X231746D01*
X233124Y215821D01*
X234179Y216876D01*
X234750Y218254D01*
Y219746D01*
X234179Y221124D01*
X233124Y222179D01*
X231746Y222750D01*
D02*
G37*
G36*
X337092Y246250D02*
X332906D01*
X328801Y245433D01*
X324933Y243831D01*
X321453Y241506D01*
X318493Y238546D01*
X316167Y235065D01*
X314566Y231198D01*
X313749Y227092D01*
Y222907D01*
X314566Y218801D01*
X316167Y214934D01*
X318493Y211453D01*
X321453Y208494D01*
X324933Y206168D01*
X328801Y204566D01*
X332906Y203750D01*
X337092D01*
X341197Y204566D01*
X345065Y206168D01*
X348545Y208494D01*
X351505Y211453D01*
X353830Y214934D01*
X355432Y218801D01*
X356249Y222907D01*
Y227092D01*
X355432Y231198D01*
X353830Y235065D01*
X351505Y238546D01*
X348545Y241506D01*
X345065Y243831D01*
X341197Y245433D01*
X337092Y246250D01*
D02*
G37*
G36*
X231746Y203650D02*
X230254D01*
X228876Y203079D01*
X227821Y202024D01*
X227250Y200646D01*
Y199154D01*
X227821Y197776D01*
X228876Y196721D01*
X230254Y196150D01*
X231746D01*
X233124Y196721D01*
X234179Y197776D01*
X234750Y199154D01*
Y200646D01*
X234179Y202024D01*
X233124Y203079D01*
X231746Y203650D01*
D02*
G37*
G36*
X323746Y197000D02*
X322254D01*
X320876Y196429D01*
X319821Y195374D01*
X319250Y193996D01*
Y192504D01*
X319821Y191126D01*
X320876Y190071D01*
X322254Y189500D01*
X323746D01*
X325124Y190071D01*
X326179Y191126D01*
X326750Y192504D01*
Y193996D01*
X326179Y195374D01*
X325124Y196429D01*
X323746Y197000D01*
D02*
G37*
G36*
X243746Y194750D02*
X242254D01*
X240876Y194179D01*
X239821Y193124D01*
X239250Y191746D01*
Y190254D01*
X239821Y188876D01*
X240876Y187821D01*
X242254Y187250D01*
X243746D01*
X245124Y187821D01*
X246179Y188876D01*
X246750Y190254D01*
Y191746D01*
X246179Y193124D01*
X245124Y194179D01*
X243746Y194750D01*
D02*
G37*
G36*
X254746Y153750D02*
X253254D01*
X251876Y153179D01*
X250821Y152124D01*
X250250Y150746D01*
Y149254D01*
X250821Y147876D01*
X251876Y146821D01*
X253254Y146250D01*
X254746D01*
X256124Y146821D01*
X257179Y147876D01*
X257750Y149254D01*
Y150746D01*
X257179Y152124D01*
X256124Y153179D01*
X254746Y153750D01*
D02*
G37*
G36*
X350746Y151750D02*
X349254D01*
X347876Y151179D01*
X346821Y150124D01*
X346250Y148746D01*
Y147254D01*
X346821Y145876D01*
X347876Y144821D01*
X349254Y144250D01*
X350746D01*
X352124Y144821D01*
X353179Y145876D01*
X353750Y147254D01*
Y148746D01*
X353179Y150124D01*
X352124Y151179D01*
X350746Y151750D01*
D02*
G37*
G36*
X340746D02*
X339254D01*
X337876Y151179D01*
X336821Y150124D01*
X336250Y148746D01*
Y147254D01*
X336821Y145876D01*
X337876Y144821D01*
X339254Y144250D01*
X340746D01*
X342124Y144821D01*
X343179Y145876D01*
X343750Y147254D01*
Y148746D01*
X343179Y150124D01*
X342124Y151179D01*
X340746Y151750D01*
D02*
G37*
G36*
X330746D02*
X329254D01*
X327876Y151179D01*
X326821Y150124D01*
X326250Y148746D01*
Y147254D01*
X326821Y145876D01*
X327876Y144821D01*
X329254Y144250D01*
X330746D01*
X332124Y144821D01*
X333179Y145876D01*
X333750Y147254D01*
Y148746D01*
X333179Y150124D01*
X332124Y151179D01*
X330746Y151750D01*
D02*
G37*
G36*
X320746D02*
X319254D01*
X317876Y151179D01*
X316821Y150124D01*
X316250Y148746D01*
Y147254D01*
X316821Y145876D01*
X317876Y144821D01*
X319254Y144250D01*
X320746D01*
X322124Y144821D01*
X323179Y145876D01*
X323750Y147254D01*
Y148746D01*
X323179Y150124D01*
X322124Y151179D01*
X320746Y151750D01*
D02*
G37*
G36*
X310746D02*
X309254D01*
X307876Y151179D01*
X306821Y150124D01*
X306250Y148746D01*
Y147254D01*
X306821Y145876D01*
X307876Y144821D01*
X309254Y144250D01*
X310746D01*
X312124Y144821D01*
X313179Y145876D01*
X313750Y147254D01*
Y148746D01*
X313179Y150124D01*
X312124Y151179D01*
X310746Y151750D01*
D02*
G37*
G36*
X300746D02*
X299254D01*
X297876Y151179D01*
X296821Y150124D01*
X296250Y148746D01*
Y147254D01*
X296821Y145876D01*
X297876Y144821D01*
X299254Y144250D01*
X300746D01*
X302124Y144821D01*
X303179Y145876D01*
X303750Y147254D01*
Y148746D01*
X303179Y150124D01*
X302124Y151179D01*
X300746Y151750D01*
D02*
G37*
G36*
X290746D02*
X289254D01*
X287876Y151179D01*
X286821Y150124D01*
X286250Y148746D01*
Y147254D01*
X286821Y145876D01*
X287876Y144821D01*
X289254Y144250D01*
X290746D01*
X292124Y144821D01*
X293179Y145876D01*
X293750Y147254D01*
Y148746D01*
X293179Y150124D01*
X292124Y151179D01*
X290746Y151750D01*
D02*
G37*
G36*
X280746D02*
X279254D01*
X277876Y151179D01*
X276821Y150124D01*
X276250Y148746D01*
Y147254D01*
X276821Y145876D01*
X277876Y144821D01*
X279254Y144250D01*
X280746D01*
X282124Y144821D01*
X283179Y145876D01*
X283750Y147254D01*
Y148746D01*
X283179Y150124D01*
X282124Y151179D01*
X280746Y151750D01*
D02*
G37*
G36*
X350746Y135750D02*
X349254D01*
X347876Y135179D01*
X346821Y134124D01*
X346250Y132746D01*
Y131254D01*
X346821Y129876D01*
X347876Y128821D01*
X349254Y128250D01*
X350746D01*
X352124Y128821D01*
X353179Y129876D01*
X353750Y131254D01*
Y132746D01*
X353179Y134124D01*
X352124Y135179D01*
X350746Y135750D01*
D02*
G37*
G36*
X340746D02*
X339254D01*
X337876Y135179D01*
X336821Y134124D01*
X336250Y132746D01*
Y131254D01*
X336821Y129876D01*
X337876Y128821D01*
X339254Y128250D01*
X340746D01*
X342124Y128821D01*
X343179Y129876D01*
X343750Y131254D01*
Y132746D01*
X343179Y134124D01*
X342124Y135179D01*
X340746Y135750D01*
D02*
G37*
G36*
X330746D02*
X329254D01*
X327876Y135179D01*
X326821Y134124D01*
X326250Y132746D01*
Y131254D01*
X326821Y129876D01*
X327876Y128821D01*
X329254Y128250D01*
X330746D01*
X332124Y128821D01*
X333179Y129876D01*
X333750Y131254D01*
Y132746D01*
X333179Y134124D01*
X332124Y135179D01*
X330746Y135750D01*
D02*
G37*
G36*
X320746D02*
X319254D01*
X317876Y135179D01*
X316821Y134124D01*
X316250Y132746D01*
Y131254D01*
X316821Y129876D01*
X317876Y128821D01*
X319254Y128250D01*
X320746D01*
X322124Y128821D01*
X323179Y129876D01*
X323750Y131254D01*
Y132746D01*
X323179Y134124D01*
X322124Y135179D01*
X320746Y135750D01*
D02*
G37*
G36*
X310746D02*
X309254D01*
X307876Y135179D01*
X306821Y134124D01*
X306250Y132746D01*
Y131254D01*
X306821Y129876D01*
X307876Y128821D01*
X309254Y128250D01*
X310746D01*
X312124Y128821D01*
X313179Y129876D01*
X313750Y131254D01*
Y132746D01*
X313179Y134124D01*
X312124Y135179D01*
X310746Y135750D01*
D02*
G37*
G36*
X300746D02*
X299254D01*
X297876Y135179D01*
X296821Y134124D01*
X296250Y132746D01*
Y131254D01*
X296821Y129876D01*
X297876Y128821D01*
X299254Y128250D01*
X300746D01*
X302124Y128821D01*
X303179Y129876D01*
X303750Y131254D01*
Y132746D01*
X303179Y134124D01*
X302124Y135179D01*
X300746Y135750D01*
D02*
G37*
G36*
X290746D02*
X289254D01*
X287876Y135179D01*
X286821Y134124D01*
X286250Y132746D01*
Y131254D01*
X286821Y129876D01*
X287876Y128821D01*
X289254Y128250D01*
X290746D01*
X292124Y128821D01*
X293179Y129876D01*
X293750Y131254D01*
Y132746D01*
X293179Y134124D01*
X292124Y135179D01*
X290746Y135750D01*
D02*
G37*
G36*
X280746D02*
X279254D01*
X277876Y135179D01*
X276821Y134124D01*
X276250Y132746D01*
Y131254D01*
X276821Y129876D01*
X277876Y128821D01*
X279254Y128250D01*
X280746D01*
X282124Y128821D01*
X283179Y129876D01*
X283750Y131254D01*
Y132746D01*
X283179Y134124D01*
X282124Y135179D01*
X280746Y135750D01*
D02*
G37*
G36*
X188746Y107750D02*
X187254D01*
X185876Y107179D01*
X184821Y106124D01*
X184250Y104746D01*
Y103254D01*
X184821Y101876D01*
X185876Y100821D01*
X187254Y100250D01*
X188746D01*
X190124Y100821D01*
X191179Y101876D01*
X191750Y103254D01*
Y104746D01*
X191179Y106124D01*
X190124Y107179D01*
X188746Y107750D01*
D02*
G37*
G36*
X172746Y75750D02*
X171254D01*
X169876Y75179D01*
X168821Y74124D01*
X168250Y72746D01*
Y71254D01*
X168821Y69876D01*
X169876Y68821D01*
X171254Y68250D01*
X172746D01*
X174124Y68821D01*
X175179Y69876D01*
X175750Y71254D01*
Y72746D01*
X175179Y74124D01*
X174124Y75179D01*
X172746Y75750D01*
D02*
G37*
G36*
X202746Y53750D02*
X201254D01*
X199876Y53179D01*
X198821Y52124D01*
X198250Y50746D01*
Y49254D01*
X198821Y47876D01*
X199876Y46821D01*
X201254Y46250D01*
X202746D01*
X204124Y46821D01*
X205179Y47876D01*
X205750Y49254D01*
Y50746D01*
X205179Y52124D01*
X204124Y53179D01*
X202746Y53750D01*
D02*
G37*
%LPD*%
D10*
X214991Y104827D02*
Y114412D01*
X195000Y134403D02*
X214991Y114412D01*
X195000Y134403D02*
Y175000D01*
D35*
X269999Y24999D02*
D03*
X334999D02*
D03*
X270000Y225000D02*
D03*
X24999Y225000D02*
D03*
X25000Y25000D02*
D03*
X89999Y24999D02*
D03*
D36*
X214991Y104827D02*
D03*
X158000Y115000D02*
D03*
X210000Y25000D02*
D03*
X220000D02*
D03*
Y15000D02*
D03*
X210000D02*
D03*
X200000D02*
D03*
Y25000D02*
D03*
Y35000D02*
D03*
X210000D02*
D03*
X220000D02*
D03*
X230000D02*
D03*
Y25000D02*
D03*
Y15000D02*
D03*
Y5000D02*
D03*
X220000D02*
D03*
X210000D02*
D03*
X200000D02*
D03*
X175000Y175000D02*
D03*
Y185000D02*
D03*
X185000D02*
D03*
Y175000D02*
D03*
X195000D02*
D03*
Y185000D02*
D03*
Y195000D02*
D03*
X185000D02*
D03*
X175000D02*
D03*
X165000D02*
D03*
Y185000D02*
D03*
Y175000D02*
D03*
X155000D02*
D03*
Y185000D02*
D03*
Y195000D02*
D03*
X50000Y102000D02*
D03*
X50000Y148000D02*
D03*
X340000Y102000D02*
D03*
X350000D02*
D03*
X320000D02*
D03*
X330000D02*
D03*
X300000D02*
D03*
X310000D02*
D03*
X280000D02*
D03*
X290000D02*
D03*
X290000Y118000D02*
D03*
X280000D02*
D03*
X310000D02*
D03*
X300000D02*
D03*
X330000D02*
D03*
X320000D02*
D03*
X350000D02*
D03*
X340000D02*
D03*
X20000Y132000D02*
D03*
X10000D02*
D03*
X40000D02*
D03*
X30000D02*
D03*
X60000D02*
D03*
X50000D02*
D03*
X80000D02*
D03*
X70000D02*
D03*
X70000Y118000D02*
D03*
X80000D02*
D03*
X50000D02*
D03*
X60000D02*
D03*
X30000D02*
D03*
X40000D02*
D03*
X10000D02*
D03*
X20000D02*
D03*
X20000Y102000D02*
D03*
X10000D02*
D03*
X40000D02*
D03*
X30000D02*
D03*
X60000D02*
D03*
X80000D02*
D03*
X70000D02*
D03*
X70000Y148000D02*
D03*
X80000D02*
D03*
X60000D02*
D03*
X40000D02*
D03*
X20000D02*
D03*
X10000D02*
D03*
X30000D02*
D03*
M02*
