G04*
G04 #@! TF.GenerationSoftware,Altium Limited,Altium Designer,23.4.1 (23)*
G04*
G04 Layer_Physical_Order=4*
G04 Layer_Color=16711680*
%FSLAX44Y44*%
%MOMM*%
G71*
G04*
G04 #@! TF.SameCoordinates,784DB819-4BFE-4B82-8429-40DAF9DCB5A1*
G04*
G04*
G04 #@! TF.FilePolarity,Positive*
G04*
G01*
G75*
%ADD13C,0.2000*%
%ADD28C,0.5000*%
%ADD43R,3.0000X3.0000*%
%ADD44C,3.0000*%
%ADD45C,4.0000*%
%ADD46C,0.5000*%
G04:AMPARAMS|DCode=47|XSize=1mm|YSize=1.8mm|CornerRadius=0.05mm|HoleSize=0mm|Usage=FLASHONLY|Rotation=270.000|XOffset=0mm|YOffset=0mm|HoleType=Round|Shape=RoundedRectangle|*
%AMROUNDEDRECTD47*
21,1,1.0000,1.7000,0,0,270.0*
21,1,0.9000,1.8000,0,0,270.0*
1,1,0.1000,-0.8500,-0.4500*
1,1,0.1000,-0.8500,0.4500*
1,1,0.1000,0.8500,0.4500*
1,1,0.1000,0.8500,-0.4500*
%
%ADD47ROUNDEDRECTD47*%
%ADD48R,1.3208X0.8128*%
%ADD49R,1.8542X0.9398*%
G36*
X537292Y244039D02*
X541842Y242155D01*
X545937Y239419D01*
X549419Y235937D01*
X552155Y231842D01*
X554039Y227292D01*
X555000Y222462D01*
Y220000D01*
Y0D01*
Y-2462D01*
X554039Y-7292D01*
X552155Y-11842D01*
X549419Y-15937D01*
X545937Y-19419D01*
X541842Y-22155D01*
X537292Y-24039D01*
X532462Y-25000D01*
X17538D01*
X12708Y-24039D01*
X8158Y-22155D01*
X4063Y-19419D01*
X581Y-15937D01*
X-2155Y-11842D01*
X-4039Y-7292D01*
X-5000Y-2462D01*
Y0D01*
Y220000D01*
Y222462D01*
X-4039Y227292D01*
X-2155Y231842D01*
X581Y235937D01*
X4063Y239419D01*
X8158Y242155D01*
X12708Y244039D01*
X17538Y245000D01*
X532462D01*
X537292Y244039D01*
D02*
G37*
%LPC*%
G36*
X190500Y231324D02*
X190131Y231250D01*
X189754D01*
X189406Y231106D01*
X189037Y231032D01*
X188724Y230823D01*
X188376Y230679D01*
X188110Y230413D01*
X187796Y230204D01*
X187587Y229890D01*
X187321Y229624D01*
X187177Y229276D01*
X186968Y228963D01*
X186894Y228594D01*
X186750Y228246D01*
Y227869D01*
X186677Y227500D01*
Y196500D01*
X186968Y195037D01*
X187796Y193796D01*
X188296Y193296D01*
X188610Y193087D01*
X188876Y192821D01*
X189224Y192677D01*
X189537Y192468D01*
X189906Y192394D01*
X190254Y192250D01*
X190631D01*
X191000Y192177D01*
X191369Y192250D01*
X191746D01*
X192094Y192394D01*
X192463Y192468D01*
X192776Y192677D01*
X193124Y192821D01*
X193390Y193087D01*
X193704Y193296D01*
X193913Y193610D01*
X194179Y193876D01*
X194323Y194224D01*
X194532Y194537D01*
X194606Y194906D01*
X194750Y195254D01*
Y195631D01*
X194823Y196000D01*
X194750Y196369D01*
Y196746D01*
X194606Y197094D01*
X194532Y197463D01*
X194324Y197776D01*
Y227500D01*
X194250Y227869D01*
Y228246D01*
X194106Y228594D01*
X194032Y228963D01*
X193823Y229276D01*
X193679Y229624D01*
X193413Y229890D01*
X193204Y230204D01*
X192890Y230413D01*
X192624Y230679D01*
X192276Y230823D01*
X191963Y231032D01*
X191594Y231106D01*
X191246Y231250D01*
X190869D01*
X190500Y231324D01*
D02*
G37*
G36*
X213000Y225823D02*
X212631Y225750D01*
X212254D01*
X211906Y225606D01*
X211537Y225532D01*
X211224Y225323D01*
X210876Y225179D01*
X210610Y224913D01*
X210296Y224704D01*
X210087Y224391D01*
X209821Y224124D01*
X209677Y223776D01*
X209468Y223463D01*
X209394Y223094D01*
X209250Y222746D01*
Y222369D01*
X209177Y222000D01*
Y206584D01*
X191954Y189362D01*
X191923Y189314D01*
X189359D01*
X188990Y189387D01*
X187020D01*
X184704Y191704D01*
X184390Y191913D01*
X184124Y192179D01*
X183776Y192323D01*
X183463Y192532D01*
X183094Y192606D01*
X182746Y192750D01*
X182369D01*
X182000Y192824D01*
X181631Y192750D01*
X181254D01*
X180906Y192606D01*
X180537Y192532D01*
X180224Y192323D01*
X179876Y192179D01*
X179610Y191913D01*
X179296Y191704D01*
X179087Y191390D01*
X178821Y191124D01*
X178677Y190776D01*
X178468Y190463D01*
X178394Y190094D01*
X178250Y189746D01*
Y189369D01*
X178176Y189000D01*
X178250Y188631D01*
Y188254D01*
X178394Y187906D01*
X178468Y187537D01*
X178677Y187224D01*
X178821Y186876D01*
X179087Y186610D01*
X179296Y186296D01*
X182700Y182893D01*
Y178686D01*
X198408D01*
Y185001D01*
X201085Y187677D01*
X202258Y187191D01*
Y178051D01*
X223300D01*
Y179796D01*
X224473Y180282D01*
X228706Y176050D01*
Y175009D01*
X227821Y174124D01*
X227250Y172746D01*
Y171254D01*
X227821Y169876D01*
X228133Y169564D01*
X227607Y168294D01*
X181950D01*
X181750Y168494D01*
Y169746D01*
X181179Y171124D01*
X180124Y172179D01*
X178746Y172750D01*
X177254D01*
X175876Y172179D01*
X175564Y171867D01*
X174294Y172393D01*
Y206050D01*
X174494Y206250D01*
X175746D01*
X177124Y206821D01*
X178179Y207876D01*
X178750Y209254D01*
Y210746D01*
X178179Y212124D01*
X177124Y213179D01*
X175746Y213750D01*
X174254D01*
X172876Y213179D01*
X171821Y212124D01*
X171250Y210746D01*
Y209494D01*
X170378Y208622D01*
X169881Y207878D01*
X169706Y207000D01*
Y165000D01*
X169881Y164122D01*
X170378Y163378D01*
X174378Y159378D01*
X175122Y158881D01*
X176000Y158706D01*
X177607D01*
X178133Y157436D01*
X177821Y157124D01*
X177250Y155746D01*
Y154494D01*
X172378Y149622D01*
X171881Y148878D01*
X171706Y148000D01*
Y127004D01*
X170436Y126477D01*
X165957Y130957D01*
X165000Y131353D01*
X20000D01*
X19043Y130957D01*
X14043Y125957D01*
X13647Y125000D01*
Y85000D01*
X14043Y84043D01*
X19043Y79043D01*
X20000Y78647D01*
X165000D01*
X165957Y79043D01*
X170494Y83581D01*
X171869Y83180D01*
X171881Y83122D01*
X172378Y82378D01*
X179878Y74878D01*
X180622Y74380D01*
X181500Y74206D01*
X244491D01*
X245376Y73321D01*
X246754Y72750D01*
X248246D01*
X249624Y73321D01*
X250679Y74376D01*
X251250Y75754D01*
Y77246D01*
X250679Y78624D01*
X249624Y79679D01*
X248246Y80250D01*
X246754D01*
X245376Y79679D01*
X244491Y78794D01*
X182450D01*
X176294Y84950D01*
Y147050D01*
X180494Y151250D01*
X181746D01*
X183124Y151821D01*
X184179Y152876D01*
X184750Y154254D01*
Y155210D01*
X186020Y155736D01*
X188250Y153506D01*
Y152254D01*
X188821Y150876D01*
X189876Y149821D01*
X191254Y149250D01*
X192746D01*
X194124Y149821D01*
X195179Y150876D01*
X195750Y152254D01*
Y153746D01*
X195179Y155124D01*
X194124Y156179D01*
X192746Y156750D01*
X191494D01*
X185808Y162436D01*
X185962Y163177D01*
X186286Y163706D01*
X250328D01*
X251206Y163881D01*
X251949Y164377D01*
X252254Y164250D01*
X253746D01*
X255124Y164821D01*
X256179Y165876D01*
X256750Y167254D01*
Y168746D01*
X256179Y170124D01*
X255124Y171179D01*
X253746Y171750D01*
X252254D01*
X250876Y171179D01*
X249821Y170124D01*
X249250Y168746D01*
Y168294D01*
X234393D01*
X233867Y169564D01*
X234179Y169876D01*
X234750Y171254D01*
Y172746D01*
X234179Y174124D01*
X233294Y175009D01*
Y177000D01*
X233119Y177878D01*
X232622Y178622D01*
X225622Y185622D01*
X224878Y186119D01*
X224000Y186294D01*
X223300D01*
Y189949D01*
X205016D01*
X204529Y191122D01*
X215704Y202296D01*
X216532Y203537D01*
X216824Y205000D01*
Y222000D01*
X216750Y222369D01*
Y222746D01*
X216606Y223094D01*
X216532Y223463D01*
X216323Y223776D01*
X216179Y224124D01*
X215913Y224391D01*
X215704Y224704D01*
X215390Y224913D01*
X215124Y225179D01*
X214776Y225323D01*
X214463Y225532D01*
X214094Y225606D01*
X213746Y225750D01*
X213369D01*
X213000Y225823D01*
D02*
G37*
G36*
X243746Y225750D02*
X242254D01*
X240876Y225179D01*
X239821Y224124D01*
X239250Y222746D01*
Y221254D01*
X239821Y219876D01*
X240706Y218991D01*
Y205000D01*
X240881Y204122D01*
X241378Y203378D01*
X264250Y180506D01*
Y179254D01*
X264821Y177876D01*
X265876Y176821D01*
X267254Y176250D01*
X268746D01*
X270124Y176821D01*
X271179Y177876D01*
X271750Y179254D01*
Y180746D01*
X271179Y182124D01*
X270124Y183179D01*
X268746Y183750D01*
X267494D01*
X245294Y205950D01*
Y218991D01*
X246179Y219876D01*
X246750Y221254D01*
Y222746D01*
X246179Y224124D01*
X245124Y225179D01*
X243746Y225750D01*
D02*
G37*
G36*
X465000Y131353D02*
X464043Y130957D01*
X444440Y111353D01*
X335000Y111353D01*
X334043Y110957D01*
X329043Y105957D01*
X328647Y105000D01*
X328647Y55000D01*
X329043Y54043D01*
X334043Y49043D01*
X335000Y48647D01*
X465000D01*
X465957Y49043D01*
X495560Y78647D01*
X530000D01*
X530957Y79043D01*
X535957Y84043D01*
X536353Y85000D01*
Y125000D01*
X535957Y125957D01*
X530957Y130957D01*
X530000Y131353D01*
X465000Y131353D01*
D02*
G37*
G36*
X206746Y155750D02*
X205254D01*
X203876Y155179D01*
X202821Y154124D01*
X202250Y152746D01*
Y151494D01*
X180128Y129372D01*
X179631Y128628D01*
X179456Y127750D01*
Y93759D01*
X178571Y92874D01*
X178000Y91496D01*
Y90004D01*
X178571Y88626D01*
X179626Y87571D01*
X181004Y87000D01*
X182496D01*
X183874Y87571D01*
X184929Y88626D01*
X185500Y90004D01*
Y91496D01*
X184929Y92874D01*
X184044Y93759D01*
Y126800D01*
X205494Y148250D01*
X206746D01*
X208124Y148821D01*
X209179Y149876D01*
X209750Y151254D01*
Y152746D01*
X209179Y154124D01*
X208124Y155179D01*
X206746Y155750D01*
D02*
G37*
%LPD*%
G36*
X170000Y125000D02*
Y85000D01*
X165000Y80000D01*
X20000D01*
X15000Y85000D01*
Y125000D01*
X20000Y130000D01*
X165000D01*
X170000Y125000D01*
D02*
G37*
G36*
X530000Y130000D02*
X535000Y125000D01*
Y85000D01*
X530000Y80000D01*
X495000D01*
X465000Y50000D01*
X335000D01*
X330000Y55000D01*
X330000Y105000D01*
X335000Y110000D01*
X445000Y110000D01*
X465000Y130000D01*
X530000Y130000D01*
D02*
G37*
D13*
X172000Y207000D02*
X175000Y210000D01*
X172000Y165000D02*
Y207000D01*
Y165000D02*
X176000Y161000D01*
X184000D01*
X192000Y153000D01*
X181750Y90750D02*
Y127750D01*
X206000Y152000D02*
X206000D01*
X181750Y127750D02*
X206000Y152000D01*
X174000Y84000D02*
Y148000D01*
X181000Y155000D01*
X174000Y84000D02*
X181500Y76500D01*
X247500D01*
X181000Y166000D02*
X250328D01*
X252328Y168000D01*
X253000D01*
X243000Y205000D02*
X268000Y180000D01*
X243000Y205000D02*
Y222000D01*
X212779Y184000D02*
X224000D01*
X231000Y172000D02*
Y177000D01*
X224000Y184000D02*
X231000Y177000D01*
X178000Y169000D02*
X181000Y166000D01*
D28*
X194658Y186658D02*
X213000Y205000D01*
Y222000D01*
X185436Y185564D02*
X188990D01*
X182000Y189000D02*
X185436Y185564D01*
X188990D02*
X190554Y184000D01*
X190500Y196500D02*
Y227500D01*
X190554Y184000D02*
X193094D01*
X190500Y196500D02*
X191000Y196000D01*
X193094Y184000D02*
X194658Y185564D01*
Y186658D01*
D43*
X40000Y105000D02*
D03*
X510000D02*
D03*
D44*
X40000Y55000D02*
D03*
X510000D02*
D03*
D45*
X20000Y220000D02*
D03*
X530000Y0D02*
D03*
Y220000D02*
D03*
X20000Y0D02*
D03*
D46*
X70000Y90000D02*
D03*
X85000D02*
D03*
X115000D02*
D03*
X145000D02*
D03*
Y105000D02*
D03*
X130000D02*
D03*
X115000D02*
D03*
X100000D02*
D03*
X85000D02*
D03*
X70000D02*
D03*
Y120000D02*
D03*
X85000D02*
D03*
X100000D02*
D03*
X115000D02*
D03*
X130000D02*
D03*
X145000D02*
D03*
X160000D02*
D03*
Y105000D02*
D03*
X490000Y125000D02*
D03*
Y115000D02*
D03*
Y105000D02*
D03*
Y95000D02*
D03*
Y85000D02*
D03*
X480000Y70000D02*
D03*
Y80000D02*
D03*
Y90000D02*
D03*
Y100000D02*
D03*
Y110000D02*
D03*
Y120000D02*
D03*
X470000Y65000D02*
D03*
Y125000D02*
D03*
Y115000D02*
D03*
Y105000D02*
D03*
Y95000D02*
D03*
Y85000D02*
D03*
Y75000D02*
D03*
X460000D02*
D03*
Y85000D02*
D03*
X450000Y75000D02*
D03*
X440000D02*
D03*
X430000D02*
D03*
X420000D02*
D03*
X410000D02*
D03*
X400000D02*
D03*
X390000D02*
D03*
X450000Y85000D02*
D03*
X440000D02*
D03*
X430000D02*
D03*
X420000D02*
D03*
X410000D02*
D03*
X400000D02*
D03*
X390000D02*
D03*
X380000Y55000D02*
D03*
Y65000D02*
D03*
Y75000D02*
D03*
Y85000D02*
D03*
Y95000D02*
D03*
Y105000D02*
D03*
X370000Y55000D02*
D03*
Y65000D02*
D03*
Y75000D02*
D03*
Y85000D02*
D03*
Y95000D02*
D03*
Y105000D02*
D03*
X360000Y55000D02*
D03*
X350000D02*
D03*
X340000D02*
D03*
X360000Y105000D02*
D03*
X350000D02*
D03*
X340000D02*
D03*
X550000Y20000D02*
D03*
Y200000D02*
D03*
Y170000D02*
D03*
Y140000D02*
D03*
Y110000D02*
D03*
Y80000D02*
D03*
Y50000D02*
D03*
X0D02*
D03*
Y80000D02*
D03*
Y110000D02*
D03*
Y140000D02*
D03*
Y170000D02*
D03*
Y200000D02*
D03*
Y20000D02*
D03*
X50000Y240000D02*
D03*
X500000D02*
D03*
X100000D02*
D03*
X150000D02*
D03*
X200000D02*
D03*
X250000D02*
D03*
X300000D02*
D03*
X350000D02*
D03*
X400000D02*
D03*
X450000D02*
D03*
Y-20000D02*
D03*
X400000D02*
D03*
X350000D02*
D03*
X300000D02*
D03*
X250000D02*
D03*
X200000D02*
D03*
X150000D02*
D03*
X100000D02*
D03*
X500000D02*
D03*
X50000D02*
D03*
X175000Y210000D02*
D03*
X181000Y155000D02*
D03*
X192000Y153000D02*
D03*
X206000Y152000D02*
D03*
X247500Y76500D02*
D03*
X181750Y90750D02*
D03*
X178000Y169000D02*
D03*
X155500Y186500D02*
D03*
X149000Y179000D02*
D03*
X149000Y194000D02*
D03*
X228000Y235000D02*
D03*
X161500Y227500D02*
D03*
X182000Y189000D02*
D03*
X190500Y227500D02*
D03*
X191000Y196000D02*
D03*
X253000Y168000D02*
D03*
X268000Y180000D02*
D03*
X243000Y222000D02*
D03*
X213000D02*
D03*
X231000Y172000D02*
D03*
D47*
X390000Y95000D02*
D03*
Y125000D02*
D03*
X420000Y95000D02*
D03*
Y125000D02*
D03*
X420000Y65000D02*
D03*
Y35000D02*
D03*
X390000Y65000D02*
D03*
Y35000D02*
D03*
X160000Y95000D02*
D03*
Y65000D02*
D03*
X130000Y95000D02*
D03*
Y65000D02*
D03*
X100000Y95000D02*
D03*
Y65000D02*
D03*
D48*
X190554Y184000D02*
D03*
D49*
X212779D02*
D03*
M02*
