G04*
G04 #@! TF.GenerationSoftware,Altium Limited,Altium Designer,23.4.1 (23)*
G04*
G04 Layer_Physical_Order=1*
G04 Layer_Color=255*
%FSLAX44Y44*%
%MOMM*%
G71*
G04*
G04 #@! TF.SameCoordinates,784DB819-4BFE-4B82-8429-40DAF9DCB5A1*
G04*
G04*
G04 #@! TF.FilePolarity,Positive*
G04*
G01*
G75*
%ADD13C,0.2000*%
%ADD14R,1.4986X3.3020*%
%ADD15R,3.0000X3.5000*%
G04:AMPARAMS|DCode=16|XSize=0.85mm|YSize=1.9812mm|CornerRadius=0.0425mm|HoleSize=0mm|Usage=FLASHONLY|Rotation=90.000|XOffset=0mm|YOffset=0mm|HoleType=Round|Shape=RoundedRectangle|*
%AMROUNDEDRECTD16*
21,1,0.8500,1.8962,0,0,90.0*
21,1,0.7650,1.9812,0,0,90.0*
1,1,0.0850,0.9481,0.3825*
1,1,0.0850,0.9481,-0.3825*
1,1,0.0850,-0.9481,-0.3825*
1,1,0.0850,-0.9481,0.3825*
%
%ADD16ROUNDEDRECTD16*%
G04:AMPARAMS|DCode=17|XSize=0.85mm|YSize=1.45mm|CornerRadius=0.0425mm|HoleSize=0mm|Usage=FLASHONLY|Rotation=90.000|XOffset=0mm|YOffset=0mm|HoleType=Round|Shape=RoundedRectangle|*
%AMROUNDEDRECTD17*
21,1,0.8500,1.3650,0,0,90.0*
21,1,0.7650,1.4500,0,0,90.0*
1,1,0.0850,0.6825,0.3825*
1,1,0.0850,0.6825,-0.3825*
1,1,0.0850,-0.6825,-0.3825*
1,1,0.0850,-0.6825,0.3825*
%
%ADD17ROUNDEDRECTD17*%
%ADD18R,1.6000X1.6000*%
%ADD19R,0.2300X0.4800*%
%ADD20R,0.4800X0.2300*%
G04:AMPARAMS|DCode=21|XSize=0.9mm|YSize=0.8mm|CornerRadius=0.06mm|HoleSize=0mm|Usage=FLASHONLY|Rotation=270.000|XOffset=0mm|YOffset=0mm|HoleType=Round|Shape=RoundedRectangle|*
%AMROUNDEDRECTD21*
21,1,0.9000,0.6800,0,0,270.0*
21,1,0.7800,0.8000,0,0,270.0*
1,1,0.1200,-0.3400,-0.3900*
1,1,0.1200,-0.3400,0.3900*
1,1,0.1200,0.3400,0.3900*
1,1,0.1200,0.3400,-0.3900*
%
%ADD21ROUNDEDRECTD21*%
G04:AMPARAMS|DCode=22|XSize=0.8mm|YSize=0.9mm|CornerRadius=0.06mm|HoleSize=0mm|Usage=FLASHONLY|Rotation=0.000|XOffset=0mm|YOffset=0mm|HoleType=Round|Shape=RoundedRectangle|*
%AMROUNDEDRECTD22*
21,1,0.8000,0.7800,0,0,0.0*
21,1,0.6800,0.9000,0,0,0.0*
1,1,0.1200,0.3400,-0.3900*
1,1,0.1200,-0.3400,-0.3900*
1,1,0.1200,-0.3400,0.3900*
1,1,0.1200,0.3400,0.3900*
%
%ADD22ROUNDEDRECTD22*%
G04:AMPARAMS|DCode=23|XSize=0.8mm|YSize=0.9mm|CornerRadius=0.06mm|HoleSize=0mm|Usage=FLASHONLY|Rotation=90.000|XOffset=0mm|YOffset=0mm|HoleType=Round|Shape=RoundedRectangle|*
%AMROUNDEDRECTD23*
21,1,0.8000,0.7800,0,0,90.0*
21,1,0.6800,0.9000,0,0,90.0*
1,1,0.1200,0.3900,0.3400*
1,1,0.1200,0.3900,-0.3400*
1,1,0.1200,-0.3900,-0.3400*
1,1,0.1200,-0.3900,0.3400*
%
%ADD23ROUNDEDRECTD23*%
%ADD28C,0.5000*%
%ADD43R,3.0000X3.0000*%
%ADD44C,3.0000*%
%ADD45C,4.0000*%
%ADD46C,0.5000*%
G36*
X537292Y244039D02*
X541842Y242155D01*
X545937Y239419D01*
X549419Y235937D01*
X552155Y231842D01*
X554039Y227292D01*
X555000Y222462D01*
Y220000D01*
Y0D01*
Y-2462D01*
X554039Y-7292D01*
X552155Y-11842D01*
X549419Y-15937D01*
X545937Y-19419D01*
X541842Y-22155D01*
X537292Y-24039D01*
X532462Y-25000D01*
X17538D01*
X12708Y-24039D01*
X8158Y-22155D01*
X4063Y-19419D01*
X581Y-15937D01*
X-2155Y-11842D01*
X-4039Y-7292D01*
X-5000Y-2462D01*
Y0D01*
Y220000D01*
Y222462D01*
X-4039Y227292D01*
X-2155Y231842D01*
X581Y235937D01*
X4063Y239419D01*
X8158Y242155D01*
X12708Y244039D01*
X17538Y245000D01*
X532462D01*
X537292Y244039D01*
D02*
G37*
%LPC*%
G36*
X276400Y233286D02*
X269600D01*
X268878Y233143D01*
X268266Y232734D01*
X267857Y232122D01*
X267714Y231400D01*
Y230324D01*
X263702D01*
X263643Y230622D01*
X263234Y231234D01*
X262622Y231643D01*
X261900Y231786D01*
X254100D01*
X253378Y231643D01*
X252766Y231234D01*
X252357Y230622D01*
X252214Y229900D01*
Y223100D01*
X252357Y222378D01*
X252766Y221766D01*
X253378Y221357D01*
X254100Y221214D01*
X254818D01*
X256000Y221000D01*
X256000Y219944D01*
X256000Y217000D01*
X254818Y216786D01*
X254100D01*
X253378Y216643D01*
X252766Y216234D01*
X252357Y215622D01*
X252298Y215323D01*
X248702D01*
X248643Y215622D01*
X248234Y216234D01*
X247622Y216643D01*
X246900Y216786D01*
X246181D01*
X245000Y217000D01*
X245000Y218769D01*
X245124Y218821D01*
X246179Y219876D01*
X246733Y221214D01*
X246900D01*
X247622Y221357D01*
X248234Y221766D01*
X248643Y222378D01*
X248786Y223100D01*
Y229900D01*
X248643Y230622D01*
X248234Y231234D01*
X247622Y231643D01*
X246900Y231786D01*
X239100D01*
X238378Y231643D01*
X237766Y231234D01*
X237357Y230622D01*
X237214Y229900D01*
Y223100D01*
X237357Y222378D01*
X237766Y221766D01*
X238378Y221357D01*
X239100Y221214D01*
X239267D01*
X239821Y219876D01*
X240876Y218821D01*
X241000Y218769D01*
X241000Y217000D01*
X239818Y216786D01*
X239100D01*
X238378Y216643D01*
X237766Y216234D01*
X237357Y215622D01*
X237298Y215323D01*
X233008D01*
X232734Y215734D01*
X232122Y216143D01*
X231353Y217000D01*
Y221000D01*
X230956Y221957D01*
X230000Y222353D01*
X226000D01*
X225043Y221957D01*
X224647Y221000D01*
Y217000D01*
X223878Y216143D01*
X223266Y215734D01*
X222857Y215122D01*
X222714Y214400D01*
Y206600D01*
X222857Y205878D01*
X223266Y205266D01*
X223878Y204857D01*
X224600Y204714D01*
X225706D01*
Y195950D01*
X219650Y189894D01*
X212900D01*
Y191250D01*
X208100Y191250D01*
X207794Y192393D01*
Y193550D01*
X214622Y200378D01*
X215119Y201122D01*
X215294Y202000D01*
Y204714D01*
X216400D01*
X217122Y204857D01*
X217734Y205266D01*
X218143Y205878D01*
X218286Y206600D01*
Y214400D01*
X218143Y215122D01*
X217734Y215734D01*
X217122Y216143D01*
X216353Y217000D01*
Y220269D01*
X216532Y220537D01*
X216606Y220906D01*
X216750Y221254D01*
Y221631D01*
X216782Y221790D01*
X217122Y221857D01*
X217734Y222266D01*
X218143Y222878D01*
X218286Y223600D01*
Y231400D01*
X218143Y232122D01*
X217734Y232734D01*
X217122Y233143D01*
X216400Y233286D01*
X209600D01*
X208878Y233143D01*
X208266Y232734D01*
X207857Y232122D01*
X207714Y231400D01*
Y223600D01*
X207857Y222878D01*
X208266Y222266D01*
X208878Y221857D01*
X209218Y221790D01*
X209250Y221631D01*
Y221254D01*
X209394Y220906D01*
X209468Y220537D01*
X209647Y220268D01*
Y217000D01*
X208878Y216143D01*
X208266Y215734D01*
X207857Y215122D01*
X207714Y214400D01*
Y206600D01*
X207857Y205878D01*
X208266Y205266D01*
X208878Y204857D01*
X209600Y204714D01*
X210706D01*
Y202950D01*
X204064Y196308D01*
X203323Y196462D01*
X202794Y196786D01*
Y199500D01*
X202619Y200378D01*
X202122Y201122D01*
X200294Y202950D01*
Y204714D01*
X201400D01*
X202122Y204857D01*
X202734Y205266D01*
X203143Y205878D01*
X203286Y206600D01*
Y214400D01*
X203143Y215122D01*
X202734Y215734D01*
X202122Y216143D01*
X201353Y216999D01*
Y220999D01*
X202122Y221857D01*
X202734Y222266D01*
X203143Y222878D01*
X203286Y223600D01*
Y231400D01*
X203143Y232122D01*
X202734Y232734D01*
X202122Y233143D01*
X201400Y233286D01*
X194600D01*
X193878Y233143D01*
X193266Y232734D01*
X192857Y232122D01*
X192714Y231400D01*
Y231324D01*
X188286D01*
Y231400D01*
X188143Y232122D01*
X187734Y232734D01*
X187122Y233143D01*
X186400Y233286D01*
X179600D01*
X178878Y233143D01*
X178266Y232734D01*
X177857Y232122D01*
X177714Y231400D01*
Y223600D01*
X177857Y222878D01*
X178266Y222266D01*
X178878Y221857D01*
X179647Y220998D01*
Y216998D01*
X178878Y216143D01*
X178266Y215734D01*
X177857Y215122D01*
X177714Y214400D01*
Y213824D01*
X173286D01*
Y214400D01*
X173143Y215122D01*
X172734Y215734D01*
X172122Y216143D01*
X171352Y217000D01*
Y221000D01*
X170956Y221957D01*
X169999Y222353D01*
X165999D01*
X165042Y221957D01*
X164646Y221000D01*
Y217000D01*
X163878Y216143D01*
X163266Y215734D01*
X162857Y215122D01*
X162714Y214400D01*
Y206600D01*
X162764Y206346D01*
X162097Y205264D01*
X161866Y205076D01*
X145593D01*
X144715Y204902D01*
X143971Y204404D01*
X139559Y199992D01*
X139062Y199248D01*
X138887Y198370D01*
Y151353D01*
X20000D01*
X19043Y150957D01*
X14043Y145957D01*
X13647Y145000D01*
Y85000D01*
X14043Y84043D01*
X14043Y84043D01*
X19043Y79043D01*
X20000Y78647D01*
X200000D01*
X200957Y79043D01*
X205957Y84043D01*
X206082Y84345D01*
X206882Y84926D01*
X207553Y84832D01*
X208000Y84647D01*
X208793D01*
X209043Y84043D01*
X214043Y79043D01*
X215000Y78647D01*
X234440D01*
X239043Y74043D01*
X239126Y73771D01*
X239097Y73729D01*
X238967Y73075D01*
Y65425D01*
X239097Y64771D01*
X239432Y64271D01*
X238830Y63237D01*
X238783Y62885D01*
X238647Y62557D01*
Y25000D01*
X239043Y24043D01*
X244043Y19043D01*
X245000Y18647D01*
X310000D01*
X310957Y19043D01*
X315957Y24043D01*
X316353Y25000D01*
Y145000D01*
X315957Y145957D01*
X310957Y150957D01*
X310000Y151353D01*
X275353Y151353D01*
Y162000D01*
X274957Y162957D01*
X273957Y163957D01*
X273000Y164353D01*
X256452D01*
X255926Y165623D01*
X256179Y165876D01*
X256537Y166741D01*
X257122Y166857D01*
X257734Y167266D01*
X258143Y167878D01*
X258286Y168600D01*
Y176400D01*
X258143Y177122D01*
X257734Y177734D01*
X257122Y178143D01*
X256400Y178286D01*
X249600D01*
X248878Y178143D01*
X248266Y177734D01*
X247857Y177122D01*
X247714Y176400D01*
Y168600D01*
X247857Y167878D01*
X248266Y167266D01*
X248878Y166857D01*
X249463Y166741D01*
X249821Y165876D01*
X250074Y165623D01*
X249548Y164353D01*
X221148D01*
X220250Y165251D01*
X220250Y168900D01*
X221393Y169206D01*
X228491D01*
X228876Y168821D01*
X230254Y168250D01*
X231746D01*
X232357Y167378D01*
X232766Y166766D01*
X233378Y166357D01*
X234100Y166214D01*
X241900D01*
X242622Y166357D01*
X243234Y166766D01*
X243643Y167378D01*
X243786Y168100D01*
Y174900D01*
X243643Y175622D01*
X243234Y176234D01*
X242622Y176643D01*
X241900Y176786D01*
X234100D01*
X233378Y176643D01*
X232766Y176234D01*
X232357Y175622D01*
X232225Y175551D01*
X231746Y175750D01*
X230254D01*
X228876Y175179D01*
X227821Y174124D01*
X227684Y173794D01*
X221393D01*
X220250Y174100D01*
X220250Y175170D01*
Y178900D01*
X212950D01*
X212950Y174100D01*
X212950Y172830D01*
X212950Y169100D01*
X212950Y167830D01*
Y164353D01*
X209044D01*
X209000Y164353D01*
X207900Y164050D01*
X207900Y164050D01*
X203100D01*
Y164050D01*
X202900D01*
Y164050D01*
X198100D01*
Y156750D01*
X198206D01*
Y155450D01*
X198050Y155294D01*
X195009D01*
X194124Y156179D01*
X192746Y156750D01*
X191254D01*
X189876Y156179D01*
X188821Y155124D01*
X188250Y153746D01*
Y152254D01*
X187648Y151353D01*
X184452D01*
X183926Y152623D01*
X184179Y152876D01*
X184750Y154254D01*
Y155506D01*
X191022Y161778D01*
X191520Y162522D01*
X191694Y163400D01*
Y164100D01*
X193050D01*
Y168900D01*
X193050D01*
Y169100D01*
X193050D01*
Y172668D01*
X193957Y173043D01*
X194353Y174000D01*
Y182000D01*
X194071Y182680D01*
X194464Y183584D01*
X194760Y183950D01*
X197900D01*
Y183950D01*
X198100D01*
X198100Y183950D01*
X202900Y183950D01*
X204170Y183950D01*
X207900Y183950D01*
X209170Y183950D01*
X212900D01*
Y185306D01*
X220600D01*
X221478Y185481D01*
X222222Y185978D01*
X229622Y193378D01*
X230119Y194122D01*
X230294Y195000D01*
Y204714D01*
X231400D01*
X232122Y204857D01*
X232734Y205266D01*
X233143Y205878D01*
X233286Y206600D01*
Y207677D01*
X237298D01*
X237357Y207378D01*
X237766Y206766D01*
X238378Y206357D01*
X239100Y206214D01*
X246900D01*
X247622Y206357D01*
X248234Y206766D01*
X248643Y207378D01*
X248702Y207677D01*
X252298D01*
X252357Y207378D01*
X252766Y206766D01*
X253378Y206357D01*
X254100Y206214D01*
X261900D01*
X262622Y206357D01*
X263234Y206766D01*
X263643Y207378D01*
X263689Y207610D01*
X267714D01*
Y206600D01*
X267857Y205878D01*
X268266Y205266D01*
X268878Y204857D01*
X269600Y204714D01*
X276400D01*
X277122Y204857D01*
X277734Y205266D01*
X278143Y205878D01*
X278286Y206600D01*
Y214400D01*
X278143Y215122D01*
X277734Y215734D01*
X277122Y216143D01*
X276353Y217000D01*
Y221000D01*
X277122Y221857D01*
X277734Y222266D01*
X278143Y222878D01*
X278286Y223600D01*
Y223676D01*
X281916D01*
X346427Y159166D01*
Y111353D01*
X335000D01*
X334043Y110957D01*
X329043Y105957D01*
X328647Y105000D01*
X328647Y55000D01*
X329043Y54043D01*
X334043Y49043D01*
X335000Y48647D01*
X400257D01*
Y47260D01*
X417743D01*
Y48647D01*
X465000D01*
X465957Y49043D01*
X495560Y78647D01*
X530000D01*
X530957Y79043D01*
X535957Y84043D01*
X536353Y85000D01*
Y125000D01*
X535957Y125957D01*
X530957Y130957D01*
X530000Y131353D01*
X465000Y131353D01*
X464043Y130957D01*
X444440Y111353D01*
X417743D01*
Y121740D01*
X400257D01*
Y111353D01*
X354073Y111353D01*
Y160750D01*
X353782Y162213D01*
X352954Y163454D01*
X286204Y230204D01*
X284963Y231032D01*
X283500Y231324D01*
X278286D01*
Y231400D01*
X278143Y232122D01*
X277734Y232734D01*
X277122Y233143D01*
X276400Y233286D01*
D02*
G37*
G36*
X268746Y183750D02*
X267254D01*
X265876Y183179D01*
X264821Y182124D01*
X264250Y180746D01*
Y179254D01*
X263878Y178143D01*
X263266Y177734D01*
X262857Y177122D01*
X262714Y176400D01*
Y168600D01*
X262857Y167878D01*
X263266Y167266D01*
X263878Y166857D01*
X264600Y166714D01*
X271400D01*
X272122Y166857D01*
X272734Y167266D01*
X273143Y167878D01*
X273286Y168600D01*
Y176400D01*
X273143Y177122D01*
X272734Y177734D01*
X272122Y178143D01*
X271750Y179254D01*
Y180746D01*
X271179Y182124D01*
X270124Y183179D01*
X268746Y183750D01*
D02*
G37*
%LPD*%
G36*
X193000Y182000D02*
Y174000D01*
X166000D01*
X165000Y175000D01*
X165000Y177000D01*
X165000Y177000D01*
X165000Y177000D01*
Y181000D01*
X165000Y192000D01*
X165000D01*
Y196000D01*
X165000D01*
Y199000D01*
X166000Y200000D01*
X175000D01*
X193000Y182000D01*
D02*
G37*
G36*
X163737Y199218D02*
X163647Y199000D01*
Y196000D01*
X161000D01*
Y192000D01*
X163647D01*
X163647Y181000D01*
X161000D01*
Y177000D01*
X162749D01*
X163647Y176102D01*
X163647Y175000D01*
X164043Y174043D01*
X165043Y173043D01*
X166000Y172647D01*
X174548D01*
X175074Y171377D01*
X174821Y171124D01*
X174250Y169746D01*
Y168254D01*
X174821Y166876D01*
X175876Y165821D01*
X177254Y165250D01*
X178746D01*
X180124Y165821D01*
X181179Y166876D01*
X181750Y168254D01*
Y169206D01*
X184607D01*
X185750Y168900D01*
Y164100D01*
X185750D01*
X186074Y163318D01*
X181506Y158750D01*
X180254D01*
X178876Y158179D01*
X177821Y157124D01*
X177250Y155746D01*
Y154254D01*
X177821Y152876D01*
X178074Y152623D01*
X177548Y151353D01*
X143475D01*
Y197420D01*
X146543Y200488D01*
X162915D01*
X163737Y199218D01*
D02*
G37*
G36*
X205000Y145000D02*
Y85000D01*
X200000Y80000D01*
X20000D01*
X15000Y85000D01*
X15000D01*
Y145000D01*
X20000Y150000D01*
X189697D01*
X189876Y149821D01*
X191254Y149250D01*
X192746D01*
X194124Y149821D01*
X194303Y150000D01*
X200000D01*
X205000Y145000D01*
D02*
G37*
G36*
X530000Y130000D02*
X535000Y125000D01*
Y85000D01*
X530000Y80000D01*
X495000D01*
X465000Y50000D01*
X335000D01*
X330000Y55000D01*
X330000Y105000D01*
X335000Y110000D01*
X445000Y110000D01*
X465000Y130000D01*
X530000Y130000D01*
D02*
G37*
G36*
X274000Y162000D02*
Y150000D01*
X215000D01*
X270000Y150000D01*
X310000Y150000D01*
X315000Y145000D01*
Y25000D01*
X310000Y20000D01*
X245000D01*
X240000Y25000D01*
Y62557D01*
X240675Y63717D01*
X254325D01*
X254979Y63847D01*
X255533Y64217D01*
X255903Y64771D01*
X256033Y65425D01*
Y73075D01*
X255903Y73729D01*
X255533Y74283D01*
X254979Y74653D01*
X254325Y74783D01*
X251899D01*
X251250Y75754D01*
Y77246D01*
X250679Y78624D01*
X249624Y79679D01*
X248246Y80250D01*
X246754D01*
X245376Y79679D01*
X244321Y78624D01*
X243750Y77246D01*
Y75754D01*
X243101Y74783D01*
X240675D01*
X240000Y75000D01*
X235000Y80000D01*
X215000D01*
X210000Y85000D01*
Y86000D01*
X208000D01*
Y134000D01*
X210000D01*
Y145000D01*
X215000Y150000D01*
X209000Y156000D01*
Y163000D01*
X273000D01*
X274000Y162000D01*
D02*
G37*
%LPC*%
G36*
X199325Y96283D02*
X185675D01*
X185021Y96153D01*
X184467Y95783D01*
X184097Y95229D01*
X184094Y95213D01*
X182928Y94445D01*
X182697Y94417D01*
X182496Y94500D01*
X181004D01*
X179626Y93929D01*
X178571Y92874D01*
X178000Y91496D01*
Y90004D01*
X178571Y88626D01*
X179626Y87571D01*
X181004Y87000D01*
X182496D01*
X182697Y87083D01*
X182928Y87055D01*
X184094Y86287D01*
X184097Y86271D01*
X184467Y85717D01*
X185021Y85347D01*
X185675Y85217D01*
X199325D01*
X199979Y85347D01*
X200533Y85717D01*
X200903Y86271D01*
X201033Y86925D01*
Y94575D01*
X200903Y95229D01*
X200533Y95783D01*
X199979Y96153D01*
X199325Y96283D01*
D02*
G37*
%LPD*%
D13*
X145593Y202782D02*
X184218D01*
X141181Y147536D02*
Y198370D01*
X145593Y202782D01*
X184218D02*
X191000Y196000D01*
X181000Y155000D02*
X181000D01*
X189400Y163400D01*
Y166500D01*
X192000Y153000D02*
X199000D01*
X200500Y154500D01*
Y160400D01*
X205500Y152500D02*
X206000Y152000D01*
X205500Y152500D02*
Y160400D01*
X247500Y69250D02*
Y76500D01*
X181750Y90750D02*
X192500D01*
X183000Y210500D02*
X183000Y210500D01*
X180500Y171500D02*
X189400D01*
X178000Y169000D02*
X180500Y171500D01*
X272066Y211434D02*
X273000Y210500D01*
X272000Y226500D02*
X273000Y227500D01*
X198000Y202000D02*
Y210500D01*
X220600Y187600D02*
X228000Y195000D01*
Y210500D01*
X229000Y211500D01*
X253000Y168000D02*
X254000Y169000D01*
X213000Y202000D02*
Y210500D01*
X243000Y222000D02*
Y226500D01*
X216600Y171500D02*
X238000D01*
X268000Y172500D02*
Y180000D01*
X200500Y187600D02*
Y199500D01*
X198000Y202000D02*
X200500Y199500D01*
X205500Y194500D02*
X213000Y202000D01*
X210500Y187600D02*
X220600D01*
X205500D02*
Y194500D01*
X195500Y187600D02*
Y192500D01*
X191000Y196000D02*
X191574Y195426D01*
X192574D01*
X195500Y192500D01*
D14*
X133000Y108198D02*
D03*
Y42158D02*
D03*
X409000Y65020D02*
D03*
Y-1020D02*
D03*
Y103980D02*
D03*
Y170020D02*
D03*
D15*
X350250Y80000D02*
D03*
X289750D02*
D03*
D16*
X192500Y69250D02*
D03*
Y56351D02*
D03*
Y43651D02*
D03*
Y30750D02*
D03*
X247500Y90750D02*
D03*
Y103649D02*
D03*
Y116349D02*
D03*
Y129250D02*
D03*
D17*
Y30750D02*
D03*
Y69250D02*
D03*
Y56351D02*
D03*
Y43651D02*
D03*
X192500Y129250D02*
D03*
Y90750D02*
D03*
Y103649D02*
D03*
Y116349D02*
D03*
D18*
X203000Y174000D02*
D03*
D19*
X195500Y187600D02*
D03*
X200500D02*
D03*
X205500D02*
D03*
X210500D02*
D03*
Y160400D02*
D03*
X205500D02*
D03*
X200500D02*
D03*
X195500D02*
D03*
D20*
X216600Y181500D02*
D03*
Y176500D02*
D03*
Y171500D02*
D03*
Y166500D02*
D03*
X189400D02*
D03*
Y171500D02*
D03*
Y176500D02*
D03*
Y181500D02*
D03*
D21*
X168000Y227500D02*
D03*
Y210500D02*
D03*
X268000Y172500D02*
D03*
Y155500D02*
D03*
X253000Y172500D02*
D03*
Y155500D02*
D03*
X228000Y227500D02*
D03*
Y210500D02*
D03*
X213000Y210500D02*
D03*
Y227500D02*
D03*
X273000Y210500D02*
D03*
Y227500D02*
D03*
X183000Y210500D02*
D03*
Y227500D02*
D03*
X198000Y210500D02*
D03*
Y227500D02*
D03*
D22*
X155500Y194000D02*
D03*
X170500D02*
D03*
X155500Y179000D02*
D03*
X170500D02*
D03*
D23*
X238000Y156500D02*
D03*
Y171500D02*
D03*
X258000Y211500D02*
D03*
Y226500D02*
D03*
X243000Y211500D02*
D03*
Y226500D02*
D03*
D28*
X350250Y80000D02*
Y160750D01*
X283500Y227500D02*
X350250Y160750D01*
X273000Y227500D02*
X283500D01*
X175000Y210000D02*
X182500D01*
X168500D02*
X175000D01*
X168000Y210500D02*
X168500Y210000D01*
X182500D02*
X183000Y210500D01*
X190500Y227500D02*
X198000D01*
X183000D02*
X190500D01*
X229000Y211500D02*
X243000D01*
X228000Y227500D02*
Y235000D01*
X213000Y222000D02*
Y227500D01*
X243000Y211500D02*
X258000D01*
X258066Y211434D02*
X272066D01*
X258000Y226500D02*
X272000D01*
X155500Y179000D02*
Y186500D01*
Y194000D01*
X149000Y179000D02*
X155500D01*
X149000Y194000D02*
X155500D01*
X155500Y194000D01*
X161500Y227500D02*
X168000D01*
D43*
X40000Y105000D02*
D03*
X510000D02*
D03*
D44*
X40000Y55000D02*
D03*
X510000D02*
D03*
D45*
X20000Y220000D02*
D03*
X530000Y0D02*
D03*
Y220000D02*
D03*
X20000Y0D02*
D03*
D46*
X70000Y90000D02*
D03*
X85000D02*
D03*
X115000D02*
D03*
X145000D02*
D03*
Y105000D02*
D03*
X130000D02*
D03*
X115000D02*
D03*
X100000D02*
D03*
X85000D02*
D03*
X70000D02*
D03*
Y120000D02*
D03*
X85000D02*
D03*
X100000D02*
D03*
X115000D02*
D03*
X130000D02*
D03*
X145000D02*
D03*
X160000D02*
D03*
Y105000D02*
D03*
X490000Y125000D02*
D03*
Y115000D02*
D03*
Y105000D02*
D03*
Y95000D02*
D03*
Y85000D02*
D03*
X480000Y70000D02*
D03*
Y80000D02*
D03*
Y90000D02*
D03*
Y100000D02*
D03*
Y110000D02*
D03*
Y120000D02*
D03*
X470000Y65000D02*
D03*
Y125000D02*
D03*
Y115000D02*
D03*
Y105000D02*
D03*
Y95000D02*
D03*
Y85000D02*
D03*
Y75000D02*
D03*
X460000D02*
D03*
Y85000D02*
D03*
X450000Y75000D02*
D03*
X440000D02*
D03*
X430000D02*
D03*
X420000D02*
D03*
X410000D02*
D03*
X400000D02*
D03*
X390000D02*
D03*
X450000Y85000D02*
D03*
X440000D02*
D03*
X430000D02*
D03*
X420000D02*
D03*
X410000D02*
D03*
X400000D02*
D03*
X390000D02*
D03*
X380000Y55000D02*
D03*
Y65000D02*
D03*
Y75000D02*
D03*
Y85000D02*
D03*
Y95000D02*
D03*
Y105000D02*
D03*
X370000Y55000D02*
D03*
Y65000D02*
D03*
Y75000D02*
D03*
Y85000D02*
D03*
Y95000D02*
D03*
Y105000D02*
D03*
X360000Y55000D02*
D03*
X350000D02*
D03*
X340000D02*
D03*
X360000Y105000D02*
D03*
X350000D02*
D03*
X340000D02*
D03*
X550000Y20000D02*
D03*
Y200000D02*
D03*
Y170000D02*
D03*
Y140000D02*
D03*
Y110000D02*
D03*
Y80000D02*
D03*
Y50000D02*
D03*
X0D02*
D03*
Y80000D02*
D03*
Y110000D02*
D03*
Y140000D02*
D03*
Y170000D02*
D03*
Y200000D02*
D03*
Y20000D02*
D03*
X50000Y240000D02*
D03*
X500000D02*
D03*
X100000D02*
D03*
X150000D02*
D03*
X200000D02*
D03*
X250000D02*
D03*
X300000D02*
D03*
X350000D02*
D03*
X400000D02*
D03*
X450000D02*
D03*
Y-20000D02*
D03*
X400000D02*
D03*
X350000D02*
D03*
X300000D02*
D03*
X250000D02*
D03*
X200000D02*
D03*
X150000D02*
D03*
X100000D02*
D03*
X500000D02*
D03*
X50000D02*
D03*
X175000Y210000D02*
D03*
X181000Y155000D02*
D03*
X192000Y153000D02*
D03*
X206000Y152000D02*
D03*
X247500Y76500D02*
D03*
X181750Y90750D02*
D03*
X178000Y169000D02*
D03*
X155500Y186500D02*
D03*
X149000Y179000D02*
D03*
X149000Y194000D02*
D03*
X228000Y235000D02*
D03*
X161500Y227500D02*
D03*
X182000Y189000D02*
D03*
X190500Y227500D02*
D03*
X191000Y196000D02*
D03*
X253000Y168000D02*
D03*
X268000Y180000D02*
D03*
X243000Y222000D02*
D03*
X213000D02*
D03*
X231000Y172000D02*
D03*
M02*
