M48
;Layer_Color=9474304
;FILE_FORMAT=4:4
METRIC,TZ
;TYPE=PLATED
T1F00S00C0.3000
T2F00S00C2.3000
%
T01
X10000Y102000
X20000
X30000
X40000
X50000
X60000
X70000
X80000
X80000Y118000
X70000
X60000
X50000
X40000
X30000
X20000
X10000
X158000Y115000
X188000Y104000
X214991Y104827
X202000Y50000
X200000Y35000
Y25000
X210000
X220000
Y15000
X210000
X200000
Y5000
X210000
X220000
X230000
Y15000
Y25000
Y35000
X220000
X210000
X172000Y72000
X280000Y102000
X290000
X300000
X310000
X320000
X330000
X340000
X350000
X350000Y118000
X340000
X330000
X320000
X310000
X300000
X290000
X280000
X280000Y132000
X290000
X300000
X310000
X320000
X330000
X340000
X350000
X350000Y148000
X340000
X330000
X320000
X310000
X300000
X290000
X280000
X254000Y150000
X243000Y191000
X231000Y199900
X231000Y219000
Y237962
X195000Y195000
Y185000
X185000
Y195000
X175000
Y185000
Y175000
X185000
X195000
X165000
Y185000
Y195000
X155000
Y185000
Y175000
X159489Y150038
X186000Y139000
X323000Y193250
X130819Y200686
X144000Y138000
X80000Y132000
X70000
X60000
X50000
X40000
X30000
X20000
X10000
Y148000
X20000
X30000
X40000
X50000
X60000
X70000
X80000
T02
X25000Y25000
X89999Y24999
X269999
X334999
Y225000
X270000Y225000
X90000
X24999Y225000
M30
