M48
;Layer_Color=9474304
;FILE_FORMAT=4:4
METRIC,TZ
;TYPE=PLATED
T1F00S00C0.3000
T2F00S00C1.5000
T3F00S00C2.3000
%
T01
X0Y20000
Y50000
Y80000
X70000Y90000
X85000
Y105000
X100000
X115000
Y90000
X145000
Y105000
X130000
X70000
X50000Y-20000
X100000
X150000
X200000
X250000
X300000
X350000
X400000
X450000
X500000
X480000Y70000
Y80000
Y90000
Y100000
X490000Y105000
Y95000
Y85000
X470000
Y95000
Y105000
Y75000
Y65000
X460000Y75000
Y85000
X450000
X440000
Y75000
X450000
X430000
X420000
X410000
X400000
X390000
Y85000
X400000
X410000
X420000
X430000
X380000
Y95000
Y105000
X370000
Y95000
Y85000
Y75000
X380000
Y65000
Y55000
X370000
Y65000
X360000Y55000
X350000
X340000
Y105000
X350000
X360000
X247500Y76500
X181750Y90750
X160000Y105000
X550000Y80000
Y50000
Y20000
Y110000
Y140000
Y170000
Y200000
X500000Y240000
X450000
X400000
X350000
X300000
X250000
X243000Y222000
X228000Y235000
X213000Y222000
X190500Y227500
X200000Y240000
X150000
X161500Y227500
X175000Y210000
X182000Y189000
X191000Y196000
X178000Y169000
X181000Y155000
X192000Y153000
X206000Y152000
X231000Y172000
X253000Y168000
X268000Y180000
X155500Y186500
X149000Y179000
X149000Y194000
X160000Y120000
X470000Y115000
Y125000
X480000Y120000
Y110000
X490000Y115000
Y125000
X145000Y120000
X130000
X115000
X100000
X85000
X70000
X0Y110000
Y140000
Y170000
Y200000
X50000Y240000
X100000
T02
X40000Y55000
Y105000
X510000
Y55000
T03
X20000Y0
X530000
Y220000
X20000
M30
